SplineFontDB: 3.0
FontName: FatemiMaqala-BoldSlanted
FullName: FatemiMaqala BoldSlanted
FamilyName: FatemiMaqala
Weight: Bold
Copyright: All the rights are reserved to Dawat Hadiyah
Version: 1.3
ItalicAngle: 10
UnderlinePosition: -1250
UnderlineWidth: 100
Ascent: 1638
Descent: 410
InvalidEm: 0
LayerCount: 4
Layer: 0 1 "Back" 1
Layer: 1 1 "Fore" 0
Layer: 2 0 "Back 2" 1
Layer: 3 1 "Back 3" 1
XUID: [1021 574 -2067448607 16157476]
UseXUID: 1
UseUniqueID: 1
StyleMap: 0x0001
FSType: 0
OS2Version: 0
OS2_WeightWidthSlopeOnly: 0
OS2_UseTypoMetrics: 1
CreationTime: 1033018408
ModificationTime: 1453211505
PfmFamily: 17
TTFWeight: 700
TTFWidth: 5
LineGap: -100
VLineGap: 0
Panose: 0 0 0 0 0 0 0 0 0 0
OS2TypoAscent: 2200
OS2TypoAOffset: 0
OS2TypoDescent: -1400
OS2TypoDOffset: 0
OS2TypoLinegap: -100
OS2WinAscent: 2200
OS2WinAOffset: 0
OS2WinDescent: 1400
OS2WinDOffset: 0
HheadAscent: 2200
HheadAOffset: 0
HheadDescent: -1400
HheadDOffset: 0
OS2Vendor: 'GLYF'
Lookup: 1 0 0 "dotlessi" { "'ccmp' Glyph Composition/Decomposition in Latin lookup 10 subtable"  } ['ccmp' ('latn' <'TRK ' > ) ]
Lookup: 1 8 0 "'locl' Localized Forms in Arabic lookup 18" { "'locl' Localized Forms in Arabic lookup 18-1"  } ['locl' ('arab' <'URD ' > ) ]
Lookup: 1 8 0 "'locl' Localized Forms in Arabic lookup 25" { "'locl' Localized Forms in Arabic lookup 25-1"  } ['locl' ('arab' <'FAR ' > ) ]
Lookup: 2 0 0 "longlaamkaafs" { "longlaamkaafs-1"  } []
Lookup: 3 0 0 "shortalefs" { "'aalt' Access All Alternates lookup 8 subtable"  } []
Lookup: 1 0 0 "straightrehs" { "straightrehs-1"  } []
Lookup: 1 8 0 "hehgoal" { "hehgoal-1"  } []
Lookup: 1 8 0 "'fina' Terminal Forms in Arabic lookup 4" { "'fina' Terminal Forms in Arabic lookup 4 subtable"  } ['fina' ('DFLT' <'dflt' > 'arab' <'ARA ' 'FAR ' 'URD ' 'dflt' > 'cyrl' <'dflt' > 'latn' <'TRK ' 'dflt' > ) ]

StartChar: .notdef
Encoding: 65536 -1 0
Width: 748
Flags: W
LayerCount: 4
Fore
SplineSet
43 0 m 2,0,-1
 -198 1365 l 2,1,2
 -200 1376 -200 1376 -193 1383 c 128,-1,3
 -186 1390 -186 1390 -177 1390 c 2,4,-1
 367 1390 l 2,5,6
 378 1390 378 1390 386.5 1382 c 128,-1,7
 395 1374 395 1374 396 1365 c 2,8,-1
 637 0 l 2,9,10
 639 -11 639 -11 632 -18 c 128,-1,11
 625 -25 625 -25 616 -25 c 2,12,-1
 72 -25 l 2,13,14
 61 -25 61 -25 53 -17 c 128,-1,15
 45 -9 45 -9 43 0 c 2,0,-1
145 93 m 1,16,-1
 503 93 l 1,17,-1
 295 1272 l 1,18,-1
 -63 1272 l 1,19,-1
 145 93 l 1,16,-1
EndSplineSet
EndChar

StartChar: exclam
Encoding: 33 33 4
Width: 482
GlyphClass: 2
Flags: W
LayerCount: 4
Fore
SplineSet
19 1309 m 0
 33 1309 33 1309 46 1306 c 0
 59 1303 59 1303 71 1297 c 0
 83 1291 83 1291 94 1282 c 0
 105 1273 105 1273 114 1262 c 0
 125 1248 125 1248 133.5 1233 c 0
 142 1218 142 1218 148 1201.5 c 0
 154 1185 154 1185 157 1168 c 0
 162 1142 162 1142 170 1052 c 0
 178 963 178 963 196.5 751 c 0
 215 539 215 539 233 342 c 1
 232 333 l 2
 227 317 227 317 215.5 306 c 0
 204 295 204 295 187 293 c 0
 181 292 181 292 174 295 c 0
 144 307 144 307 130 329 c 0
 127 333 127 333 126 338 c 0
 -56 1029 -56 1029 -81 1168 c 0
 -90 1222 -90 1222 -65 1264 c 0
 -38 1309 -38 1309 19 1309 c 0
EndSplineSet
Refer: 16 46 S 1 0 0 1 34 0 2
Substitution2: "'smcp' Lowercase to Small Capitals lookup 12 subtable" exclam.sc
EndChar

StartChar: quotedbl
Encoding: 34 34 5
Width: 560
GlyphClass: 2
Flags: W
LayerCount: 4
Fore
SplineSet
171 1423 m 0
 192 1423 192 1423 212 1414 c 0
 232 1405 232 1405 249 1388 c 0
 252 1385 252 1385 254 1380.5 c 0
 256 1376 256 1376 257 1372 c 0
 259 1360 259 1360 261.5 1343.5 c 0
 264 1327 264 1327 266.5 1304.5 c 0
 269 1282 269 1282 272.5 1254 c 0
 276 1226 276 1226 279 1193 c 0
 284 1148 284 1148 287.5 1109.5 c 0
 291 1071 291 1071 293.5 1039 c 0
 296 1007 296 1007 298 981 c 0
 298 980 298 980 298 978.5 c 0
 298 977 298 977 297.5 975.5 c 0
 297 974 297 974 297 973 c 0
 287 942 287 942 254 924 c 0
 252 923 252 923 249 922 c 0
 246 921 246 921 244 921 c 0
 217 921 217 921 199 947 c 0
 198 949 198 949 196 951 c 0
 82 1194 82 1194 71 1258 c 0
 61 1312 61 1312 86 1365 c 0
 113 1423 113 1423 171 1423 c 0
EndSplineSet
Refer: 10 39 S 1 0 0 1 0 0 2
EndChar

StartChar: numbersign
Encoding: 35 35 6
Width: 960
GlyphClass: 2
Flags: W
LayerCount: 4
Fore
SplineSet
596 479 m 1,0,-1
 701 479 l 2,1,2
 721 479 721 479 732.5 464.5 c 128,-1,3
 744 450 744 450 748 434 c 0,4,5
 755 407 755 407 749 377 c 0,6,7
 748 370 748 370 746 364 c 128,-1,8
 744 358 744 358 741 352 c 128,-1,9
 738 346 738 346 733.5 341.5 c 128,-1,10
 729 337 729 337 723 334 c 0,11,12
 718 331 718 331 713 331 c 2,13,-1
 598 331 l 1,14,-1
 601 150 l 2,15,16
 601 149 601 149 601 148 c 0,17,18
 600 138 600 138 595 130.5 c 128,-1,19
 590 123 590 123 582 116 c 0,20,21
 565 103 565 103 537 103 c 0,22,23
 524 103 524 103 513 107 c 0,24,25
 497 112 497 112 490 123 c 2,26,-1
 489 125 l 2,27,28
 487 128 487 128 485.5 132.5 c 128,-1,29
 484 137 484 137 484 140 c 2,30,-1
 480 331 l 1,31,-1
 275 331 l 1,32,-1
 277 150 l 2,33,34
 277 149 277 149 277 148 c 0,35,36
 276 138 276 138 271.5 131 c 128,-1,37
 267 124 267 124 259 117 c 0,38,39
 242 103 242 103 215 103 c 0,40,41
 211 103 211 103 207 103.5 c 128,-1,42
 203 104 203 104 199 104.5 c 128,-1,43
 195 105 195 105 191 107 c 0,44,45
 175 112 175 112 168 123 c 2,46,-1
 167 125 l 2,47,48
 165 128 165 128 163.5 132.5 c 128,-1,49
 162 137 162 137 162 140 c 2,50,-1
 158 331 l 1,51,-1
 55 331 l 1,52,-1
 48 332 l 2,53,54
 36 335 36 335 27.5 344 c 128,-1,55
 19 353 19 353 15.5 361 c 128,-1,56
 12 369 12 369 10 379 c 0,57,58
 5 405 5 405 11 434 c 0,59,60
 19 470 19 470 41 478 c 0,61,62
 43 479 43 479 45 479 c 128,-1,63
 47 479 47 479 49 479 c 2,64,-1
 156 479 l 1,65,-1
 152 713 l 1,66,-1
 43 713 l 2,67,68
 32 713 32 713 23 718 c 128,-1,69
 14 723 14 723 9.5 731.5 c 128,-1,70
 5 740 5 740 2.5 747 c 128,-1,71
 0 754 0 754 -2 760 c 0,72,73
 -8 788 -8 788 -1 817 c 0,74,75
 6 852 6 852 28 860 c 0,76,77
 30 861 30 861 31.5 861 c 128,-1,78
 33 861 33 861 35 861 c 2,79,-1
 150 861 l 1,80,-1
 147 1040 l 2,81,82
 147 1042 147 1042 147 1043 c 0,83,84
 148 1055 148 1055 150 1059 c 0,85,86
 152 1064 152 1064 157 1072 c 0,87,88
 166 1084 166 1084 182 1086 c 0,89,90
 191 1087 191 1087 207 1087 c 0,91,92
 219 1087 219 1087 229.5 1084.5 c 128,-1,93
 240 1082 240 1082 249 1077 c 0,94,95
 264 1068 264 1068 264 1052 c 2,96,-1
 267 861 l 1,97,-1
 472 861 l 1,98,-1
 469 1040 l 2,99,100
 469 1041 469 1041 469 1042 c 0,101,-1
 469 1043 l 0,102,103
 470 1055 470 1055 472 1059 c 0,104,105
 474 1064 474 1064 479 1072 c 0,106,107
 488 1084 488 1084 504 1086 c 0,108,109
 507 1086 507 1086 510 1086.5 c 128,-1,110
 513 1087 513 1087 516 1087 c 128,-1,111
 519 1087 519 1087 522 1087 c 128,-1,112
 525 1087 525 1087 529 1087 c 0,113,114
 554 1087 554 1087 571 1077 c 0,115,116
 586 1068 586 1068 586 1052 c 2,117,-1
 589 861 l 1,118,-1
 687 861 l 2,119,120
 706 861 706 861 718.5 847 c 128,-1,121
 731 833 731 833 735 816 c 0,122,123
 739 802 739 802 739.5 788 c 128,-1,124
 740 774 740 774 737 760 c 0,125,126
 736 753 736 753 734 746.5 c 128,-1,127
 732 740 732 740 729.5 734 c 128,-1,128
 727 728 727 728 722.5 723.5 c 128,-1,129
 718 719 718 719 712 716 c 0,130,131
 710 715 710 715 707 714 c 128,-1,132
 704 713 704 713 701 713 c 2,133,-1
 592 713 l 1,134,-1
 596 479 l 1,0,-1
478 479 m 1,135,-1
 474 713 l 1,136,-1
 270 713 l 1,137,-1
 273 479 l 1,138,-1
 478 479 l 1,135,-1
EndSplineSet
EndChar

StartChar: dollar
Encoding: 36 36 7
Width: 996
GlyphClass: 2
Flags: W
LayerCount: 4
Fore
SplineSet
339 1391 m 0,0,1
 341 1391 341 1391 350.5 1391 c 128,-1,2
 360 1391 360 1391 364.5 1391 c 128,-1,3
 369 1391 369 1391 378 1390.5 c 128,-1,4
 387 1390 387 1390 392 1389 c 128,-1,5
 397 1388 397 1388 405.5 1386.5 c 128,-1,6
 414 1385 414 1385 418.5 1382 c 128,-1,7
 423 1379 423 1379 428 1375 c 128,-1,8
 433 1371 433 1371 436 1365 c 128,-1,9
 439 1359 439 1359 441 1352 c 0,10,11
 441 1350 441 1350 441 1348 c 2,12,-1
 442 1284 l 1,13,14
 454 1281 454 1281 467 1278 c 128,-1,15
 480 1275 480 1275 498 1270 c 0,16,17
 525 1263 525 1263 547.5 1257.5 c 128,-1,18
 570 1252 570 1252 589 1248 c 0,19,20
 596 1246 596 1246 602.5 1241 c 128,-1,21
 609 1236 609 1236 612 1230 c 0,22,23
 617 1218 617 1218 621.5 1204.5 c 128,-1,24
 626 1191 626 1191 631 1176.5 c 128,-1,25
 636 1162 636 1162 640 1146 c 0,26,27
 647 1123 647 1123 652 1105 c 128,-1,28
 657 1087 657 1087 660 1073 c 0,29,30
 662 1064 662 1064 664.5 1053 c 128,-1,31
 667 1042 667 1042 670 1029 c 128,-1,32
 673 1016 673 1016 676 1001 c 0,33,34
 681 976 681 976 683 965 c 128,-1,35
 685 954 685 954 685 952 c 0,36,37
 686 946 686 946 684 940 c 128,-1,38
 682 934 682 934 677 931 c 0,39,40
 671 927 671 927 663 924 c 128,-1,41
 655 921 655 921 647 920 c 128,-1,42
 639 919 639 919 630 919 c 0,43,44
 602 919 602 919 581 936 c 0,45,46
 578 939 578 939 575.5 943 c 128,-1,47
 573 947 573 947 572 951 c 0,48,49
 557 1001 557 1001 511 1060 c 0,50,51
 481 1100 481 1100 444 1128 c 1,52,-1
 448 723 l 1,53,54
 453 720 453 720 457.5 717.5 c 128,-1,55
 462 715 462 715 466.5 712.5 c 128,-1,56
 471 710 471 710 477 706.5 c 128,-1,57
 483 703 483 703 489 700 c 128,-1,58
 495 697 495 697 503 692 c 0,59,60
 542 671 542 671 565 658 c 0,61,62
 589 645 589 645 627 621 c 0,63,64
 637 615 637 615 646 609 c 128,-1,65
 655 603 655 603 663 597.5 c 128,-1,66
 671 592 671 592 678.5 587 c 128,-1,67
 686 582 686 582 692 577 c 0,68,69
 717 557 717 557 748 528 c 0,70,71
 780 498 780 498 801 470 c 0,72,73
 821 442 821 442 838 407 c 0,74,75
 847 389 847 389 853 370 c 128,-1,76
 859 351 859 351 862 332 c 0,77,78
 881 222 881 222 835 134 c 0,79,80
 788 47 788 47 700 0 c 0,81,82
 612 -45 612 -45 502 -45 c 0,83,84
 480 -45 480 -45 457 -44 c 1,85,-1
 458 -108 l 2,86,87
 458 -117 458 -117 451.5 -123 c 128,-1,88
 445 -129 445 -129 437 -129 c 0,89,90
 414 -129 414 -129 386 -124 c 0,91,92
 385 -124 385 -124 384 -124 c 0,93,94
 373 -122 373 -122 365.5 -119.5 c 128,-1,95
 358 -117 358 -117 347.5 -108.5 c 128,-1,96
 337 -100 337 -100 334 -86 c 2,97,-1
 334 -82 l 1,98,-1
 333 -28 l 1,99,100
 282 -18 282 -18 141 12 c 0,101,102
 124 15 124 15 118 31 c 0,103,104
 88 110 88 110 55 209 c 0,105,106
 38 262 38 262 29.5 290 c 128,-1,107
 21 318 21 318 19 330 c 0,108,109
 17 340 17 340 23 348 c 0,110,111
 26 351 26 351 29 353.5 c 128,-1,112
 32 356 32 356 36.5 358 c 128,-1,113
 41 360 41 360 44.5 361.5 c 128,-1,114
 48 363 48 363 53 365 c 0,115,116
 72 371 72 371 87 371 c 0,117,118
 119 371 119 371 135 347 c 0,119,120
 136 346 136 346 137 344.5 c 128,-1,121
 138 343 138 343 138 341 c 0,122,123
 141 335 141 335 143.5 328.5 c 128,-1,124
 146 322 146 322 149 315.5 c 128,-1,125
 152 309 152 309 155.5 302.5 c 128,-1,126
 159 296 159 296 162 290 c 0,127,128
 176 264 176 264 203 221 c 0,129,130
 229 182 229 182 271 148 c 0,131,132
 299 125 299 125 332 109 c 1,133,-1
 327 555 l 1,134,135
 287 577 287 577 260 591 c 0,136,137
 228 609 228 609 181 640 c 0,138,139
 165 650 165 650 150 660 c 128,-1,140
 135 670 135 670 122.5 680 c 128,-1,141
 110 690 110 690 99 700 c 0,142,143
 88 709 88 709 77 719.5 c 128,-1,144
 66 730 66 730 55 741 c 128,-1,145
 44 752 44 752 33 764 c 0,146,147
 15 783 15 783 1 804 c 128,-1,148
 -13 825 -13 825 -23 847 c 0,149,150
 -44 891 -44 891 -53 940 c 0,151,152
 -62 993 -62 993 -56 1041 c 128,-1,153
 -50 1089 -50 1089 -28 1131 c 0,154,155
 15 1216 15 1216 99 1260 c 0,156,157
 182 1303 182 1303 284 1303 c 0,158,159
 291 1303 291 1303 300 1303 c 128,-1,160
 309 1303 309 1303 318 1302 c 1,161,-1
 318 1370 l 2,162,163
 318 1376 318 1376 321 1381 c 128,-1,164
 324 1386 324 1386 328.5 1388.5 c 128,-1,165
 333 1391 333 1391 339 1391 c 0,0,1
451 491 m 1,166,-1
 456 74 l 1,167,168
 470 73 470 73 485 73 c 0,169,170
 570 73 570 73 621 128 c 0,171,172
 671 183 671 183 654 280 c 0,173,174
 650 301 650 301 643 319 c 0,175,176
 639 329 639 329 635.5 338 c 128,-1,177
 632 347 632 347 629 354 c 0,178,179
 624 366 624 366 611 380 c 0,180,181
 594 398 594 398 586 408 c 0,182,183
 584 410 584 410 577.5 415.5 c 128,-1,184
 571 421 571 421 561 428 c 0,185,186
 538 443 538 443 530 449 c 0,187,188
 522 454 522 454 494 469 c 0,189,190
 466 484 466 484 458 488 c 2,191,-1
 451 491 l 1,166,-1
324 792 m 1,192,-1
 319 1185 l 1,193,194
 314 1186 314 1186 310 1186.5 c 128,-1,195
 306 1187 306 1187 301.5 1187 c 128,-1,196
 297 1187 297 1187 293 1187 c 0,197,198
 282 1187 282 1187 271.5 1186.5 c 128,-1,199
 261 1186 261 1186 251.5 1184.5 c 128,-1,200
 242 1183 242 1183 233.5 1181 c 128,-1,201
 225 1179 225 1179 217.5 1176 c 128,-1,202
 210 1173 210 1173 203 1170 c 0,203,204
 169 1153 169 1153 156 1126 c 0,205,206
 148 1111 148 1111 143.5 1096 c 128,-1,207
 139 1081 139 1081 138 1066 c 0,208,209
 135 1035 135 1035 141 1000 c 0,210,211
 148 961 148 961 166 929 c 0,212,213
 175 913 175 913 187.5 898 c 128,-1,214
 200 883 200 883 216 869 c 0,215,216
 250 839 250 839 279 820 c 0,217,218
 288 814 288 814 300 806.5 c 128,-1,219
 312 799 312 799 324 792 c 1,192,-1
EndSplineSet
EndChar

StartChar: percent
Encoding: 37 37 8
Width: 1334
GlyphClass: 2
Flags: W
LayerCount: 4
Fore
SplineSet
157 1217 m 0,0,1
 134 1217 134 1217 116.5 1209.5 c 128,-1,2
 99 1202 99 1202 86 1185 c 0,3,4
 77 1173 77 1173 70 1160.5 c 128,-1,5
 63 1148 63 1148 59 1133.5 c 128,-1,6
 55 1119 55 1119 53 1103 c 0,7,8
 47 1052 47 1052 58 992 c 0,9,10
 76 892 76 892 143 805 c 0,11,12
 205 725 205 725 264 725 c 0,13,14
 297 725 297 725 318 743 c 0,15,16
 340 761 340 761 348 793 c 0,17,18
 357 828 357 828 357 867 c 0,19,20
 357 907 357 907 349 952 c 0,21,22
 337 1017 337 1017 308 1079 c 0,23,24
 279 1139 279 1139 235 1180 c 0,25,26
 196 1217 196 1217 157 1217 c 0,0,1
148 1315 m 0,27,28
 287 1315 287 1315 396 1212 c 0,29,30
 449 1161 449 1161 482.5 1100 c 128,-1,31
 516 1039 516 1039 528 968 c 0,32,33
 533 939 533 939 534 911.5 c 128,-1,34
 535 884 535 884 531.5 857 c 128,-1,35
 528 830 528 830 520 804 c 0,36,37
 496 726 496 726 431 676 c 0,38,39
 365 625 365 625 270 625 c 0,40,41
 134 625 134 625 21 726 c 0,42,43
 -91 826 -91 826 -116 968 c 0,44,45
 -129 1040 -129 1040 -117 1102 c 128,-1,46
 -105 1164 -105 1164 -68 1214 c 0,47,48
 -31 1264 -31 1264 23.5 1289.5 c 128,-1,49
 78 1315 78 1315 148 1315 c 0,27,28
852 553 m 0,50,51
 806 553 806 553 781 521 c 0,52,53
 753 487 753 487 747 438 c 0,54,55
 741 387 741 387 751 328 c 0,56,57
 769 228 769 228 837 142 c 0,58,59
 900 61 900 61 959 61 c 0,60,61
 992 61 992 61 1013 79 c 0,62,63
 1035 97 1035 97 1042 129 c 0,64,65
 1051 164 1051 164 1051 203 c 0,66,67
 1051 243 1051 243 1042 288 c 0,68,69
 1038 310 1038 310 1032.5 331.5 c 128,-1,70
 1027 353 1027 353 1019 374 c 128,-1,71
 1011 395 1011 395 1001 415 c 0,72,73
 987 445 987 445 969 470.5 c 128,-1,74
 951 496 951 496 930 517 c 0,75,76
 891 553 891 553 852 553 c 0,50,51
843 651 m 0,77,78
 982 651 982 651 1090 548 c 0,79,80
 1196 447 1196 447 1221 304 c 0,81,82
 1245 168 1245 168 1177 65 c 0,83,84
 1107 -39 1107 -39 963 -39 c 0,85,86
 896 -39 896 -39 833 -13.5 c 128,-1,87
 770 12 770 12 714.5 62 c 128,-1,88
 659 112 659 112 624.5 173 c 128,-1,89
 590 234 590 234 577 304 c 0,90,91
 551 450 551 450 626 550 c 0,92,93
 700 651 700 651 843 651 c 0,77,78
998 1233 m 2,94,-1
 253 -15 l 2,95,96
 245 -29 245 -29 218 -39 c 0,97,98
 210 -42 210 -42 203 -44.5 c 128,-1,99
 196 -47 196 -47 188 -48 c 128,-1,100
 180 -49 180 -49 173 -49 c 0,101,102
 133 -49 133 -49 108 -13 c 0,103,104
 104 -7 104 -7 103.5 0.5 c 128,-1,105
 103 8 103 8 106 13 c 2,106,-1
 850 1264 l 2,107,108
 872 1297 872 1297 903 1297 c 0,109,110
 926 1297 926 1297 939 1295 c 0,111,112
 940 1295 940 1295 941 1295 c 0,113,114
 946 1294 946 1294 948 1294 c 128,-1,115
 950 1294 950 1294 953.5 1293 c 128,-1,116
 957 1292 957 1292 961 1290 c 0,117,118
 965 1288 965 1288 968 1286.5 c 128,-1,119
 971 1285 971 1285 974 1282 c 128,-1,120
 977 1279 977 1279 978.5 1278 c 128,-1,121
 980 1277 980 1277 983 1274 c 0,122,123
 988 1269 988 1269 991 1266 c 0,124,125
 996 1262 996 1262 998.5 1255.5 c 128,-1,126
 1001 1249 1001 1249 1001 1243 c 128,-1,127
 1001 1237 1001 1237 998 1233 c 2,94,-1
EndSplineSet
EndChar

StartChar: ampersand
Encoding: 38 38 9
Width: 1366
GlyphClass: 2
Flags: W
LayerCount: 4
Fore
SplineSet
743 191 m 1,0,1
 679 249 679 249 591 344 c 0,2,3
 489 454 489 454 422 534 c 2,4,-1
 373 593 l 1,5,6
 348 574 348 574 335 563 c 0,7,8
 318 549 318 549 291 520 c 0,9,10
 282 511 282 511 275.5 502 c 128,-1,11
 269 493 269 493 264 485.5 c 128,-1,12
 259 478 259 478 256 471 c 0,13,14
 246 448 246 448 241 414 c 0,15,16
 236 381 236 381 242 344 c 0,17,18
 253 283 253 283 279 239 c 128,-1,19
 305 195 305 195 346 165 c 0,20,21
 432 105 432 105 543 105 c 0,22,23
 571 105 571 105 601 112 c 128,-1,24
 631 119 631 119 661 133 c 0,25,26
 668 136 668 136 675 139.5 c 128,-1,27
 682 143 682 143 688.5 147 c 128,-1,28
 695 151 695 151 701 155 c 128,-1,29
 707 159 707 159 712.5 163.5 c 128,-1,30
 718 168 718 168 723.5 172.5 c 128,-1,31
 729 177 729 177 734 181.5 c 128,-1,32
 739 186 739 186 743 191 c 1,0,1
412 1215 m 0,33,34
 356 1215 356 1215 323 1179 c 0,35,36
 291 1143 291 1143 302 1086 c 0,37,38
 322 972 322 972 440 805 c 1,39,40
 486 836 486 836 512 862 c 0,41,42
 522 872 522 872 530 884 c 128,-1,43
 538 896 538 896 544.5 910.5 c 128,-1,44
 551 925 551 925 556 942 c 0,45,46
 570 991 570 991 558 1060 c 0,47,48
 552 1092 552 1092 538.5 1119.5 c 128,-1,49
 525 1147 525 1147 503 1171 c 0,50,51
 489 1186 489 1186 474.5 1196 c 128,-1,52
 460 1206 460 1206 445 1210.5 c 128,-1,53
 430 1215 430 1215 412 1215 c 0,33,34
380 1337 m 0,54,55
 522 1338 522 1338 618 1274 c 0,56,57
 718 1208 718 1208 739 1088 c 0,58,59
 741 1074 741 1074 742.5 1060.5 c 128,-1,60
 744 1047 744 1047 744.5 1033.5 c 128,-1,61
 745 1020 745 1020 744 1007.5 c 128,-1,62
 743 995 743 995 741.5 982 c 128,-1,63
 740 969 740 969 737 957 c 0,64,65
 722 897 722 897 681 846 c 0,66,67
 661 822 661 822 641.5 800.5 c 128,-1,68
 622 779 622 779 601 762 c 0,69,70
 567 732 567 732 519 698 c 1,71,72
 538 673 538 673 558.5 648.5 c 128,-1,73
 579 624 579 624 600.5 599 c 128,-1,74
 622 574 622 574 644.5 549 c 128,-1,75
 667 524 667 524 690.5 499 c 128,-1,76
 714 474 714 474 738.5 449 c 128,-1,77
 763 424 763 424 788 399 c 128,-1,78
 813 374 813 374 839 349 c 1,79,80
 853 380 853 380 863.5 408 c 128,-1,81
 874 436 874 436 881 464 c 0,82,83
 885 477 885 477 888 489 c 128,-1,84
 891 501 891 501 893 510 c 128,-1,85
 895 519 895 519 896 526 c 128,-1,86
 897 533 897 533 897.5 537 c 128,-1,87
 898 541 898 541 897 542 c 0,88,89
 897 543 l 0,90,91
 896 544 896 544 894 544 c 0,92,93
 887 547 887 547 877.5 549 c 128,-1,94
 868 551 868 551 857 552 c 0,95,96
 834 553 834 553 830 553 c 0,97,98
 825 553 825 553 820.5 555 c 128,-1,99
 816 557 816 557 812.5 559.5 c 128,-1,100
 809 562 809 562 806 566 c 0,101,102
 795 581 795 581 792 603 c 0,103,104
 788 628 788 628 799 642 c 0,105,106
 805 649 805 649 816 649 c 2,107,-1
 974 649 l 2,108,109
 989 649 989 649 1004.5 649.5 c 128,-1,110
 1020 650 1020 650 1036 650.5 c 128,-1,111
 1052 651 1052 651 1071 652 c 128,-1,112
 1090 653 1090 653 1112 655 c 0,113,114
 1156 658 1156 658 1191 659 c 0,115,116
 1200 659 1200 659 1208 654 c 128,-1,117
 1216 649 1216 649 1221 641.5 c 128,-1,118
 1226 634 1226 634 1227 629.5 c 128,-1,119
 1228 625 1228 625 1229 615.5 c 128,-1,120
 1230 606 1230 606 1230 604 c 0,121,-1
 1231 601 l 0,122,123
 1232 598 1232 598 1232.5 594.5 c 128,-1,124
 1233 591 1233 591 1234 586.5 c 128,-1,125
 1235 582 1235 582 1235 577.5 c 128,-1,126
 1235 573 1235 573 1233.5 568.5 c 128,-1,127
 1232 564 1232 564 1229 560.5 c 128,-1,128
 1226 557 1226 557 1221 555 c 128,-1,129
 1216 553 1216 553 1208 553 c 0,130,131
 1201 553 1201 553 1191.5 552 c 128,-1,132
 1182 551 1182 551 1169.5 548.5 c 128,-1,133
 1157 546 1157 546 1143 542 c 0,134,135
 1106 532 1106 532 1092 525 c 1,136,137
 1087 515 1087 515 1075 486 c 0,138,139
 1070 475 1070 475 1064 462 c 128,-1,140
 1058 449 1058 449 1051 434 c 128,-1,141
 1044 419 1044 419 1036 402.5 c 128,-1,142
 1028 386 1028 386 1019 367 c 0,143,144
 1003 335 1003 335 985.5 305 c 128,-1,145
 968 275 968 275 950 247 c 1,146,147
 990 212 990 212 1007 197 c 0,148,149
 1028 179 1028 179 1061 153 c 0,150,151
 1092 129 1092 129 1109 122 c 0,152,153
 1124 115 1124 115 1136 115 c 0,154,155
 1139 115 1139 115 1141.5 115.5 c 128,-1,156
 1144 116 1144 116 1148 118 c 128,-1,157
 1152 120 1152 120 1156 123 c 128,-1,158
 1160 126 1160 126 1165 130.5 c 128,-1,159
 1170 135 1170 135 1174 141 c 0,160,161
 1198 171 1198 171 1203 191 c 0,162,163
 1205 198 1205 198 1210.5 202.5 c 128,-1,164
 1216 207 1216 207 1224 207 c 0,165,166
 1249 207 1249 207 1274 189 c 0,167,168
 1302 169 1302 169 1305 146 c 0,169,170
 1305 144 1305 144 1305.5 141 c 128,-1,171
 1306 138 1306 138 1305 136 c 0,172,173
 1304 132 1304 132 1303 127.5 c 128,-1,174
 1302 123 1302 123 1300.5 119 c 128,-1,175
 1299 115 1299 115 1297 111 c 0,176,177
 1292 98 1292 98 1277 72 c 0,178,179
 1261 45 1261 45 1240 26 c 0,180,181
 1218 6 1218 6 1179 -9 c 0,182,183
 1159 -17 1159 -17 1137.5 -21 c 128,-1,184
 1116 -25 1116 -25 1092 -25 c 0,185,186
 1073 -25 1073 -25 1052.5 -20.5 c 128,-1,187
 1032 -16 1032 -16 1011 -8 c 0,188,189
 969 8 969 8 935 31 c 0,190,191
 903 53 903 53 875 75 c 0,192,193
 863 84 863 84 853 92.5 c 128,-1,194
 843 101 843 101 836 108 c 1,195,196
 774 50 774 50 693 13 c 0,197,198
 599 -31 599 -31 499 -31 c 0,199,200
 313 -31 313 -31 185 61 c 0,201,202
 54 155 54 155 25 316 c 0,203,204
 22 331 22 331 21 345.5 c 128,-1,205
 20 360 20 360 20 374 c 128,-1,206
 20 388 20 388 21 401.5 c 128,-1,207
 22 415 22 415 24 428 c 128,-1,208
 26 441 26 441 30 454 c 0,209,210
 47 517 47 517 94 567 c 0,211,212
 138 615 138 615 185 650 c 0,213,214
 205 664 205 664 228 679.5 c 128,-1,215
 251 695 251 695 278 710 c 1,216,217
 241 759 241 759 219 791 c 0,218,219
 191 832 191 832 159 900 c 0,220,221
 143 935 143 935 131.5 969.5 c 128,-1,222
 120 1004 120 1004 114 1038 c 0,223,224
 92 1164 92 1164 169 1251 c 0,225,226
 245 1337 245 1337 380 1337 c 0,54,55
EndSplineSet
Substitution2: "'smcp' Lowercase to Small Capitals lookup 12 subtable" ampersand.sc
EndChar

StartChar: quotesingle
Encoding: 39 39 10
Width: 320
GlyphClass: 2
Flags: W
LayerCount: 4
Fore
SplineSet
-69 1423 m 0,0,1
 -55 1423 -55 1423 -41 1419 c 128,-1,2
 -27 1415 -27 1415 -14.5 1407 c 128,-1,3
 -2 1399 -2 1399 9 1388 c 0,4,5
 12 1385 12 1385 14 1380.5 c 128,-1,6
 16 1376 16 1376 17 1372 c 0,7,8
 25 1327 25 1327 39 1193 c 0,9,10
 53 1059 53 1059 58 981 c 0,11,12
 58 977 58 977 57 973 c 0,13,14
 47 942 47 942 14 924 c 0,15,16
 12 923 12 923 10.5 922.5 c 128,-1,17
 9 922 9 922 7 921.5 c 128,-1,18
 5 921 5 921 4 921 c 0,19,20
 -23 921 -23 921 -41 947 c 0,21,22
 -42 949 -42 949 -44 951 c 0,23,24
 -158 1194 -158 1194 -169 1258 c 0,25,26
 -179 1312 -179 1312 -154 1365 c 0,27,28
 -127 1423 -127 1423 -69 1423 c 0,0,1
EndSplineSet
Substitution2: "'smcp' Lowercase to Small Capitals lookup 12 subtable" quotesingle.sc
EndChar

StartChar: parenleft
Encoding: 40 40 11
Width: 524
GlyphClass: 2
Flags: W
LayerCount: 4
Fore
SplineSet
144.5 570 m 128,-1,1
 187 328 187 328 304 100 c 0,2,3
 420 -126 420 -126 571 -241 c 0,4,5
 588 -254 588 -254 582 -271 c 0,6,7
 581 -275 581 -275 576 -284 c 0,8,9
 574 -287 574 -287 571.5 -290.5 c 128,-1,10
 569 -294 569 -294 566.5 -297 c 128,-1,11
 564 -300 564 -300 561 -304 c 0,12,13
 551 -316 551 -316 544 -321 c 0,14,15
 541 -323 541 -323 537.5 -324 c 128,-1,16
 534 -325 534 -325 530 -325 c 128,-1,17
 526 -325 526 -325 522 -323.5 c 128,-1,18
 518 -322 518 -322 515 -320 c 0,19,20
 300 -171 300 -171 149.5 56.5 c 128,-1,21
 -1 284 -1 284 -52 570 c 0,22,23
 -103 857 -103 857 -32 1083 c 0,24,25
 3 1196 3 1196 61.5 1289.5 c 128,-1,26
 120 1383 120 1383 202 1458 c 0,27,28
 214 1469 214 1469 231 1459 c 0,29,30
 235 1457 235 1457 238.5 1454 c 128,-1,31
 242 1451 242 1451 245.5 1448.5 c 128,-1,32
 249 1446 249 1446 253 1442 c 0,33,34
 266 1431 266 1431 273 1424 c 0,35,36
 275 1422 275 1422 276.5 1420.5 c 128,-1,37
 278 1419 278 1419 280 1417 c 128,-1,38
 282 1415 282 1415 283.5 1413 c 128,-1,39
 285 1411 285 1411 286 1409 c 0,40,41
 288 1406 288 1406 289 1402.5 c 128,-1,42
 290 1399 290 1399 290.5 1396 c 128,-1,43
 291 1393 291 1393 290.5 1389.5 c 128,-1,44
 290 1386 290 1386 288.5 1383.5 c 128,-1,45
 287 1381 287 1381 285 1379 c 0,46,47
 248 1340 248 1340 220 1290 c 128,-1,48
 192 1240 192 1240 171.5 1177 c 128,-1,49
 151 1114 151 1114 139 1038 c 0,50,0
 102 812 102 812 144.5 570 c 128,-1,1
EndSplineSet
Substitution2: "'smcp' Lowercase to Small Capitals lookup 12 subtable" parenleft.sc
EndChar

StartChar: parenright
Encoding: 41 41 12
Width: 524
GlyphClass: 2
Flags: W
LayerCount: 4
Fore
SplineSet
374 570 m 0,0,1
 424 284 424 284 354 56.5 c 128,-1,2
 284 -171 284 -171 122 -320 c 0,3,4
 110 -331 110 -331 93 -321 c 0,5,6
 84 -316 84 -316 70 -304 c 0,7,8
 57 -293 57 -293 50 -285 c 2,9,-1
 40 -275 l 2,10,11
 33 -267 33 -267 32.5 -257.5 c 128,-1,12
 32 -248 32 -248 38 -241 c 0,13,14
 149 -125 149 -125 185 100 c 0,15,16
 221 328 221 328 178.5 570 c 128,-1,17
 136 812 136 812 19 1038 c 0,18,19
 -96 1262 -96 1262 -248 1379 c 0,20,21
 -265 1392 -265 1392 -259 1409 c 0,22,23
 -258 1413 -258 1413 -252 1422 c 0,24,25
 -247 1430 -247 1430 -238 1442 c 0,26,27
 -228 1454 -228 1454 -221 1459 c 0,28,29
 -208 1469 -208 1469 -192 1458 c 0,30,31
 24 1309 24 1309 173.5 1083 c 128,-1,32
 323 857 323 857 374 570 c 0,0,1
EndSplineSet
Substitution2: "'smcp' Lowercase to Small Capitals lookup 12 subtable" parenright.sc
EndChar

StartChar: plus
Encoding: 43 43 13
Width: 1084
GlyphClass: 2
Flags: W
LayerCount: 4
Fore
SplineSet
304 971 m 0,0,1
 334 983 334 983 355.5 989 c 128,-1,2
 377 995 377 995 395 995 c 0,3,4
 398 995 398 995 400 995 c 128,-1,5
 402 995 402 995 405 994.5 c 128,-1,6
 408 994 408 994 410.5 993.5 c 128,-1,7
 413 993 413 993 416 992 c 128,-1,8
 419 991 419 991 421 990 c 0,9,10
 435 984 435 984 443 975 c 2,11,-1
 445 972 l 2,12,13
 450 966 450 966 452 958 c 2,14,-1
 520 573 l 1,15,-1
 903 573 l 2,16,17
 922 573 922 573 937 558 c 0,18,19
 944 551 944 551 948.5 542 c 128,-1,20
 953 533 953 533 955 524 c 0,21,22
 956 520 956 520 956 516 c 128,-1,23
 956 512 956 512 956.5 507.5 c 128,-1,24
 957 503 957 503 957 499 c 128,-1,25
 957 495 957 495 957 491 c 128,-1,26
 957 487 957 487 956.5 482.5 c 128,-1,27
 956 478 956 478 955.5 474 c 128,-1,28
 955 470 955 470 954 466 c 0,29,30
 953 460 953 460 951.5 454.5 c 128,-1,31
 950 449 950 449 948 444 c 128,-1,32
 946 439 946 439 944 434.5 c 128,-1,33
 942 430 942 430 939.5 426 c 128,-1,34
 937 422 937 422 934 418 c 0,35,36
 928 411 928 411 918 411 c 2,37,-1
 549 411 l 1,38,-1
 615 32 l 2,39,40
 617 20 617 20 609 12 c 0,41,42
 578 -15 578 -15 513 -15 c 0,43,44
 495 -15 495 -15 478 -4 c 0,45,46
 458 9 458 9 454 28 c 2,47,-1
 387 411 l 1,48,-1
 2 411 l 2,49,50
 -18 411 -18 411 -29.5 425.5 c 128,-1,51
 -41 440 -41 440 -43.5 456 c 128,-1,52
 -46 472 -46 472 -44 509 c 0,53,54
 -41 552 -41 552 -23 568 c 0,55,56
 -17 573 -17 573 -9 573 c 2,57,-1
 358 573 l 1,58,-1
 292 948 l 2,59,60
 291 956 291 956 294 962 c 128,-1,61
 297 968 297 968 304 971 c 0,0,1
EndSplineSet
EndChar

StartChar: comma
Encoding: 44 44 14
Width: 402
GlyphClass: 2
Flags: W
LayerCount: 4
Fore
SplineSet
164 271 m 0,0,1
 181 271 181 271 198.5 266.5 c 128,-1,2
 216 262 216 262 232 254 c 0,3,4
 238 251 238 251 242 245 c 0,5,6
 293 177 293 177 309 92 c 0,7,8
 317 45 317 45 305.5 -9.5 c 128,-1,9
 294 -64 294 -64 264 -127 c 0,10,11
 204 -254 204 -254 129 -300 c 0,12,13
 124 -303 124 -303 117 -303 c 0,14,15
 93 -303 93 -303 71 -275 c 0,16,17
 53 -253 53 -253 51 -236 c 0,18,19
 49 -223 49 -223 57 -216 c 0,20,21
 76 -200 76 -200 88 -187 c 0,22,23
 100 -175 100 -175 118 -147 c 0,24,25
 135 -122 135 -122 139 -89 c 0,26,27
 144 -55 144 -55 137 -14 c 0,28,29
 133 10 133 10 98 48 c 0,30,31
 51 100 51 100 43 148 c 0,32,33
 35 194 35 194 69 233 c 0,34,35
 103 271 103 271 164 271 c 0,0,1
EndSplineSet
Substitution2: "'smcp' Lowercase to Small Capitals lookup 12 subtable" comma.sc
Substitution2: "'c2sc' Capitals to Small Capitals in Latin lookup 11 subtable" comma.sc
EndChar

StartChar: hyphen
Encoding: 45 45 15
Width: 754
GlyphClass: 2
Flags: W
LayerCount: 4
Fore
SplineSet
44 547 m 0,0,1
 456 569 456 569 523 571 c 0,2,3
 541 571 541 571 554 557.5 c 128,-1,4
 567 544 567 544 570 528 c 0,5,6
 575 499 575 499 573 469 c 128,-1,7
 571 439 571 439 562 409 c 0,8,9
 558 396 558 396 544 395 c 0,10,11
 503 392 503 392 65 373 c 0,12,13
 45 373 45 373 31 388 c 0,14,15
 20 400 20 400 17 420 c 0,16,17
 8 472 8 472 25 533 c 0,18,19
 27 539 27 539 32.5 543 c 128,-1,20
 38 547 38 547 44 547 c 0,0,1
EndSplineSet
EndChar

StartChar: period
Encoding: 46 46 16
Width: 414
GlyphClass: 2
Flags: W
LayerCount: 4
Fore
SplineSet
55 90 m 0,0,1
 45 146 45 146 80 185 c 0,2,3
 114 223 114 223 169 223 c 0,4,5
 224 223 224 223 269.5 184 c 128,-1,6
 315 145 315 145 325 90 c 0,7,8
 335 35 335 35 304 -6 c 0,9,10
 272 -47 272 -47 216 -47 c 0,11,12
 189 -47 189 -47 162.5 -36.5 c 128,-1,13
 136 -26 136 -26 113 -6 c 0,14,15
 65 35 65 35 55 90 c 0,0,1
EndSplineSet
Substitution2: "'smcp' Lowercase to Small Capitals lookup 12 subtable" period.sc
Substitution2: "'c2sc' Capitals to Small Capitals in Latin lookup 11 subtable" period.sc
EndChar

StartChar: slash
Encoding: 47 47 17
Width: 826
GlyphClass: 2
Flags: W
LayerCount: 4
Fore
SplineSet
465 1547 m 0,0,1
 482 1547 482 1547 497.5 1537.5 c 128,-1,2
 513 1528 513 1528 521 1512 c 0,3,4
 525 1503 525 1503 524 1495 c 2,5,-1
 203 -33 l 2,6,7
 200 -45 200 -45 193 -55 c 128,-1,8
 186 -65 186 -65 175 -75 c 0,9,10
 167 -82 167 -82 157 -86.5 c 128,-1,11
 147 -91 147 -91 136 -93 c 128,-1,12
 125 -95 125 -95 113 -95 c 0,13,14
 95 -95 95 -95 81 -90 c 0,15,16
 66 -85 66 -85 58 -78 c 0,17,18
 55 -75 55 -75 52 -71 c 2,19,-1
 49 -67 l 2,20,21
 42 -57 42 -57 45 -47 c 2,22,-1
 369 1498 l 2,23,24
 370 1504 370 1504 371.5 1507.5 c 128,-1,25
 373 1511 373 1511 375 1513.5 c 128,-1,26
 377 1516 377 1516 378 1517.5 c 128,-1,27
 379 1519 379 1519 382 1520.5 c 128,-1,28
 385 1522 385 1522 386 1523 c 0,29,30
 397 1531 397 1531 418 1539 c 0,31,32
 429 1543 429 1543 440.5 1545 c 128,-1,33
 452 1547 452 1547 465 1547 c 0,0,1
EndSplineSet
Substitution2: "'smcp' Lowercase to Small Capitals lookup 12 subtable" slash.sc
EndChar

StartChar: zero
Encoding: 48 48 18
Width: 1090
GlyphClass: 2
Flags: W
LayerCount: 4
Fore
SplineSet
347 1183 m 0,0,1
 277 1183 277 1183 234 1115 c 0,2,3
 211 1079 211 1079 197 1030.5 c 128,-1,4
 183 982 183 982 179 920 c 0,5,6
 169 795 169 795 196 640 c 0,7,8
 223 487 223 487 276 359 c 0,9,10
 302 296 302 296 332.5 246.5 c 128,-1,11
 363 197 363 197 397 161 c 0,12,13
 460 93 460 93 520 93 c 0,14,15
 594 93 594 93 635 164 c 0,16,17
 644 179 644 179 651.5 196 c 128,-1,18
 659 213 659 213 665 232.5 c 128,-1,19
 671 252 671 252 675 273 c 128,-1,20
 679 294 679 294 682 317 c 128,-1,21
 685 340 685 340 686 365 c 0,22,23
 689 428 689 428 683.5 499.5 c 128,-1,24
 678 571 678 571 664 650 c 0,25,26
 650 727 650 727 630.5 796 c 128,-1,27
 611 865 611 865 585 927 c 0,28,29
 534 1049 534 1049 468 1119 c 0,30,31
 436 1152 436 1152 406.5 1167.5 c 128,-1,32
 377 1183 377 1183 347 1183 c 0,0,1
314 1307 m 0,33,34
 458 1307 458 1307 583 1212 c 0,35,36
 705 1119 705 1119 784 968 c 0,37,38
 861 820 861 820 893 638 c 0,39,40
 925 458 925 458 899 309 c 0,41,42
 886 234 886 234 857 172.5 c 128,-1,43
 828 111 828 111 784 64 c 0,44,45
 739 17 739 17 680 -7 c 128,-1,46
 621 -31 621 -31 549 -31 c 0,47,48
 408 -31 408 -31 284 64 c 0,49,50
 162 157 162 157 82 309 c 0,51,52
 3 458 3 458 -29 638 c 128,-1,53
 -61 818 -61 818 -36 967 c 0,54,55
 -10 1118 -10 1118 79 1212 c 0,56,57
 171 1307 171 1307 314 1307 c 0,33,34
EndSplineSet
Substitution2: "'ordn' Ordinals lookup 17 subtable" zero.ordn
Substitution2: "'onum' Oldstyle Figures lookup 16 subtable" zero.onum
Substitution2: "'zero' Slashed Zero lookup 15 subtable" zero.slash
Substitution2: "'pnum' Proportional Numbers lookup 14 subtable" zero.prop
EndChar

StartChar: one
Encoding: 49 49 19
Width: 1090
GlyphClass: 2
Flags: W
LayerCount: 4
Fore
SplineSet
79 1142 m 0,0,1
 148 1176 148 1176 228 1218 c 0,2,3
 309 1260 309 1260 355 1283 c 0,4,5
 362 1287 362 1287 369 1291 c 128,-1,6
 376 1295 376 1295 380 1297.5 c 128,-1,7
 384 1300 384 1300 388.5 1302.5 c 128,-1,8
 393 1305 393 1305 396.5 1306 c 128,-1,9
 400 1307 400 1307 404 1308 c 128,-1,10
 408 1309 408 1309 413 1309 c 2,11,-1
 417 1309 l 2,12,13
 432 1309 432 1309 444 1299 c 128,-1,14
 456 1289 456 1289 461 1279.5 c 128,-1,15
 466 1270 466 1270 471 1257 c 0,16,17
 473 1252 473 1252 473 1247 c 0,18,19
 472 1230 472 1230 472.5 1209.5 c 128,-1,20
 473 1189 473 1189 475.5 1165.5 c 128,-1,21
 478 1142 478 1142 481.5 1115 c 128,-1,22
 485 1088 485 1088 490 1058 c 2,23,-1
 636 232 l 2,24,25
 654 128 654 128 668 95 c 1,26,27
 679 90 679 90 703 86 c 0,28,29
 750 77 750 77 776 77 c 0,30,31
 788 77 788 77 798 67 c 0,32,33
 811 53 811 53 817 24 c 0,34,35
 820 9 820 9 819.5 -2 c 128,-1,36
 819 -13 819 -13 813 -22 c 0,37,38
 810 -26 810 -26 805 -28.5 c 128,-1,39
 800 -31 800 -31 794 -31 c 0,40,41
 696 -26 696 -26 637.5 -23.5 c 128,-1,42
 579 -21 579 -21 572 -21 c 0,43,44
 561 -21 561 -21 361 -31 c 0,45,46
 349 -32 349 -32 339 -22 c 0,47,48
 323 -7 323 -7 318 24 c 0,49,50
 317 31 317 31 316.5 35.5 c 128,-1,51
 316 40 316 40 316.5 46 c 128,-1,52
 317 52 317 52 318 57 c 128,-1,53
 319 62 319 62 322 67 c 0,54,55
 328 77 328 77 340 77 c 0,56,57
 367 77 367 77 411 86 c 0,58,59
 419 88 419 88 425.5 89.5 c 128,-1,60
 432 91 432 91 436 92.5 c 128,-1,61
 440 94 440 94 442 95 c 0,62,63
 444 112 444 112 440.5 147 c 128,-1,64
 437 182 437 182 428 232 c 2,65,-1
 286 1040 l 2,66,67
 284 1052 284 1052 280.5 1062.5 c 128,-1,68
 277 1073 277 1073 275 1078.5 c 128,-1,69
 273 1084 273 1084 271 1086 c 0,70,71
 269 1089 269 1089 267 1090 c 128,-1,72
 265 1091 265 1091 260 1091 c 0,73,74
 248 1091 248 1091 214.5 1081 c 128,-1,75
 181 1071 181 1071 135 1053 c 0,76,77
 123 1048 123 1048 110 1056 c 0,78,79
 103 1061 103 1061 97.5 1066 c 128,-1,80
 92 1071 92 1071 87 1077.5 c 128,-1,81
 82 1084 82 1084 78 1091 c 0,82,83
 73 1100 73 1100 71 1110 c 0,84,85
 71 1113 71 1113 71 1117.5 c 128,-1,86
 71 1122 71 1122 72 1127 c 128,-1,87
 73 1132 73 1132 74.5 1136.5 c 128,-1,88
 76 1141 76 1141 79 1142 c 0,0,1
EndSplineSet
Substitution2: "'ordn' Ordinals lookup 17 subtable" one.ordn
Substitution2: "'onum' Oldstyle Figures lookup 16 subtable" one.onum
Substitution2: "'pnum' Proportional Numbers lookup 14 subtable" one.prop
EndChar

StartChar: two
Encoding: 50 50 20
Width: 1090
GlyphClass: 2
Flags: W
LayerCount: 4
Fore
SplineSet
928 290 m 0,0,1
 903 184 903 184 873 -8 c 0,2,3
 873 -11 873 -11 871.5 -13.5 c 128,-1,4
 870 -16 870 -16 868 -18.5 c 128,-1,5
 866 -21 866 -21 863.5 -22 c 128,-1,6
 861 -23 861 -23 858 -24 c 128,-1,7
 855 -25 855 -25 852 -25 c 2,8,-1
 160 -25 l 2,9,10
 154 -25 154 -25 149 -22 c 0,11,12
 142 -19 142 -19 136 -14 c 128,-1,13
 130 -9 130 -9 123 -2 c 0,14,15
 108 14 108 14 106 28 c 0,16,17
 105 33 105 33 106 37 c 128,-1,18
 107 41 107 41 110 45 c 0,19,20
 364 395 364 395 481 626 c 0,21,22
 501 666 501 666 513 702.5 c 128,-1,23
 525 739 525 739 529 770 c 0,24,25
 536 834 536 834 522 912 c 0,26,27
 519 931 519 931 513.5 949 c 128,-1,28
 508 967 508 967 500.5 983 c 128,-1,29
 493 999 493 999 484 1014 c 128,-1,30
 475 1029 475 1029 463.5 1042.5 c 128,-1,31
 452 1056 452 1056 439 1068 c 0,32,33
 417 1089 417 1089 393.5 1102.5 c 128,-1,34
 370 1116 370 1116 344 1122.5 c 128,-1,35
 318 1129 318 1129 289 1129 c 0,36,37
 238 1129 238 1129 194 1110 c 0,38,39
 150 1091 150 1091 122 1063 c 0,40,41
 112 1053 112 1053 103.5 1043.5 c 128,-1,42
 95 1034 95 1034 88.5 1026 c 128,-1,43
 82 1018 82 1018 76 1010 c 0,44,45
 60 987 60 987 53 969 c 0,46,47
 48 957 48 957 33 957 c 0,48,49
 29 957 29 957 25 957.5 c 128,-1,50
 21 958 21 958 17 959.5 c 128,-1,51
 13 961 13 961 9.5 962.5 c 128,-1,52
 6 964 6 964 2 966.5 c 128,-1,53
 -2 969 -2 969 -5 971 c 128,-1,54
 -8 973 -8 973 -12 976 c 0,55,56
 -21 983 -21 983 -24 986 c 128,-1,57
 -27 989 -27 989 -32.5 997 c 128,-1,58
 -38 1005 -38 1005 -40 1014 c 0,59,60
 -41 1017 -41 1017 -40 1020 c 0,61,62
 -38 1047 -38 1047 -14 1092 c 0,63,64
 9 1134 9 1134 47 1184 c 0,65,66
 67 1210 67 1210 93.5 1232 c 128,-1,67
 120 1254 120 1254 154 1272 c 0,68,69
 223 1309 223 1309 301 1309 c 0,70,71
 331 1309 331 1309 360.5 1304.5 c 128,-1,72
 390 1300 390 1300 418.5 1291.5 c 128,-1,73
 447 1283 447 1283 475 1269.5 c 128,-1,74
 503 1256 503 1256 529.5 1238.5 c 128,-1,75
 556 1221 556 1221 582 1200 c 0,76,77
 646 1146 646 1146 684.5 1083 c 128,-1,78
 723 1020 723 1020 735 950 c 0,79,80
 765 779 765 779 672 632 c 0,81,82
 559 456 559 456 354 171 c 1,83,-1
 694 171 l 2,84,85
 719 171 719 171 737 178.5 c 128,-1,86
 755 186 755 186 768 201 c 0,87,88
 797 234 797 234 814 310 c 0,89,90
 821 337 821 337 857 337 c 0,91,92
 889 337 889 337 915 320 c 0,93,94
 932 308 932 308 928 290 c 0,0,1
EndSplineSet
Substitution2: "'ordn' Ordinals lookup 17 subtable" two.ordn
Substitution2: "'onum' Oldstyle Figures lookup 16 subtable" two.onum
Substitution2: "'pnum' Proportional Numbers lookup 14 subtable" two.prop
EndChar

StartChar: three
Encoding: 51 51 21
Width: 1090
GlyphClass: 2
Flags: W
LayerCount: 4
Fore
SplineSet
333 1309 m 0,0,1
 378 1309 378 1309 430 1290 c 0,2,3
 443 1285 443 1285 455.5 1279.5 c 128,-1,4
 468 1274 468 1274 480.5 1267.5 c 128,-1,5
 493 1261 493 1261 505.5 1253.5 c 128,-1,6
 518 1246 518 1246 530 1238 c 0,7,8
 547 1227 547 1227 562.5 1212.5 c 128,-1,9
 578 1198 578 1198 592 1182 c 128,-1,10
 606 1166 606 1166 619 1148 c 0,11,12
 658 1092 658 1092 670 1028 c 0,13,14
 679 977 679 977 667 928 c 0,15,16
 655 880 655 880 629 842 c 0,17,18
 604 807 604 807 577 781 c 0,19,20
 571 775 571 775 564 769 c 1,21,22
 587 761 587 761 611 750 c 0,23,24
 665 724 665 724 718 684 c 0,25,26
 745 663 745 663 769 636 c 128,-1,27
 793 609 793 609 814 576 c 0,28,29
 835 544 835 544 848.5 509 c 128,-1,30
 862 474 862 474 868 436 c 0,31,32
 873 410 873 410 874.5 384.5 c 128,-1,33
 876 359 876 359 874.5 334.5 c 128,-1,34
 873 310 873 310 868.5 286.5 c 128,-1,35
 864 263 864 263 856 240 c 0,36,37
 825 150 825 150 760 90 c 0,38,39
 695 31 695 31 605.5 -2 c 128,-1,40
 516 -35 516 -35 418 -35 c 0,41,42
 300 -35 300 -35 194 14 c 0,43,44
 192 15 192 15 191 15 c 0,45,46
 172 26 172 26 151 55 c 0,47,48
 128 84 128 84 123 112 c 0,49,50
 119 137 119 137 123 159 c 128,-1,51
 127 181 127 181 139.5 198 c 128,-1,52
 152 215 152 215 170.5 224 c 128,-1,53
 189 233 189 233 211 233 c 0,54,55
 244 233 244 233 272 216 c 0,56,57
 276 213 276 213 280.5 210 c 128,-1,58
 285 207 285 207 289.5 203.5 c 128,-1,59
 294 200 294 200 298.5 196 c 128,-1,60
 303 192 303 192 307.5 188 c 128,-1,61
 312 184 312 184 316.5 179.5 c 128,-1,62
 321 175 321 175 326 170 c 0,63,64
 351 144 351 144 357 138 c 0,65,66
 407 95 407 95 495 95 c 0,67,68
 532 95 532 95 565 110 c 128,-1,69
 598 125 598 125 624 156 c 0,70,71
 630 163 630 163 635.5 172.5 c 128,-1,72
 641 182 641 182 645.5 192.5 c 128,-1,73
 650 203 650 203 653.5 216 c 128,-1,74
 657 229 657 229 660 244 c 0,75,76
 663 263 663 263 663.5 284.5 c 128,-1,77
 664 306 664 306 662.5 330 c 128,-1,78
 661 354 661 354 656 380 c 0,79,80
 637 489 637 489 553 563 c 0,81,82
 470 637 470 637 380 637 c 0,83,84
 378 637 378 637 375.5 637 c 128,-1,85
 373 637 373 637 370.5 637 c 128,-1,86
 368 637 368 637 365.5 636.5 c 128,-1,87
 363 636 363 636 360 635.5 c 128,-1,88
 357 635 357 635 354.5 635 c 128,-1,89
 352 635 352 635 349.5 634.5 c 128,-1,90
 347 634 347 634 344 633 c 0,91,92
 323 629 323 629 299 621 c 0,93,94
 294 619 294 619 290 618 c 128,-1,95
 286 617 286 617 283 616 c 128,-1,96
 280 615 280 615 277.5 614 c 128,-1,97
 275 613 275 613 273.5 612.5 c 0,98,99
 272 612 l 0,100,101
 256 606 256 606 243 620 c 0,102,103
 222 642 222 642 216 676 c 0,104,105
 214 686 214 686 214 694 c 128,-1,106
 214 702 214 702 218 710 c 0,107,108
 219 713 219 713 221.5 715 c 128,-1,109
 224 717 224 717 226.5 718.5 c 128,-1,110
 229 720 229 720 232 720 c 0,111,112
 291 733 291 733 338 756 c 0,113,114
 384 778 384 778 421 812 c 0,115,116
 439 828 439 828 451.5 847.5 c 128,-1,117
 464 867 464 867 471 890 c 128,-1,118
 478 913 478 913 479.5 938.5 c 128,-1,119
 481 964 481 964 476 992 c 0,120,121
 472 1016 472 1016 463 1036 c 128,-1,122
 454 1056 454 1056 440.5 1074 c 128,-1,123
 427 1092 427 1092 408 1107 c 128,-1,124
 389 1122 389 1122 368.5 1132.5 c 128,-1,125
 348 1143 348 1143 325 1148 c 128,-1,126
 302 1153 302 1153 277 1153 c 0,127,128
 239 1153 239 1153 205 1136 c 0,129,130
 169 1118 169 1118 151 1099 c 0,131,132
 132 1079 132 1079 113 1055 c 0,133,134
 109 1049 109 1049 104 1041 c 0,135,136
 96 1028 96 1028 87 1024 c 0,137,138
 85 1023 85 1023 82 1022 c 128,-1,139
 79 1021 79 1021 76 1021 c 0,140,141
 52 1021 52 1021 32 1050 c 0,142,143
 18 1070 18 1070 15 1090 c 0,144,145
 14 1098 14 1098 17 1104 c 0,146,147
 60 1189 60 1189 138 1248 c 0,148,149
 218 1309 218 1309 333 1309 c 0,0,1
EndSplineSet
Substitution2: "'ordn' Ordinals lookup 17 subtable" three.ordn
Substitution2: "'onum' Oldstyle Figures lookup 16 subtable" three.onum
Substitution2: "'pnum' Proportional Numbers lookup 14 subtable" three.prop
EndChar

StartChar: four
Encoding: 52 52 22
Width: 1090
GlyphClass: 2
Flags: W
LayerCount: 4
Fore
SplineSet
580 1313 m 0,0,1
 586 1313 586 1313 593 1311.5 c 128,-1,2
 600 1310 600 1310 606 1307 c 0,3,4
 617 1302 617 1302 626 1292 c 0,5,6
 642 1274 642 1274 646 1252 c 2,7,-1
 781 487 l 1,8,-1
 874 487 l 2,9,10
 878 487 878 487 882.5 486 c 128,-1,11
 887 485 887 485 890 484 c 128,-1,12
 893 483 893 483 896.5 480.5 c 128,-1,13
 900 478 900 478 902 476 c 128,-1,14
 904 474 904 474 907 471 c 128,-1,15
 910 468 910 468 911.5 466 c 128,-1,16
 913 464 913 464 915 460 c 128,-1,17
 917 456 917 456 918 454.5 c 128,-1,18
 919 453 919 453 921 449 c 128,-1,19
 923 445 923 445 924 445 c 0,20,21
 929 435 929 435 933.5 424 c 128,-1,22
 938 413 938 413 941 402 c 128,-1,23
 944 391 944 391 946 380 c 0,24,25
 947 374 947 374 947.5 368 c 128,-1,26
 948 362 948 362 947.5 356 c 128,-1,27
 947 350 947 350 945.5 344.5 c 128,-1,28
 944 339 944 339 942 334 c 0,29,30
 939 329 939 329 934 326 c 128,-1,31
 929 323 929 323 923 323 c 2,32,-1
 810 323 l 1,33,-1
 867 -2 l 2,34,35
 869 -11 869 -11 865 -18 c 0,36,37
 861 -24 861 -24 854.5 -27.5 c 128,-1,38
 848 -31 848 -31 842.5 -33.5 c 128,-1,39
 837 -36 837 -36 825.5 -36.5 c 128,-1,40
 814 -37 814 -37 807.5 -37 c 128,-1,41
 801 -37 801 -37 785.5 -37 c 128,-1,42
 770 -37 770 -37 763 -37 c 0,43,44
 760 -37 760 -37 750.5 -37 c 128,-1,45
 741 -37 741 -37 736.5 -37 c 128,-1,46
 732 -37 732 -37 722 -36.5 c 128,-1,47
 712 -36 712 -36 707 -35 c 128,-1,48
 702 -34 702 -34 694 -32.5 c 128,-1,49
 686 -31 686 -31 681 -27.5 c 128,-1,50
 676 -24 676 -24 671 -20 c 128,-1,51
 666 -16 666 -16 663 -10 c 128,-1,52
 660 -4 660 -4 658 4 c 2,53,-1
 602 323 l 1,54,-1
 63 323 l 2,55,56
 57 323 57 323 50 326 c 0,57,58
 14 344 14 344 7 386 c 0,59,60
 6 390 6 390 7 394 c 128,-1,61
 8 398 8 398 9 401 c 2,62,-1
 511 1253 l 2,63,64
 514 1257 514 1257 517 1262 c 128,-1,65
 520 1267 520 1267 523.5 1271.5 c 128,-1,66
 527 1276 527 1276 530.5 1280.5 c 128,-1,67
 534 1285 534 1285 538 1289 c 0,68,69
 548 1301 548 1301 557.5 1307 c 128,-1,70
 567 1313 567 1313 580 1313 c 0,0,1
487 974 m 1,71,-1
 201 487 l 1,72,-1
 573 487 l 1,73,-1
 487 974 l 1,71,-1
EndSplineSet
Substitution2: "'ordn' Ordinals lookup 17 subtable" four.ordn
Substitution2: "'onum' Oldstyle Figures lookup 16 subtable" four.onum
Substitution2: "'pnum' Proportional Numbers lookup 14 subtable" four.prop
EndChar

StartChar: five
Encoding: 53 53 23
Width: 1090
GlyphClass: 2
Flags: W
LayerCount: 4
Fore
SplineSet
400 815 m 0,0,1
 490 815 490 815 573.5 781.5 c 128,-1,2
 657 748 657 748 717 694 c 0,3,4
 777 640 777 640 816 573 c 0,5,6
 856 505 856 505 868 436 c 0,7,8
 873 410 873 410 874.5 384.5 c 128,-1,9
 876 359 876 359 874.5 334.5 c 128,-1,10
 873 310 873 310 868.5 286.5 c 128,-1,11
 864 263 864 263 856 240 c 0,12,13
 825 150 825 150 760 90 c 0,14,15
 695 31 695 31 605.5 -2 c 128,-1,16
 516 -35 516 -35 418 -35 c 0,17,18
 300 -35 300 -35 194 14 c 0,19,20
 192 15 192 15 191 15 c 0,21,22
 172 26 172 26 151 55 c 0,23,24
 128 84 128 84 123 112 c 0,25,26
 119 137 119 137 123 159 c 128,-1,27
 127 181 127 181 139.5 198 c 128,-1,28
 152 215 152 215 170.5 224 c 128,-1,29
 189 233 189 233 211 233 c 0,30,31
 244 233 244 233 272 216 c 0,32,33
 276 213 276 213 280.5 210 c 128,-1,34
 285 207 285 207 289.5 203.5 c 128,-1,35
 294 200 294 200 298.5 196 c 128,-1,36
 303 192 303 192 307.5 188 c 128,-1,37
 312 184 312 184 316.5 179.5 c 128,-1,38
 321 175 321 175 326 170 c 0,39,40
 351 144 351 144 357 138 c 0,41,42
 407 95 407 95 495 95 c 0,43,44
 532 95 532 95 565 109.5 c 128,-1,45
 598 124 598 124 625 155 c 0,46,47
 631 162 631 162 636.5 171.5 c 128,-1,48
 642 181 642 181 646.5 191.5 c 128,-1,49
 651 202 651 202 654.5 215 c 128,-1,50
 658 228 658 228 660 243 c 0,51,52
 665 272 665 272 664 306 c 128,-1,53
 663 340 663 340 656 380 c 0,54,55
 653 398 653 398 647.5 416 c 128,-1,56
 642 434 642 434 634 453 c 0,57,58
 618 489 618 489 588 525 c 0,59,60
 581 534 581 534 573 542.5 c 128,-1,61
 565 551 565 551 556.5 559.5 c 128,-1,62
 548 568 548 568 539 575.5 c 128,-1,63
 530 583 530 583 521 590 c 0,64,65
 484 618 484 618 430 635 c 0,66,67
 403 644 403 644 373.5 648.5 c 128,-1,68
 344 653 344 653 313 653 c 0,69,70
 297 653 297 653 276 650.5 c 128,-1,71
 255 648 255 648 229 644 c 0,72,73
 212 641 212 641 198 637.5 c 128,-1,74
 184 634 184 634 175 631 c 128,-1,75
 166 628 166 628 161 625 c 0,76,77
 156 623 156 623 150 623 c 0,78,79
 145 623 145 623 140 624.5 c 128,-1,80
 135 626 135 626 131 628 c 128,-1,81
 127 630 127 630 123.5 633.5 c 128,-1,82
 120 637 120 637 118 639.5 c 128,-1,83
 116 642 116 642 113 645 c 0,84,85
 108 652 108 652 104.5 660 c 128,-1,86
 101 668 101 668 100 676 c 2,87,-1
 99 681 l 1,88,89
 110 1233 110 1233 111 1275 c 0,90,91
 111 1281 111 1281 114 1285.5 c 128,-1,92
 117 1290 117 1290 121.5 1292.5 c 128,-1,93
 126 1295 126 1295 132 1295 c 2,94,-1
 428 1295 l 2,95,96
 445 1295 445 1295 464.5 1296 c 128,-1,97
 484 1297 484 1297 506 1299 c 0,98,99
 550 1303 550 1303 577 1309 c 2,100,-1
 605 1313 l 2,101,102
 609 1314 609 1314 614 1312.5 c 128,-1,103
 619 1311 619 1311 623 1309 c 0,104,105
 626 1307 626 1307 632 1304 c 0,106,107
 635 1302 635 1302 637 1301 c 128,-1,108
 639 1300 639 1300 640 1299 c 0,109,110
 644 1297 644 1297 647 1294.5 c 128,-1,111
 650 1292 650 1292 653 1289 c 0,112,113
 658 1284 658 1284 661.5 1278 c 128,-1,114
 665 1272 665 1272 666 1266 c 0,115,116
 667 1259 667 1259 667 1252 c 128,-1,117
 667 1245 667 1245 666 1235 c 128,-1,118
 665 1225 665 1225 663.5 1216 c 128,-1,119
 662 1207 662 1207 659 1192 c 0,120,121
 649 1138 649 1138 628 1108 c 0,122,123
 623 1100 623 1100 613 1099 c 0,124,125
 576 1095 576 1095 537.5 1092.5 c 128,-1,126
 499 1090 499 1090 460 1088.5 c 128,-1,127
 421 1087 421 1087 380 1087 c 2,128,-1
 233 1087 l 1,129,130
 233 1068 233 1068 232.5 1044.5 c 128,-1,131
 232 1021 232 1021 231 992 c 0,132,133
 230 917 230 917 228 857 c 0,134,135
 227 822 227 822 226 789 c 1,136,137
 236 792 236 792 246.5 794.5 c 128,-1,138
 257 797 257 797 268 799.5 c 128,-1,139
 279 802 279 802 291 804 c 0,140,141
 355 815 355 815 400 815 c 0,0,1
EndSplineSet
Substitution2: "'ordn' Ordinals lookup 17 subtable" five.ordn
Substitution2: "'onum' Oldstyle Figures lookup 16 subtable" five.onum
Substitution2: "'pnum' Proportional Numbers lookup 14 subtable" five.prop
EndChar

StartChar: six
Encoding: 54 54 24
Width: 1090
GlyphClass: 2
Flags: W
LayerCount: 4
Fore
SplineSet
244 601 m 1,0,1
 247 549 247 549 259 476 c 0,2,3
 271 409 271 409 297.5 339.5 c 128,-1,4
 324 270 324 270 362 208 c 0,5,6
 398 149 398 149 446 113 c 0,7,8
 492 79 492 79 540 79 c 0,9,10
 622 79 622 79 663 158 c 0,11,12
 706 241 706 241 684 368 c 0,13,14
 669 453 669 453 634 520 c 0,15,16
 623 542 623 542 609 560.5 c 128,-1,17
 595 579 595 579 578 595.5 c 128,-1,18
 561 612 561 612 541 626 c 0,19,20
 482 667 482 667 404 667 c 0,21,22
 297 667 297 667 244 601 c 1,0,1
434 815 m 0,23,24
 519 815 519 815 594 787 c 0,25,26
 669 759 669 759 720 714 c 0,27,28
 770 671 770 671 809 615 c 0,29,30
 847 559 847 559 868 507 c 0,31,32
 878 481 878 481 885.5 455.5 c 128,-1,33
 893 430 893 430 897 406 c 0,34,35
 928 226 928 226 827 95 c 0,36,37
 724 -37 724 -37 545 -37 c 0,38,39
 499 -37 499 -37 453 -26 c 128,-1,40
 407 -15 407 -15 363 6 c 0,41,42
 334 20 334 20 307 37 c 128,-1,43
 280 54 280 54 256 74.5 c 128,-1,44
 232 95 232 95 210 118 c 0,45,46
 147 186 147 186 103 270 c 0,47,48
 59 354 59 354 43 440 c 0,49,50
 34 493 34 493 30.5 543.5 c 128,-1,51
 27 594 27 594 30 643 c 128,-1,52
 33 692 33 692 41 739 c 0,53,54
 67 880 67 880 146 987 c 0,55,56
 230 1102 230 1102 368 1192 c 0,57,58
 506 1282 506 1282 635 1318 c 0,59,60
 636 1318 636 1318 638 1318.5 c 128,-1,61
 640 1319 640 1319 641 1319 c 0,62,63
 672 1319 672 1319 691 1279 c 0,64,65
 702 1254 702 1254 705 1236 c 0,66,67
 708 1218 708 1218 692 1212 c 0,68,69
 312 1082 312 1082 253 761 c 1,70,71
 262 767 262 767 271 772 c 128,-1,72
 280 777 280 777 290 781 c 128,-1,73
 300 785 300 785 310 789 c 0,74,75
 376 815 376 815 434 815 c 0,23,24
EndSplineSet
Substitution2: "'ordn' Ordinals lookup 17 subtable" six.ordn
Substitution2: "'onum' Oldstyle Figures lookup 16 subtable" six.onum
Substitution2: "'pnum' Proportional Numbers lookup 14 subtable" six.prop
EndChar

StartChar: seven
Encoding: 55 55 25
Width: 1090
GlyphClass: 2
Flags: W
LayerCount: 4
Fore
SplineSet
588 1291 m 2,0,1
 594 1291 594 1291 601 1291 c 128,-1,2
 608 1291 608 1291 615.5 1291.5 c 128,-1,3
 623 1292 623 1292 631.5 1292 c 128,-1,4
 640 1292 640 1292 649.5 1292.5 c 128,-1,5
 659 1293 659 1293 669 1294 c 0,6,7
 676 1294 676 1294 683 1294.5 c 128,-1,8
 690 1295 690 1295 694.5 1295.5 c 128,-1,9
 699 1296 699 1296 704 1296 c 128,-1,10
 709 1296 709 1296 712 1296.5 c 128,-1,11
 715 1297 715 1297 717.5 1297 c 128,-1,12
 720 1297 720 1297 721.5 1297 c 0,13,-1
 723 1297 l 0,14,15
 742 1297 742 1297 753.5 1283 c 128,-1,16
 765 1269 765 1269 768 1254 c 0,17,18
 769 1249 769 1249 769 1243.5 c 128,-1,19
 769 1238 769 1238 768.5 1232.5 c 128,-1,20
 768 1227 768 1227 767 1221 c 0,21,22
 764 1204 764 1204 760 1188 c 0,23,24
 756 1174 756 1174 747 1148 c 0,25,26
 743 1136 743 1136 740 1126 c 128,-1,27
 737 1116 737 1116 735 1109 c 2,28,-1
 405 -15 l 2,29,30
 404 -19 404 -19 402 -22 c 0,31,32
 391 -35 391 -35 366 -35 c 0,33,34
 337 -35 337 -35 299 -22 c 0,35,36
 284 -17 284 -17 275 -13 c 128,-1,37
 266 -9 266 -9 255.5 1.5 c 128,-1,38
 245 12 245 12 242 26 c 0,39,40
 242 28 242 28 242 31 c 128,-1,41
 242 34 242 34 242.5 36 c 128,-1,42
 243 38 243 38 244 40 c 0,43,44
 311 178 311 178 404 450 c 0,45,46
 498 723 498 723 558 927 c 2,47,-1
 608 1095 l 1,48,-1
 139 1095 l 2,49,50
 92 1095 92 1095 73 1068 c 0,51,52
 66 1059 66 1059 60.5 1043.5 c 128,-1,53
 55 1028 55 1028 50.5 1006.5 c 128,-1,54
 46 985 46 985 43 960 c 0,55,56
 42 942 42 942 29 935.5 c 128,-1,57
 16 929 16 929 0 929 c 0,58,59
 -32 929 -32 929 -58 946 c 0,60,61
 -74 957 -74 957 -72 973 c 0,62,63
 -67 1011 -67 1011 -62 1046 c 128,-1,64
 -57 1081 -57 1081 -53.5 1112.5 c 128,-1,65
 -50 1144 -50 1144 -47.5 1172 c 128,-1,66
 -45 1200 -45 1200 -43.5 1225 c 128,-1,67
 -42 1250 -42 1250 -41 1271 c 0,68,69
 -41 1277 -41 1277 -38 1281.5 c 128,-1,70
 -35 1286 -35 1286 -30 1288.5 c 128,-1,71
 -25 1291 -25 1291 -20 1291 c 2,72,-1
 588 1291 l 2,0,1
EndSplineSet
Substitution2: "'ordn' Ordinals lookup 17 subtable" seven.ordn
Substitution2: "'onum' Oldstyle Figures lookup 16 subtable" seven.onum
Substitution2: "'pnum' Proportional Numbers lookup 14 subtable" seven.prop
EndChar

StartChar: eight
Encoding: 56 56 26
Width: 1090
GlyphClass: 2
Flags: W
LayerCount: 4
Fore
SplineSet
530 79 m 0,0,1
 618 79 618 79 660 131 c 0,2,3
 702 184 702 184 686 276 c 0,4,5
 684 290 684 290 679 303.5 c 128,-1,6
 674 317 674 317 666.5 331 c 128,-1,7
 659 345 659 345 649 360 c 0,8,9
 618 405 618 405 584 437 c 0,10,11
 549 469 549 469 501 501 c 0,12,13
 453 534 453 534 432 546 c 0,14,15
 411 558 411 558 392 568 c 1,16,17
 326 519 326 519 304 462 c 0,18,19
 280 403 280 403 296 314 c 0,20,21
 315 207 315 207 386 143 c 0,22,23
 456 79 456 79 530 79 c 0,0,1
334 1191 m 0,24,25
 304 1191 304 1191 281 1177.5 c 128,-1,26
 258 1164 258 1164 242 1136 c 0,27,28
 225 1107 225 1107 219.5 1072 c 128,-1,29
 214 1037 214 1037 221 996 c 0,30,31
 224 980 224 980 228.5 965.5 c 128,-1,32
 233 951 233 951 239 937 c 128,-1,33
 245 923 245 923 253 910 c 0,34,35
 276 871 276 871 313 842 c 0,36,37
 333 826 333 826 350 814 c 128,-1,38
 367 802 367 802 380 794 c 0,39,40
 408 777 408 777 450 755 c 0,41,42
 453 754 453 754 455.5 752.5 c 128,-1,43
 458 751 458 751 460 750 c 0,44,45
 488 771 488 771 506.5 795.5 c 128,-1,46
 525 820 525 820 535.5 847.5 c 128,-1,47
 546 875 546 875 548 906 c 128,-1,48
 550 937 550 937 544 972 c 0,49,50
 536 1015 536 1015 517 1053 c 128,-1,51
 498 1091 498 1091 466 1126 c 0,52,53
 436 1160 436 1160 403.5 1175.5 c 128,-1,54
 371 1191 371 1191 334 1191 c 0,24,25
325 1311 m 0,55,56
 473 1311 473 1311 589 1226 c 0,57,58
 708 1139 708 1139 734 992 c 0,59,60
 745 932 745 932 732 879 c 0,61,62
 725 853 725 853 713 829 c 128,-1,63
 701 805 701 805 684 784 c 0,64,65
 680 780 680 780 676.5 775.5 c 128,-1,66
 673 771 673 771 669.5 767 c 128,-1,67
 666 763 666 763 663 759 c 128,-1,68
 660 755 660 755 656.5 751.5 c 128,-1,69
 653 748 653 748 649.5 744.5 c 128,-1,70
 646 741 646 741 643 738 c 128,-1,71
 640 735 640 735 636.5 731.5 c 128,-1,72
 633 728 633 728 630 725 c 128,-1,73
 627 722 627 722 624 720 c 0,74,75
 605 703 605 703 578 683 c 1,76,77
 681 625 681 625 767 541 c 0,78,79
 869 442 869 442 888 334 c 0,80,81
 916 176 916 176 813 66 c 0,82,83
 711 -43 711 -43 548 -43 c 0,84,85
 374 -43 374 -43 246 54 c 0,86,87
 117 152 117 152 89 308 c 0,88,89
 87 318 87 318 86 327.5 c 128,-1,90
 85 337 85 337 85 346.5 c 128,-1,91
 85 356 85 356 85 365 c 0,92,93
 86 378 86 378 87.5 390 c 128,-1,94
 89 402 89 402 91 413 c 0,95,96
 95 437 95 437 108 462 c 0,97,98
 120 484 120 484 128 499 c 0,99,100
 133 508 133 508 140.5 518 c 128,-1,101
 148 528 148 528 158 539 c 0,102,103
 177 559 177 559 186 568 c 0,104,105
 196 579 196 579 218 597 c 0,106,107
 240 614 240 614 246 619 c 0,108,109
 250 622 250 622 257 627.5 c 128,-1,110
 264 633 264 633 275 641 c 2,111,-1
 277 642 l 1,112,113
 201 689 201 689 133 762 c 0,114,115
 91 806 91 806 65 856 c 128,-1,116
 39 906 39 906 30 960 c 0,117,118
 24 995 24 995 25 1027.5 c 128,-1,119
 26 1060 26 1060 34 1090.5 c 128,-1,120
 42 1121 42 1121 57 1150 c 128,-1,121
 72 1179 72 1179 94 1205 c 0,122,123
 138 1258 138 1258 196 1284.5 c 128,-1,124
 254 1311 254 1311 325 1311 c 0,55,56
EndSplineSet
Substitution2: "'ordn' Ordinals lookup 17 subtable" eight.ordn
Substitution2: "'onum' Oldstyle Figures lookup 16 subtable" eight.onum
Substitution2: "'pnum' Proportional Numbers lookup 14 subtable" eight.prop
EndChar

StartChar: nine
Encoding: 57 57 27
Width: 1090
GlyphClass: 2
Flags: W
LayerCount: 4
Fore
SplineSet
620 681 m 1,0,1
 617 733 617 733 605 806 c 0,2,3
 599 840 599 840 589.5 874 c 128,-1,4
 580 908 580 908 566 943 c 0,5,6
 539 1013 539 1013 502 1074 c 0,7,8
 484 1104 484 1104 463 1127.5 c 128,-1,9
 442 1151 442 1151 418 1169 c 0,10,11
 394 1186 394 1186 371 1194.5 c 128,-1,12
 348 1203 348 1203 324 1203 c 0,13,14
 304 1203 304 1203 286.5 1198.5 c 128,-1,15
 269 1194 269 1194 253.5 1184 c 128,-1,16
 238 1174 238 1174 225.5 1159.5 c 128,-1,17
 213 1145 213 1145 202 1124 c 0,18,19
 159 1041 159 1041 182 914 c 0,20,21
 190 871 190 871 202 833 c 128,-1,22
 214 795 214 795 231 762 c 0,23,24
 248 730 248 730 271 703.5 c 128,-1,25
 294 677 294 677 324 656 c 0,26,27
 382 615 382 615 460 615 c 0,28,29
 567 615 567 615 620 681 c 1,0,1
172 70 m 0,30,31
 552 200 552 200 611 521 c 1,32,33
 584 505 584 505 554 493 c 0,34,35
 488 467 488 467 430 467 c 0,36,37
 388 467 388 467 348 474 c 128,-1,38
 308 481 308 481 270 495 c 0,39,40
 233 509 233 509 201.5 527.5 c 128,-1,41
 170 546 170 546 144 568 c 0,42,43
 94 611 94 611 56 668 c 0,44,45
 18 724 18 724 -3 775 c 0,46,47
 -23 826 -23 826 -31 876 c 0,48,49
 -47 966 -47 966 -29.5 1044 c 128,-1,50
 -12 1122 -12 1122 38 1187 c 0,51,52
 88 1252 88 1252 159 1285.5 c 128,-1,53
 230 1319 230 1319 319 1319 c 0,54,55
 412 1319 412 1319 501 1276 c 0,56,57
 589 1233 589 1233 654 1164 c 0,58,59
 717 1096 717 1096 761 1012 c 0,60,61
 805 928 805 928 821 842 c 0,62,63
 828 802 828 802 831.5 764 c 128,-1,64
 835 726 835 726 835 688.5 c 128,-1,65
 835 651 835 651 832 614.5 c 128,-1,66
 829 578 829 578 823 543 c 0,67,68
 810 473 810 473 784 410.5 c 128,-1,69
 758 348 758 348 718 295 c 0,70,71
 634 180 634 180 496 90 c 0,72,73
 427 45 427 45 360.5 13.5 c 128,-1,74
 294 -18 294 -18 229 -36 c 0,75,76
 228 -36 228 -36 226 -36.5 c 128,-1,77
 224 -37 224 -37 223 -37 c 0,78,79
 214 -37 214 -37 205.5 -33 c 128,-1,80
 197 -29 197 -29 191 -22.5 c 128,-1,81
 185 -16 185 -16 181 -10 c 128,-1,82
 177 -4 177 -4 173 3 c 0,83,84
 167 15 167 15 164 25.5 c 128,-1,85
 161 36 161 36 159 46 c 0,86,87
 156 64 156 64 172 70 c 0,30,31
EndSplineSet
Substitution2: "'onum' Oldstyle Figures lookup 16 subtable" nine.onum
Substitution2: "'pnum' Proportional Numbers lookup 14 subtable" nine.prop
EndChar

StartChar: colon
Encoding: 58 58 28
Width: 452
GlyphClass: 2
Flags: W
LayerCount: 4
Fore
SplineSet
-42 754 m 0
 -45 772 -45 772 -43.5 789 c 0
 -42 806 -42 806 -35 821 c 0
 -28 836 -28 836 -17 849 c 0
 0 868 0 868 22.5 877.5 c 0
 45 887 45 887 72 887 c 0
 127 887 127 887 172.5 848 c 0
 218 809 218 809 228 754 c 0
 233 727 233 727 227.5 702.5 c 0
 222 678 222 678 207 658 c 0
 192 638 192 638 169.5 627.5 c 0
 147 617 147 617 119 617 c 0
 101 617 101 617 83 621.5 c 0
 65 626 65 626 48 635.5 c 0
 31 645 31 645 16 658 c 0
 -32 699 -32 699 -42 754 c 0
EndSplineSet
Refer: 16 46 S 1 0 0 1 20 0 2
Substitution2: "'smcp' Lowercase to Small Capitals lookup 12 subtable" colon.sc
EndChar

StartChar: semicolon
Encoding: 59 59 29
Width: 464
GlyphClass: 2
Flags: W
LayerCount: 4
Fore
SplineSet
206 271 m 0,0,1
 223 271 223 271 240.5 266.5 c 128,-1,2
 258 262 258 262 274 254 c 0,3,4
 280 251 280 251 284 245 c 0,5,6
 335 177 335 177 351 92 c 0,7,8
 357 60 357 60 353.5 25 c 128,-1,9
 350 -10 350 -10 338 -47.5 c 128,-1,10
 326 -85 326 -85 306 -127 c 0,11,12
 246 -254 246 -254 171 -300 c 0,13,14
 166 -303 166 -303 159 -303 c 0,15,16
 135 -303 135 -303 113 -275 c 0,17,18
 95 -253 95 -253 93 -236 c 0,19,20
 92 -233 92 -233 92.5 -230 c 128,-1,21
 93 -227 93 -227 94 -224.5 c 128,-1,22
 95 -222 95 -222 96 -219.5 c 128,-1,23
 97 -217 97 -217 99 -216 c 0,24,25
 118 -200 118 -200 130 -187 c 0,26,27
 142 -175 142 -175 160 -147 c 0,28,29
 177 -122 177 -122 181 -89 c 0,30,31
 186 -55 186 -55 179 -14 c 0,32,33
 175 10 175 10 140 48 c 0,34,35
 93 100 93 100 85 148 c 0,36,37
 77 194 77 194 111 233 c 0,38,39
 145 271 145 271 206 271 c 0,0,1
-36 754 m 0,40,41
 -39 772 -39 772 -37.5 789 c 128,-1,42
 -36 806 -36 806 -29 821 c 128,-1,43
 -22 836 -22 836 -11 849 c 0,44,45
 6 868 6 868 28.5 877.5 c 128,-1,46
 51 887 51 887 78 887 c 0,47,48
 133 887 133 887 178.5 848 c 128,-1,49
 224 809 224 809 234 754 c 0,50,51
 239 727 239 727 233.5 702.5 c 128,-1,52
 228 678 228 678 213 658 c 0,53,54
 198 638 198 638 175.5 627.5 c 128,-1,55
 153 617 153 617 125 617 c 0,56,57
 107 617 107 617 89 621.5 c 128,-1,58
 71 626 71 626 54 635.5 c 128,-1,59
 37 645 37 645 22 658 c 0,60,61
 -26 699 -26 699 -36 754 c 0,40,41
EndSplineSet
Substitution2: "'smcp' Lowercase to Small Capitals lookup 12 subtable" semicolon.sc
EndChar

StartChar: less
Encoding: 60 60 30
Width: 984
GlyphClass: 2
Flags: W
LayerCount: 4
Fore
SplineSet
901 70 m 0,0,1
 902 63 902 63 902 53 c 128,-1,2
 902 43 902 43 901.5 33 c 128,-1,3
 901 23 901 23 899 6 c 0,4,5
 899 4 899 4 898.5 -7 c 128,-1,6
 898 -18 898 -18 897 -24 c 128,-1,7
 896 -30 896 -30 893 -38.5 c 128,-1,8
 890 -47 890 -47 883 -51 c 128,-1,9
 876 -55 876 -55 866 -55 c 0,10,11
 861 -55 861 -55 857.5 -54.5 c 128,-1,12
 854 -54 854 -54 852.5 -53 c 128,-1,13
 851 -52 851 -52 848 -50.5 c 128,-1,14
 845 -49 845 -49 843 -48 c 2,15,-1
 26 332 l 2,16,17
 -28 358 -28 358 -42 434 c 0,18,19
 -46 457 -46 457 -35.5 475 c 128,-1,20
 -25 493 -25 493 -4 504 c 2,21,-1
 668 878 l 2,22,23
 680 885 680 885 688 885 c 0,24,25
 695 885 695 885 701.5 883 c 128,-1,26
 708 881 708 881 713.5 876.5 c 128,-1,27
 719 872 719 872 723.5 867 c 128,-1,28
 728 862 728 862 732.5 854 c 128,-1,29
 737 846 737 846 740.5 839.5 c 128,-1,30
 744 833 744 833 748 823 c 128,-1,31
 752 813 752 813 754.5 806 c 128,-1,32
 757 799 757 799 760.5 788 c 128,-1,33
 764 777 764 777 767 771 c 0,34,35
 768 768 768 768 768.5 765.5 c 128,-1,36
 769 763 769 763 769.5 760 c 128,-1,37
 770 757 770 757 770 754 c 128,-1,38
 770 751 770 751 769 749 c 0,39,40
 767 739 767 739 763 732 c 2,41,-1
 761 730 l 2,42,43
 759 727 759 727 755 726 c 2,44,-1
 202 418 l 1,45,-1
 875 104 l 2,46,47
 884 100 884 100 891.5 89.5 c 128,-1,48
 899 79 899 79 901 70 c 0,0,1
EndSplineSet
Substitution2: "'smcp' Lowercase to Small Capitals lookup 12 subtable" less.sc
EndChar

StartChar: equal
Encoding: 61 61 31
Width: 1130
GlyphClass: 2
Flags: W
LayerCount: 4
Fore
SplineSet
919 215 m 2,0,-1
 107 215 l 2,1,2
 102 215 102 215 97 217 c 0,3,4
 68 228 68 228 64 268 c 0,5,6
 61 295 61 295 71 328 c 0,7,8
 82 365 82 365 102 373 c 0,9,10
 106 375 106 375 111 375 c 2,11,-1
 917 375 l 2,12,13
 921 375 921 375 925 374 c 0,14,15
 956 364 956 364 962 324 c 0,16,17
 964 310 964 310 963 295.5 c 128,-1,18
 962 281 962 281 958 265 c 0,19,20
 949 229 949 229 930 218 c 0,21,22
 928 217 928 217 925 216 c 128,-1,23
 922 215 922 215 919 215 c 2,0,-1
868 503 m 2,24,-1
 56 503 l 2,25,26
 51 503 51 503 47 505 c 0,27,28
 18 516 18 516 13 556 c 0,29,30
 10 583 10 583 20 616 c 0,31,32
 31 653 31 653 51 661 c 0,33,34
 55 663 55 663 60 663 c 2,35,-1
 866 663 l 2,36,37
 867 663 867 663 868.5 663 c 128,-1,38
 870 663 870 663 871.5 662.5 c 128,-1,39
 873 662 873 662 874 662 c 0,40,41
 905 652 905 652 912 612 c 0,42,43
 916 586 916 586 907 553 c 0,44,45
 904 542 904 542 901 534 c 128,-1,46
 898 526 898 526 892.5 518.5 c 128,-1,47
 887 511 887 511 880 506 c 0,48,49
 878 505 878 505 874.5 504 c 128,-1,50
 871 503 871 503 868 503 c 2,24,-1
EndSplineSet
Substitution2: "'smcp' Lowercase to Small Capitals lookup 12 subtable" equal.sc
EndChar

StartChar: greater
Encoding: 62 62 32
Width: 986
GlyphClass: 2
Flags: W
LayerCount: 4
Fore
SplineSet
59 70 m 0,0,1
 57 80 57 80 60 88 c 0,2,3
 62 95 62 95 65 99 c 0,4,5
 67 102 67 102 71 103 c 2,6,-1
 72 104 l 1,7,-1
 635 418 l 1,8,-1
 -24 725 l 2,9,10
 -47 735 -47 735 -52 764 c 128,-1,11
 -57 793 -57 793 -50 833 c 0,12,13
 -50 836 -50 836 -49 842.5 c 128,-1,14
 -48 849 -48 849 -47.5 854 c 128,-1,15
 -47 859 -47 859 -44.5 865 c 128,-1,16
 -42 871 -42 871 -39 875 c 128,-1,17
 -36 879 -36 879 -30 882 c 128,-1,18
 -24 885 -24 885 -16 885 c 128,-1,19
 -8 885 -8 885 6 878 c 2,20,-1
 812 504 l 2,21,22
 864 480 864 480 872 434 c 0,23,24
 886 357 886 357 843 332 c 2,25,-1
 160 -48 l 2,26,27
 148 -55 148 -55 140 -55 c 0,28,29
 131 -55 131 -55 123.5 -51.5 c 128,-1,30
 116 -48 116 -48 111.5 -44 c 128,-1,31
 107 -40 107 -40 102 -32.5 c 128,-1,32
 97 -25 97 -25 95 -19.5 c 128,-1,33
 93 -14 93 -14 89.5 -6 c 128,-1,34
 86 2 86 2 84 5 c 0,35,36
 62 51 62 51 59 70 c 0,0,1
EndSplineSet
Substitution2: "'smcp' Lowercase to Small Capitals lookup 12 subtable" greater.sc
EndChar

StartChar: question
Encoding: 63 63 33
Width: 712
GlyphClass: 2
Flags: W
LayerCount: 4
Fore
SplineSet
11 1071 m 0
 -26 1071 -26 1071 -69 1106 c 0
 -91 1123 -91 1123 -105 1146 c 0
 -119 1169 -119 1169 -124 1196 c 0
 -134 1253 -134 1253 -117 1285 c 0
 -116 1287 -116 1287 -113.5 1289 c 0
 -111 1291 -111 1291 -109 1292 c 0
 -92 1301 -92 1301 -67 1305 c 0
 -42 1309 -42 1309 -5 1309 c 0
 18 1309 18 1309 43.5 1305 c 0
 69 1301 69 1301 97 1292 c 0
 154 1276 154 1276 216 1242 c 0
 277 1209 277 1209 332 1164 c 0
 388 1118 388 1118 429 1052 c 0
 471 986 471 986 484 914 c 0
 503 804 503 804 467 728 c 0
 431 654 431 654 327 586 c 0
 291 562 291 562 247 522 c 0
 234 510 234 510 223 498 c 0
 212 486 212 486 206.5 480 c 0
 201 474 201 474 201 472 c 0
 198 465 198 465 198 450 c 0
 198 432 198 432 201 420 c 0
 202 416 202 416 202.5 410 c 0
 203 404 203 404 204.5 396.5 c 0
 206 389 206 389 208 379 c 0
 209 372 209 372 210 366.5 c 0
 211 361 211 361 212 356.5 c 0
 213 352 213 352 213.5 349 c 0
 214 346 214 346 214 344 c 0
 215 341 215 341 214.5 338 c 0
 214 335 214 335 214 333 c 0
 209 317 209 317 197.5 306 c 0
 186 295 186 295 169 293 c 0
 163 292 163 292 156 295 c 0
 126 307 126 307 112 329 c 0
 110 332 110 332 109 334 c 0
 94 370 94 370 81.5 416.5 c 0
 69 463 69 463 59 522 c 0
 57 531 57 531 56 539.5 c 0
 55 548 55 548 54.5 556 c 0
 54 564 54 564 54 572 c 0
 54 580 54 580 54.5 588 c 0
 55 596 55 596 56 604 c 0
 58 622 58 622 62 637.5 c 0
 66 653 66 653 70 665 c 0
 73 672 73 672 76.5 678.5 c 0
 80 685 80 685 84 691.5 c 0
 88 698 88 698 93 704 c 0
 98 710 98 710 104 716 c 0
 126 740 126 740 140 752 c 0
 154 763 154 763 181 782 c 0
 185 785 185 785 188 787 c 0
 191 789 191 789 192 790 c 0
 193 791 l 0
 211 804 211 804 224 813 c 0
 237 822 237 822 244 828 c 0
 258 838 258 838 281 860 c 0
 303 880 303 880 310 894 c 0
 317 908 317 908 323 930 c 0
 328 951 328 951 323 974 c 0
 312 1039 312 1039 268.5 1076 c 0
 225 1113 225 1113 176 1113 c 0
 121 1113 121 1113 83 1094 c 0
 35 1071 35 1071 11 1071 c 0
EndSplineSet
Refer: 16 46 S 1 0 0 1 30 0 2
Substitution2: "'smcp' Lowercase to Small Capitals lookup 12 subtable" question.sc
EndChar

StartChar: at
Encoding: 64 64 34
Width: 1496
GlyphClass: 2
Flags: W
LayerCount: 4
Fore
SplineSet
628 1181 m 0,0,1
 746 1181 746 1181 853 1146 c 0,2,3
 889 1134 889 1134 922 1119 c 128,-1,4
 955 1104 955 1104 985.5 1086.5 c 128,-1,5
 1016 1069 1016 1069 1044 1048 c 0,6,7
 1126 986 1126 986 1191 904.5 c 128,-1,8
 1256 823 1256 823 1296 730 c 0,9,10
 1336 638 1336 638 1354 540 c 0,11,12
 1382 384 1382 384 1349 252 c 0,13,14
 1316 119 1316 119 1230 41 c 0,15,16
 1186 1 1186 1 1133 -19 c 128,-1,17
 1080 -39 1080 -39 1019 -39 c 0,18,19
 932 -39 932 -39 872 10 c 0,20,21
 816 56 816 56 796 143 c 1,22,23
 778 110 778 110 754 77 c 0,24,25
 722 30 722 30 679 -2 c 0,26,27
 656 -18 656 -18 632.5 -26.5 c 128,-1,28
 609 -35 609 -35 584 -35 c 0,29,30
 533 -35 533 -35 488.5 -12 c 128,-1,31
 444 11 444 11 408 56 c 0,32,33
 373 99 373 99 350.5 150 c 128,-1,34
 328 201 328 201 317 260 c 0,35,36
 297 373 297 373 331 489 c 0,37,38
 364 604 364 604 431 692 c 0,39,40
 453 722 453 722 479 748 c 128,-1,41
 505 774 505 774 534 796.5 c 128,-1,42
 563 819 563 819 596 838 c 0,43,44
 646 867 646 867 697.5 881 c 128,-1,45
 749 895 749 895 802 895 c 0,46,47
 881 895 881 895 962 867 c 0,48,49
 971 864 971 864 977 856 c 128,-1,50
 983 848 983 848 983 839 c 2,51,-1
 972 207 l 2,52,53
 972 206.5 l 0,54,-1
 972 206 l 0,55,56
 970 185 970 185 974 162 c 0,57,58
 980 128 980 128 1001 113 c 0,59,60
 1023 97 1023 97 1057 97 c 0,61,62
 1095 97 1095 97 1131 129 c 0,63,64
 1137 135 1137 135 1143.5 141.5 c 128,-1,65
 1150 148 1150 148 1155.5 155 c 128,-1,66
 1161 162 1161 162 1166.5 169.5 c 128,-1,67
 1172 177 1172 177 1177 185.5 c 128,-1,68
 1182 194 1182 194 1187 203 c 128,-1,69
 1192 212 1192 212 1196 222 c 0,70,71
 1222 280 1222 280 1231 363 c 128,-1,72
 1240 446 1240 446 1225 534 c 0,73,74
 1211 614 1211 614 1179 689 c 0,75,76
 1148 763 1148 763 1097 829 c 128,-1,77
 1046 895 1046 895 982 944 c 0,78,79
 919 993 919 993 833 1022 c 0,80,81
 804 1032 804 1032 774.5 1038.5 c 128,-1,82
 745 1045 745 1045 714 1048 c 128,-1,83
 683 1051 683 1051 651 1051 c 0,84,85
 613 1051 613 1051 577 1046.5 c 128,-1,86
 541 1042 541 1042 507.5 1033 c 128,-1,87
 474 1024 474 1024 442 1010 c 0,88,89
 395 989 395 989 356 961.5 c 128,-1,90
 317 934 317 934 286 899 c 0,91,92
 223 828 223 828 184 737 c 0,93,94
 174 714 174 714 166 690.5 c 128,-1,95
 158 667 158 667 152 642.5 c 128,-1,96
 146 618 146 618 141.5 593.5 c 128,-1,97
 137 569 137 569 135 543 c 0,98,99
 130 492 130 492 132 441.5 c 128,-1,100
 134 391 134 391 143 340 c 0,101,102
 171 180 171 180 266 54 c 0,103,104
 298 12 298 12 332 -22.5 c 128,-1,105
 366 -57 366 -57 403 -85 c 128,-1,106
 440 -113 440 -113 480 -134 c 0,107,108
 507 -148 507 -148 532.5 -158.5 c 128,-1,109
 558 -169 558 -169 582.5 -176.5 c 128,-1,110
 607 -184 607 -184 631 -187 c 0,111,112
 640 -188 640 -188 647.5 -195.5 c 128,-1,113
 655 -203 655 -203 656 -212 c 0,114,115
 658 -225 658 -225 652.5 -235 c 128,-1,116
 647 -245 647 -245 641 -248.5 c 128,-1,117
 635 -252 635 -252 624 -258 c 0,118,119
 595 -273 595 -273 570 -273 c 0,120,121
 562 -273 562 -273 554 -272.5 c 128,-1,122
 546 -272 546 -272 538 -271.5 c 128,-1,123
 530 -271 530 -271 522.5 -270 c 128,-1,124
 515 -269 515 -269 508 -267.5 c 128,-1,125
 501 -266 501 -266 494 -264 c 128,-1,126
 487 -262 487 -262 481 -259 c 0,127,128
 319 -203 319 -203 184 -37 c 0,129,130
 50 129 50 129 13 340 c 0,131,132
 -8 461 -8 461 3 581 c 128,-1,133
 14 701 14 701 60.5 809 c 128,-1,134
 107 917 107 917 182 1000 c 0,135,136
 258 1084 258 1084 373 1132 c 0,137,138
 431 1156 431 1156 494.5 1168.5 c 128,-1,139
 558 1181 558 1181 628 1181 c 0,0,1
743 753 m 0,140,141
 719 753 719 753 695 743.5 c 128,-1,142
 671 734 671 734 647 715 c 0,143,144
 596 675 596 675 560 612 c 0,145,146
 524 548 524 548 509 464 c 0,147,148
 501 422 501 422 501 382 c 128,-1,149
 501 342 501 342 508 302 c 0,150,151
 538 131 538 131 615 131 c 0,152,153
 651 131 651 131 692 193 c 0,154,155
 737 261 737 261 766 360 c 0,156,157
 794 460 794 460 796 553 c 2,158,-1
 800 742 l 1,159,160
 790 747 790 747 776 750 c 128,-1,161
 762 753 762 753 743 753 c 0,140,141
EndSplineSet
Substitution2: "'smcp' Lowercase to Small Capitals lookup 12 subtable" at.sc
EndChar

StartChar: A
Encoding: 65 65 35
Width: 1254
GlyphClass: 2
Flags: W
LayerCount: 4
Fore
SplineSet
116 287 m 0,0,1
 260 966 260 966 328 1277 c 0,2,3
 328 1278 328 1278 328 1280 c 0,4,5
 335 1300 335 1300 363 1324 c 0,6,7
 393 1351 393 1351 414 1351 c 0,8,9
 420 1351 420 1351 425.5 1349 c 128,-1,10
 431 1347 431 1347 436 1344 c 2,11,-1
 439 1342 l 2,12,13
 449 1337 449 1337 453 1329 c 2,14,-1
 1048 261 l 2,15,16
 1062 236 1062 236 1073.5 216 c 128,-1,17
 1085 196 1085 196 1093.5 180.5 c 128,-1,18
 1102 165 1102 165 1108 154.5 c 128,-1,19
 1114 144 1114 144 1118 137.5 c 128,-1,20
 1122 131 1122 131 1123 129 c 0,21,22
 1136 108 1136 108 1177 94 c 0,23,24
 1225 77 1225 77 1244 77 c 0,25,26
 1250 77 1250 77 1256.5 74 c 128,-1,27
 1263 71 1263 71 1267 66 c 0,28,29
 1280 50 1280 50 1285 22 c 0,30,31
 1289 -2 1289 -2 1288 -12 c 0,32,33
 1287 -21 1287 -21 1280.5 -26 c 128,-1,34
 1274 -31 1274 -31 1266 -31 c 0,35,36
 1168 -26 1168 -26 1111.5 -23.5 c 128,-1,37
 1055 -21 1055 -21 1046 -21 c 0,38,39
 1032 -21 1032 -21 1019 -21 c 128,-1,40
 1006 -21 1006 -21 994 -21.5 c 128,-1,41
 982 -22 982 -22 971 -22 c 0,42,43
 954 -23 954 -23 934 -24 c 128,-1,44
 914 -25 914 -25 892 -27 c 0,45,46
 848 -30 848 -30 816 -31 c 0,47,48
 804 -31 804 -31 795 -22 c 0,49,50
 779 -7 779 -7 774 24 c 0,51,52
 769 55 769 55 782 70 c 0,53,54
 788 77 788 77 798 77 c 0,55,56
 819 77 819 77 854 84 c 0,57,58
 867 87 867 87 876.5 90 c 128,-1,59
 886 93 886 93 889 96 c 0,60,61
 889 97 889 97 889 99.5 c 128,-1,62
 889 102 889 102 888 106 c 0,63,64
 884 129 884 129 835 222 c 0,65,66
 784 319 784 319 736 403 c 2,67,-1
 691 479 l 1,68,69
 672 480 672 480 624.5 480.5 c 128,-1,70
 577 481 577 481 501 481 c 0,71,72
 382 481 382 481 296 476 c 1,73,74
 267 335 267 335 251 242 c 0,75,76
 245 203 245 203 244 169 c 128,-1,77
 243 135 243 135 248 108 c 0,78,79
 249 105 249 105 256 100 c 0,80,81
 272 91 272 91 295 86 c 0,82,83
 299 85 299 85 303.5 84.5 c 128,-1,84
 308 84 308 84 312 83 c 128,-1,85
 316 82 316 82 320 81.5 c 128,-1,86
 324 81 324 81 327 80.5 c 128,-1,87
 330 80 330 80 333.5 79.5 c 128,-1,88
 337 79 337 79 340 79 c 0,89,90
 358 77 358 77 366 77 c 0,91,92
 371 77 371 77 376.5 75 c 128,-1,93
 382 73 382 73 385 70 c 0,94,95
 390 66 390 66 393.5 62 c 128,-1,96
 397 58 397 58 399 53 c 128,-1,97
 401 48 401 48 402 45 c 128,-1,98
 403 42 403 42 404 35.5 c 128,-1,99
 405 29 405 29 406 27 c 0,100,101
 413 0 413 0 410 -14 c 0,102,103
 407 -32 407 -32 389 -31 c 0,104,105
 359 -30 359 -30 324 -27 c 0,106,107
 290 -24 290 -24 261 -22.5 c 128,-1,108
 232 -21 232 -21 194 -21 c 0,109,110
 154 -21 154 -21 123 -22 c 0,111,112
 92 -23 92 -23 55 -27 c 0,113,114
 17 -30 17 -30 -18 -31 c 0,115,116
 -29 -31 -29 -31 -38 -24 c 0,117,118
 -43 -20 -43 -20 -46 -15.5 c 128,-1,119
 -49 -11 -49 -11 -51 -5.5 c 128,-1,120
 -53 -0 -53 -0 -53.5 2.5 c 128,-1,121
 -54 5 -54 5 -55 11.5 c 128,-1,122
 -56 18 -56 18 -57 20 c 0,123,124
 -62 47 -62 47 -58 61 c 0,125,126
 -54 77 -54 77 -38 77 c 0,127,128
 -16 77 -16 77 21 87 c 0,129,130
 52 95 52 95 58 105 c 0,131,132
 88 157 88 157 116 287 c 0,0,1
403 1012 m 1,133,-1
 323 612 l 1,134,135
 410 609 410 609 477 609 c 0,136,137
 509 609 509 609 544.5 610 c 128,-1,138
 580 611 580 611 618 613 c 1,139,-1
 403 1012 l 1,133,-1
EndSplineSet
EndChar

StartChar: B
Encoding: 66 66 36
Width: 1192
GlyphClass: 2
Flags: W
LayerCount: 4
Fore
SplineSet
325 639 m 1,0,-1
 399 220 l 2,1,2
 404 194 404 194 415 154 c 0,3,4
 420 138 420 138 424 126 c 128,-1,5
 428 114 428 114 430 110 c 0,6,7
 436 105 436 105 443 101.5 c 128,-1,8
 450 98 450 98 458.5 94.5 c 128,-1,9
 467 91 467 91 477 90 c 0,10,11
 512 83 512 83 574 83 c 0,12,13
 725 83 725 83 784.5 148.5 c 128,-1,14
 844 214 844 214 820 352 c 0,15,16
 794 498 794 498 697.5 568.5 c 128,-1,17
 601 639 601 639 422 639 c 2,18,-1
 325 639 l 1,0,-1
303 765 m 1,19,-1
 445 765 l 2,20,21
 559 765 559 765 604 826 c 0,22,23
 650 888 650 888 634 974 c 0,24,25
 613 1095 613 1095 526 1161 c 0,26,27
 438 1229 438 1229 306 1229 c 0,28,29
 286 1229 286 1229 269.5 1227.5 c 128,-1,30
 253 1226 253 1226 243.5 1224.5 c 128,-1,31
 234 1223 234 1223 230 1221 c 0,32,33
 229 1213 229 1213 230 1199 c 128,-1,34
 231 1185 231 1185 233.5 1164 c 128,-1,35
 236 1143 236 1143 241 1117 c 2,36,-1
 303 765 l 1,19,-1
374 1343 m 0,37,38
 434 1343 434 1343 492 1334 c 0,39,40
 550 1325 550 1325 611 1302 c 0,41,42
 673 1279 673 1279 721 1243 c 0,43,44
 738 1231 738 1231 753.5 1216.5 c 128,-1,45
 769 1202 769 1202 782.5 1185 c 128,-1,46
 796 1168 796 1168 809 1149 c 0,47,48
 846 1091 846 1091 858 1020 c 0,49,50
 868 964 868 964 858.5 914 c 128,-1,51
 849 864 849 864 820 820 c 0,52,53
 813 809 813 809 805.5 799 c 128,-1,54
 798 789 798 789 790 779.5 c 128,-1,55
 782 770 782 770 774 762 c 128,-1,56
 766 754 766 754 758 746.5 c 128,-1,57
 750 739 750 739 742 733 c 1,58,59
 762 727 762 727 783 718 c 0,60,61
 839 694 839 694 896 652 c 0,62,63
 954 609 954 609 1000 542 c 0,64,65
 1047 474 1047 474 1060 398 c 0,66,67
 1094 203 1094 203 971 83 c 0,68,69
 914 27 914 27 810.5 -1 c 128,-1,70
 707 -29 707 -29 557 -31 c 2,71,-1
 96 -31 l 2,72,73
 85 -31 85 -31 76 -22 c 0,74,75
 60 -7 60 -7 55 24 c 0,76,77
 51 53 51 53 59 67 c 0,78,79
 64 77 64 77 77 77 c 0,80,81
 105 77 105 77 154 86 c 0,82,83
 167 88 167 88 176.5 91 c 128,-1,84
 186 94 186 94 189 96 c 0,85,86
 191 129 191 129 173 232 c 2,87,-1
 23 1086 l 2,88,89
 5 1189 5 1189 -9 1222 c 0,90,91
 -14 1224 -14 1224 -24.5 1227 c 128,-1,92
 -35 1230 -35 1230 -49 1232 c 0,93,94
 -100 1241 -100 1241 -128 1241 c 0,95,96
 -140 1241 -140 1241 -150 1251 c 0,97,98
 -156 1257 -156 1257 -159.5 1264.5 c 128,-1,99
 -163 1272 -163 1272 -165 1278.5 c 128,-1,100
 -167 1285 -167 1285 -169 1294 c 0,101,102
 -175 1325 -175 1325 -164 1340 c 0,103,104
 -158 1349 -158 1349 -146 1349 c 0,105,106
 60 1339 60 1339 91 1339 c 0,107,108
 102 1339 102 1339 119.5 1339 c 128,-1,109
 137 1339 137 1339 161.5 1339.5 c 128,-1,110
 186 1340 186 1340 217 1341 c 0,111,112
 248 1342 248 1342 275.5 1342.5 c 128,-1,113
 303 1343 303 1343 328 1343 c 128,-1,114
 353 1343 353 1343 374 1343 c 0,37,38
EndSplineSet
EndChar

StartChar: C
Encoding: 67 67 37
Width: 1348
GlyphClass: 2
Flags: W
LayerCount: 4
Fore
SplineSet
532 1359 m 0,0,1
 765 1359 765 1359 969 1316 c 0,2,3
 986 1312 986 1312 992 1296 c 0,4,5
 1086 1022 1086 1022 1091 998 c 0,6,7
 1097 972 1097 972 1072 957 c 0,8,9
 1063 951 1063 951 1052.5 948 c 128,-1,10
 1042 945 1042 945 1031 945 c 0,11,12
 1020 945 1020 945 1010.5 947.5 c 128,-1,13
 1001 950 1001 950 992 955 c 0,14,15
 982 961 982 961 978 971 c 0,16,17
 927 1109 927 1109 825 1176 c 128,-1,18
 723 1243 723 1243 563 1243 c 0,19,20
 430 1243 430 1243 337 1160 c 0,21,22
 243 1076 243 1076 208 950 c 0,23,24
 174 823 174 823 198 686 c 0,25,26
 214 594 214 594 250 506 c 0,27,28
 257 489 257 489 264.5 471.5 c 128,-1,29
 272 454 272 454 281 437.5 c 128,-1,30
 290 421 290 421 299 404.5 c 128,-1,31
 308 388 308 388 318.5 372 c 128,-1,32
 329 356 329 356 340 341 c 0,33,34
 394 263 394 263 462 205 c 0,35,36
 529 148 529 148 617 113 c 0,37,38
 646 102 646 102 676 94.5 c 128,-1,39
 706 87 706 87 737 83 c 128,-1,40
 768 79 768 79 800 79 c 0,41,42
 946 79 946 79 1032 169 c 0,43,44
 1103 244 1103 244 1107 387 c 0,45,46
 1107 393 1107 393 1110 397.5 c 128,-1,47
 1113 402 1113 402 1118 404.5 c 128,-1,48
 1123 407 1123 407 1128 407 c 2,49,-1
 1137 407 l 2,50,51
 1174 407 1174 407 1209 387 c 0,52,53
 1222 380 1222 380 1224 366 c 0,54,55
 1231 325 1231 325 1227 206 c 0,56,57
 1225 159 1225 159 1223 136 c 128,-1,58
 1221 113 1221 113 1215.5 91 c 128,-1,59
 1210 69 1210 69 1200 59 c 0,60,61
 1199 58 1199 58 1198 57.5 c 128,-1,62
 1197 57 1197 57 1196 56 c 0,63,64
 1047 -37 1047 -37 771 -37 c 0,65,66
 621 -37 621 -37 480 18 c 0,67,68
 433 36 433 36 390.5 58.5 c 128,-1,69
 348 81 348 81 308.5 108 c 128,-1,70
 269 135 269 135 234 166 c 0,71,72
 128 258 128 258 55 382.5 c 128,-1,73
 -18 507 -18 507 -43 644 c 0,74,75
 -68 788 -68 788 -38.5 919 c 128,-1,76
 -9 1050 -9 1050 66 1147 c 0,77,78
 103 1196 103 1196 152 1234.5 c 128,-1,79
 201 1273 201 1273 262 1301 c 0,80,81
 383 1359 383 1359 532 1359 c 0,0,1
EndSplineSet
EndChar

StartChar: D
Encoding: 68 68 38
Width: 1420
GlyphClass: 2
Flags: W
LayerCount: 4
Fore
SplineSet
244 1112 m 2,0,-1
 399 230 l 2,1,2
 405 196 405 196 411.5 167 c 128,-1,3
 418 138 418 138 422.5 122 c 128,-1,4
 427 106 427 106 430 101 c 0,5,6
 435 97 435 97 452 93 c 128,-1,7
 469 89 469 89 502.5 86 c 128,-1,8
 536 83 536 83 576 83 c 0,9,10
 681 83 681 83 765 116 c 0,11,12
 849 149 849 149 907 213 c 0,13,14
 965 277 965 277 988 382 c 0,15,16
 1010 488 1010 488 986 626 c 0,17,18
 963 754 963 754 915 858 c 0,19,20
 868 960 868 960 806.5 1027.5 c 128,-1,21
 745 1095 745 1095 669 1140 c 0,22,23
 631 1163 631 1163 592 1179.5 c 128,-1,24
 553 1196 553 1196 513 1206 c 0,25,26
 433 1227 433 1227 347 1227 c 0,27,28
 258 1227 258 1227 233 1217 c 1,29,30
 231 1186 231 1186 244 1112 c 2,0,-1
381 1341 m 0,31,32
 547 1341 547 1341 692 1290 c 0,33,34
 741 1273 741 1273 785.5 1251.5 c 128,-1,35
 830 1230 830 1230 871 1204.5 c 128,-1,36
 912 1179 912 1179 948 1148 c 0,37,38
 1002 1103 1002 1103 1047.5 1049.5 c 128,-1,39
 1093 996 1093 996 1129 934 c 0,40,41
 1201 810 1201 810 1226 668 c 0,42,43
 1229 650 1229 650 1232 632 c 128,-1,44
 1235 614 1235 614 1236.5 596.5 c 128,-1,45
 1238 579 1238 579 1239.5 561.5 c 128,-1,46
 1241 544 1241 544 1241.5 527.5 c 128,-1,47
 1242 511 1242 511 1242 494.5 c 128,-1,48
 1242 478 1242 478 1241 462 c 0,49,50
 1239 413 1239 413 1228 365.5 c 128,-1,51
 1217 318 1217 318 1198 272 c 0,52,53
 1159 179 1159 179 1087 113 c 0,54,55
 1050 80 1050 80 1000.5 54 c 128,-1,56
 951 28 951 28 889 8 c 0,57,58
 764 -31 764 -31 596 -31 c 2,59,-1
 96 -31 l 2,60,61
 85 -31 85 -31 76 -22 c 0,62,63
 60 -7 60 -7 55 24 c 0,64,65
 51 53 51 53 59 67 c 0,66,67
 64 77 64 77 77 77 c 0,68,69
 105 77 105 77 154 86 c 0,70,71
 167 88 167 88 176.5 91 c 128,-1,72
 186 94 186 94 189 96 c 0,73,74
 191 129 191 129 173 232 c 2,75,-1
 23 1086 l 2,76,77
 5 1189 5 1189 -9 1222 c 0,78,79
 -14 1224 -14 1224 -24.5 1227 c 128,-1,80
 -35 1230 -35 1230 -49 1232 c 0,81,82
 -100 1241 -100 1241 -128 1241 c 0,83,84
 -140 1241 -140 1241 -150 1251 c 0,85,86
 -156 1257 -156 1257 -159.5 1264.5 c 128,-1,87
 -163 1272 -163 1272 -165 1278.5 c 128,-1,88
 -167 1285 -167 1285 -169 1294 c 0,89,90
 -175 1325 -175 1325 -164 1340 c 0,91,92
 -158 1349 -158 1349 -146 1349 c 0,93,94
 60 1339 60 1339 91 1339 c 0,95,96
 129 1339 129 1339 232 1340 c 0,97,98
 284 1341 284 1341 321 1341 c 128,-1,99
 358 1341 358 1341 381 1341 c 0,31,32
EndSplineSet
EndChar

StartChar: E
Encoding: 69 69 39
Width: 1174
GlyphClass: 2
Flags: W
LayerCount: 4
Fore
SplineSet
91 1339 m 0,0,1
 181 1339 181 1339 399 1346 c 0,2,3
 619 1353 619 1353 732 1353 c 0,4,5
 738 1353 738 1353 744 1350 c 128,-1,6
 750 1347 750 1347 754.5 1342 c 128,-1,7
 759 1337 759 1337 761 1331 c 0,8,9
 770 1303 770 1303 784 1265.5 c 128,-1,10
 798 1228 798 1228 818 1181 c 0,11,12
 828 1157 828 1157 835.5 1137.5 c 128,-1,13
 843 1118 843 1118 849.5 1103 c 128,-1,14
 856 1088 856 1088 860 1077.5 c 128,-1,15
 864 1067 864 1067 866 1061 c 0,16,17
 871 1048 871 1048 864 1038 c 0,18,19
 856 1028 856 1028 843 1024.5 c 128,-1,20
 830 1021 830 1021 813 1021 c 0,21,22
 769 1021 769 1021 755 1054 c 0,23,24
 709 1155 709 1155 655 1189 c 0,25,26
 600 1223 600 1223 517 1223 c 2,27,-1
 345 1223 l 2,28,29
 256 1223 256 1223 232 1213 c 1,30,31
 230 1181 230 1181 242 1112 c 2,32,-1
 310 725 l 1,33,34
 334 723 334 723 372 723 c 2,35,-1
 478 723 l 2,36,37
 528 723 528 723 554 724 c 0,38,39
 580 725 580 725 602 729 c 0,40,41
 620 733 620 733 626 738 c 0,42,43
 633 743 633 743 638.5 754.5 c 128,-1,44
 644 766 644 766 646 782 c 0,45,46
 648 802 648 802 650 830 c 0,47,48
 650 836 650 836 650.5 840.5 c 128,-1,49
 651 845 651 845 651 849 c 0,50,51
 653 868 653 868 667 874.5 c 128,-1,52
 681 881 681 881 700 881 c 0,53,54
 734 881 734 881 754 864 c 0,55,56
 763 857 763 857 765 846 c 2,57,-1
 831 468 l 2,58,59
 832 465 832 465 831.5 461.5 c 128,-1,60
 831 458 831 458 830 455 c 128,-1,61
 829 452 829 452 827 450 c 0,62,63
 824 446 824 446 819.5 443.5 c 128,-1,64
 815 441 815 441 811 439 c 128,-1,65
 807 437 807 437 801 436 c 128,-1,66
 795 435 795 435 790.5 435 c 128,-1,67
 786 435 786 435 780 435 c 0,68,69
 737 435 737 435 719 467 c 0,70,71
 718 468 718 468 718 470 c 0,72,73
 684 547 684 547 672 566 c 0,74,75
 670 569 670 569 667.5 572 c 128,-1,76
 665 575 665 575 663 577 c 128,-1,77
 661 579 661 579 659 581 c 128,-1,78
 657 583 657 583 655.5 584.5 c 128,-1,79
 654 586 654 586 652 587 c 0,80,81
 642 591 642 591 587 595 c 128,-1,82
 532 599 532 599 451 599 c 2,83,-1
 420 599 l 2,84,85
 415 599 415 599 407.5 599 c 128,-1,86
 400 599 400 599 390 599 c 0,87,88
 371 599 371 599 360 597 c 0,89,90
 355 597 355 597 349 596 c 128,-1,91
 343 595 343 595 337 594 c 0,92,93
 335 594 335 594 333 594 c 2,94,-1
 402 205 l 2,95,96
 407 178 407 178 414 144 c 0,97,98
 421 116 421 116 425 105 c 1,99,100
 438 98 438 98 455 96 c 0,101,102
 481 93 481 93 551 93 c 2,103,-1
 647 93 l 2,104,105
 716 93 716 93 781 107 c 0,106,107
 844 121 844 121 877 143 c 0,108,109
 888 151 888 151 897 160.5 c 128,-1,110
 906 170 906 170 913 181.5 c 128,-1,111
 920 193 920 193 926 207 c 0,112,113
 943 252 943 252 959 332 c 0,114,115
 963 361 963 361 1005 361 c 0,116,117
 1028 361 1028 361 1045.5 357 c 128,-1,118
 1063 353 1063 353 1076 342 c 0,119,120
 1089 331 1089 331 1087 316 c 0,121,122
 1085 303 1085 303 1081 282 c 128,-1,123
 1077 261 1077 261 1071 232 c 0,124,125
 1060 175 1060 175 1054 140 c 0,126,127
 1048 105 1048 105 1043 61 c 0,128,129
 1040 39 1040 39 1039 20.5 c 128,-1,130
 1038 2 1038 2 1038 -12 c 0,131,132
 1038 -21 1038 -21 1032 -27 c 128,-1,133
 1026 -33 1026 -33 1017 -33 c 0,134,135
 965 -33 965 -33 884 -32 c 128,-1,136
 803 -31 803 -31 693 -29 c 0,137,138
 583 -27 583 -27 493 -26 c 128,-1,139
 403 -25 403 -25 333 -25 c 0,140,141
 284 -25 284 -25 210 -28 c 0,142,143
 134 -31 134 -31 96 -31 c 0,144,145
 85 -31 85 -31 76 -22 c 0,146,147
 60 -7 60 -7 55 24 c 0,148,149
 51 53 51 53 59 67 c 0,150,151
 64 77 64 77 77 77 c 0,152,153
 105 77 105 77 154 86 c 0,154,155
 167 88 167 88 176.5 91 c 128,-1,156
 186 94 186 94 189 96 c 0,157,158
 191 129 191 129 173 232 c 2,159,-1
 23 1086 l 2,160,161
 5 1189 5 1189 -9 1222 c 0,162,163
 -14 1224 -14 1224 -24.5 1227 c 128,-1,164
 -35 1230 -35 1230 -49 1232 c 0,165,166
 -100 1241 -100 1241 -128 1241 c 0,167,168
 -140 1241 -140 1241 -150 1251 c 0,169,170
 -156 1257 -156 1257 -159.5 1264.5 c 128,-1,171
 -163 1272 -163 1272 -165 1278.5 c 128,-1,172
 -167 1285 -167 1285 -169 1294 c 0,173,174
 -175 1325 -175 1325 -164 1340 c 0,175,176
 -158 1349 -158 1349 -146 1349 c 0,177,178
 61 1339 61 1339 91 1339 c 0,0,1
EndSplineSet
EndChar

StartChar: F
Encoding: 70 70 40
Width: 1070
GlyphClass: 2
Flags: W
LayerCount: 4
Fore
SplineSet
91 1339 m 0,0,1
 181 1339 181 1339 399 1346 c 0,2,3
 619 1353 619 1353 732 1353 c 0,4,5
 738 1353 738 1353 744 1350 c 128,-1,6
 750 1347 750 1347 754.5 1342 c 128,-1,7
 759 1337 759 1337 761 1331 c 0,8,9
 770 1303 770 1303 784 1265.5 c 128,-1,10
 798 1228 798 1228 818 1181 c 0,11,12
 828 1157 828 1157 835.5 1137.5 c 128,-1,13
 843 1118 843 1118 849.5 1103 c 128,-1,14
 856 1088 856 1088 860 1077.5 c 128,-1,15
 864 1067 864 1067 866 1061 c 0,16,17
 871 1048 871 1048 864 1038 c 0,18,19
 856 1028 856 1028 843 1024.5 c 128,-1,20
 830 1021 830 1021 813 1021 c 0,21,22
 769 1021 769 1021 755 1054 c 0,23,24
 709 1155 709 1155 655 1189 c 0,25,26
 600 1223 600 1223 517 1223 c 2,27,-1
 345 1223 l 2,28,29
 323 1223 323 1223 303.5 1222 c 128,-1,30
 284 1221 284 1221 269.5 1219.5 c 128,-1,31
 255 1218 255 1218 245.5 1216.5 c 128,-1,32
 236 1215 236 1215 232 1213 c 1,33,34
 231 1197 231 1197 234.5 1164 c 128,-1,35
 238 1131 238 1131 247 1084 c 2,36,-1
 310 725 l 1,37,38
 334 723 334 723 372 723 c 2,39,-1
 478 723 l 2,40,41
 528 723 528 723 554 724 c 0,42,43
 580 725 580 725 602 729 c 0,44,45
 620 733 620 733 626 738 c 0,46,47
 633 743 633 743 638.5 754.5 c 128,-1,48
 644 766 644 766 646 782 c 0,49,50
 648 802 648 802 650 830 c 0,51,52
 650 836 650 836 650.5 840.5 c 128,-1,53
 651 845 651 845 651 849 c 0,54,55
 653 868 653 868 667 874.5 c 128,-1,56
 681 881 681 881 700 881 c 0,57,58
 734 881 734 881 754 864 c 0,59,60
 763 857 763 857 765 846 c 2,61,-1
 831 468 l 2,62,63
 832 465 832 465 831.5 461.5 c 128,-1,64
 831 458 831 458 830 455 c 128,-1,65
 829 452 829 452 827 450 c 0,66,67
 824 446 824 446 819.5 443.5 c 128,-1,68
 815 441 815 441 811 439 c 128,-1,69
 807 437 807 437 801 436 c 128,-1,70
 795 435 795 435 790.5 435 c 128,-1,71
 786 435 786 435 780 435 c 0,72,73
 737 435 737 435 719 467 c 0,74,75
 718 468 718 468 718 470 c 0,76,77
 684 547 684 547 672 566 c 0,78,79
 670 569 670 569 667.5 572 c 128,-1,80
 665 575 665 575 663 577 c 128,-1,81
 661 579 661 579 659 581 c 128,-1,82
 657 583 657 583 655.5 584.5 c 128,-1,83
 654 586 654 586 652 587 c 0,84,85
 642 591 642 591 587 595 c 128,-1,86
 532 599 532 599 451 599 c 0,87,88
 363 599 363 599 334 592 c 1,89,-1
 397 232 l 2,90,91
 415 130 415 130 429 96 c 1,92,93
 443 90 443 90 476 86 c 0,94,95
 536 77 536 77 567 77 c 0,96,97
 579 77 579 77 589 67 c 0,98,99
 602 53 602 53 608 24 c 0,100,101
 611 9 611 9 610.5 -2 c 128,-1,102
 610 -13 610 -13 604 -22 c 0,103,104
 601 -26 601 -26 596 -28.5 c 128,-1,105
 591 -31 591 -31 585 -31 c 0,106,107
 379 -21 379 -21 331 -21 c 0,108,109
 283 -21 283 -21 209 -26 c 0,110,111
 134 -31 134 -31 96 -31 c 0,112,113
 85 -31 85 -31 76 -22 c 0,114,115
 60 -7 60 -7 55 24 c 0,116,117
 51 53 51 53 59 67 c 0,118,119
 64 77 64 77 77 77 c 0,120,121
 105 77 105 77 154 86 c 0,122,123
 167 88 167 88 176.5 91 c 128,-1,124
 186 94 186 94 189 96 c 0,125,126
 191 129 191 129 173 232 c 2,127,-1
 23 1086 l 2,128,129
 5 1189 5 1189 -9 1222 c 0,130,131
 -14 1224 -14 1224 -24.5 1227 c 128,-1,132
 -35 1230 -35 1230 -49 1232 c 0,133,134
 -100 1241 -100 1241 -128 1241 c 0,135,136
 -140 1241 -140 1241 -150 1251 c 0,137,138
 -156 1257 -156 1257 -159.5 1264.5 c 128,-1,139
 -163 1272 -163 1272 -165 1278.5 c 128,-1,140
 -167 1285 -167 1285 -169 1294 c 0,141,142
 -175 1325 -175 1325 -164 1340 c 0,143,144
 -158 1349 -158 1349 -146 1349 c 0,145,146
 61 1339 61 1339 91 1339 c 0,0,1
EndSplineSet
EndChar

StartChar: G
Encoding: 71 71 41
Width: 1440
GlyphClass: 2
Flags: W
LayerCount: 4
Fore
SplineSet
983 350 m 2,0,1
 965 453 965 453 951 486 c 1,2,3
 939 491 939 491 913 496 c 0,4,5
 888 500 888 500 868 502.5 c 128,-1,6
 848 505 848 505 835 505 c 0,7,8
 823 505 823 505 813 515 c 0,9,10
 800 529 800 529 794 558 c 0,11,12
 791 573 791 573 791.5 584 c 128,-1,13
 792 595 792 595 799 604 c 0,14,15
 802 608 802 608 806.5 610.5 c 128,-1,16
 811 613 811 613 817 613 c 0,17,18
 1023 603 1023 603 1052 603 c 0,19,20
 1070 603 1070 603 1273 613 c 0,21,22
 1285 614 1285 614 1294 604 c 0,23,24
 1310 589 1310 589 1315 558 c 0,25,26
 1317 544 1317 544 1316.5 534 c 128,-1,27
 1316 524 1316 524 1311 515 c 0,28,29
 1306 505 1306 505 1293 505 c 0,30,31
 1266 505 1266 505 1222 496 c 0,32,33
 1210 494 1210 494 1201.5 491.5 c 128,-1,34
 1193 489 1193 489 1189 487 c 0,35,36
 1188 472 1188 472 1192 436.5 c 128,-1,37
 1196 401 1196 401 1205 350 c 2,38,-1
 1230 208 l 2,39,40
 1231 203 1231 203 1232.5 198.5 c 128,-1,41
 1234 194 1234 194 1236 189 c 128,-1,42
 1238 184 1238 184 1240 179 c 128,-1,43
 1242 174 1242 174 1245 169 c 0,44,45
 1246 167 1246 167 1248.5 163 c 128,-1,46
 1251 159 1251 159 1252 157.5 c 128,-1,47
 1253 156 1253 156 1255 152.5 c 128,-1,48
 1257 149 1257 149 1258 147 c 128,-1,49
 1259 145 1259 145 1260 142.5 c 128,-1,50
 1261 140 1261 140 1262 138 c 128,-1,51
 1263 136 1263 136 1263.5 133.5 c 128,-1,52
 1264 131 1264 131 1264 128 c 0,53,54
 1266 118 1266 118 1263.5 109 c 128,-1,55
 1261 100 1261 100 1255 94 c 0,56,57
 1250 88 1250 88 1242.5 82.5 c 128,-1,58
 1235 77 1235 77 1221 70 c 0,59,60
 1194 54 1194 54 1170.5 41.5 c 128,-1,61
 1147 29 1147 29 1128 20 c 0,62,63
 1088 1 1088 1 991 -18 c 0,64,65
 943 -27 943 -27 888 -32 c 128,-1,66
 833 -37 833 -37 771 -37 c 0,67,68
 621 -37 621 -37 480 18 c 0,69,70
 433 36 433 36 390.5 58.5 c 128,-1,71
 348 81 348 81 308.5 108 c 128,-1,72
 269 135 269 135 234 166 c 0,73,74
 128 258 128 258 55 382.5 c 128,-1,75
 -18 507 -18 507 -43 644 c 0,76,77
 -68 788 -68 788 -38.5 919 c 128,-1,78
 -9 1050 -9 1050 66 1147 c 0,79,80
 103 1196 103 1196 152 1234.5 c 128,-1,81
 201 1273 201 1273 262 1301 c 0,82,83
 384 1359 384 1359 532 1359 c 0,84,85
 765 1359 765 1359 969 1316 c 0,86,87
 986 1312 986 1312 992 1296 c 0,88,89
 1086 1022 1086 1022 1091 998 c 0,90,91
 1097 972 1097 972 1072 957 c 0,92,93
 1063 951 1063 951 1052.5 948 c 128,-1,94
 1042 945 1042 945 1031 945 c 0,95,96
 1020 945 1020 945 1010.5 947.5 c 128,-1,97
 1001 950 1001 950 992 955 c 0,98,99
 982 961 982 961 978 971 c 0,100,101
 927 1109 927 1109 825 1176 c 128,-1,102
 723 1243 723 1243 563 1243 c 0,103,104
 430 1243 430 1243 337 1160 c 0,105,106
 243 1076 243 1076 208 950 c 0,107,108
 174 823 174 823 198 686 c 0,109,110
 214 594 214 594 249 506 c 0,111,112
 266 462 266 462 288.5 421 c 128,-1,113
 311 380 311 380 339 341 c 0,114,115
 393 263 393 263 461 205 c 0,116,117
 528 148 528 148 616 113 c 0,118,119
 638 105 638 105 660 98.5 c 128,-1,120
 682 92 682 92 705 87.5 c 128,-1,121
 728 83 728 83 752 81 c 128,-1,122
 776 79 776 79 800 79 c 0,123,124
 908 79 908 79 1019 140 c 0,125,126
 1019 143 1019 143 1019 148 c 2,127,-1
 983 350 l 2,0,1
EndSplineSet
EndChar

StartChar: H
Encoding: 72 72 42
Width: 1452
GlyphClass: 2
Flags: W
LayerCount: 4
Fore
SplineSet
91 1339 m 0,0,1
 100 1339 100 1339 128.5 1340 c 128,-1,2
 157 1341 157 1341 206 1343.5 c 128,-1,3
 255 1346 255 1346 322 1349 c 0,4,5
 334 1350 334 1350 343 1340 c 0,6,7
 359 1325 359 1325 365 1291 c 0,8,9
 370 1259 370 1259 361 1245 c 0,10,11
 355 1235 355 1235 343 1235 c 0,12,13
 338 1235 338 1235 332 1234.5 c 128,-1,14
 326 1234 326 1234 318.5 1233.5 c 128,-1,15
 311 1233 311 1233 303 1232 c 128,-1,16
 295 1231 295 1231 286 1229.5 c 128,-1,17
 277 1228 277 1228 267 1226 c 0,18,19
 241 1221 241 1221 231 1216 c 1,20,21
 230 1201 230 1201 234.5 1166 c 128,-1,22
 239 1131 239 1131 248 1080 c 2,23,-1
 306 749 l 1,24,25
 399 747 399 747 462 745.5 c 128,-1,26
 525 744 525 744 559 743.5 c 128,-1,27
 593 743 593 743 600 743 c 0,28,29
 634 743 634 743 884 749 c 1,30,-1
 826 1080 l 2,31,32
 808 1183 808 1183 794 1216 c 1,33,34
 782 1221 782 1221 754 1226 c 0,35,36
 703 1235 703 1235 675 1235 c 0,37,38
 663 1235 663 1235 653 1245 c 0,39,40
 640 1259 640 1259 634 1291 c 0,41,42
 631 1307 631 1307 631 1319 c 128,-1,43
 631 1331 631 1331 638 1340 c 0,44,45
 641 1344 641 1344 646 1346.5 c 128,-1,46
 651 1349 651 1349 656 1349 c 0,47,48
 862 1339 862 1339 893 1339 c 0,49,50
 906 1339 906 1339 965 1341.5 c 128,-1,51
 1024 1344 1024 1344 1124 1349 c 0,52,53
 1136 1350 1136 1350 1145 1340 c 0,54,55
 1161 1325 1161 1325 1167 1291 c 0,56,57
 1172 1259 1172 1259 1163 1245 c 0,58,59
 1158 1235 1158 1235 1145 1235 c 0,60,61
 1132 1235 1132 1235 1112.5 1233 c 128,-1,62
 1093 1231 1093 1231 1069 1226 c 0,63,64
 1043 1221 1043 1221 1033 1216 c 1,65,66
 1032 1201 1032 1201 1036.5 1166 c 128,-1,67
 1041 1131 1041 1131 1050 1080 c 2,68,-1
 1198 238 l 2,69,70
 1216 135 1216 135 1230 102 c 0,71,72
 1235 100 1235 100 1245 97 c 128,-1,73
 1255 94 1255 94 1269 92 c 0,74,75
 1320 83 1320 83 1348 83 c 0,76,77
 1361 83 1361 83 1370 73 c 0,78,79
 1379 64 1379 64 1383 53.5 c 128,-1,80
 1387 43 1387 43 1390 27 c 0,81,82
 1397 -7 1397 -7 1386 -22 c 0,83,84
 1383 -26 1383 -26 1378 -28.5 c 128,-1,85
 1373 -31 1373 -31 1367 -31 c 0,86,87
 1265 -26 1265 -26 1205.5 -23.5 c 128,-1,88
 1146 -21 1146 -21 1133 -21 c 0,89,90
 1103 -21 1103 -21 900 -31 c 0,91,92
 888 -32 888 -32 878 -22 c 0,93,94
 862 -7 862 -7 857 27 c 0,95,96
 852 59 852 59 860 73 c 0,97,98
 866 83 866 83 878 83 c 0,99,100
 887 83 887 83 898.5 84 c 128,-1,101
 910 85 910 85 924 87 c 128,-1,102
 938 89 938 89 955 92 c 0,103,104
 968 94 968 94 977.5 97 c 128,-1,105
 987 100 987 100 990 102 c 0,106,107
 992 135 992 135 974 238 c 2,108,-1
 907 618 l 1,109,110
 872 619 872 619 791 622 c 0,111,112
 679 625 679 625 621 625 c 0,113,114
 506 625 506 625 431.5 623 c 128,-1,115
 357 621 357 621 329 617 c 1,116,-1
 396 238 l 2,117,118
 405 187 405 187 413.5 151.5 c 128,-1,119
 422 116 422 116 428 102 c 1,120,121
 440 97 440 97 467 92 c 0,122,123
 518 83 518 83 546 83 c 0,124,125
 558 83 558 83 568 73 c 0,126,127
 581 59 581 59 588 27 c 0,128,129
 595 -7 595 -7 584 -22 c 0,130,131
 581 -26 581 -26 576 -28.5 c 128,-1,132
 571 -31 571 -31 565 -31 c 0,133,134
 359 -21 359 -21 331 -21 c 0,135,136
 301 -21 301 -21 98 -31 c 0,137,138
 92 -31 92 -31 86.5 -29 c 128,-1,139
 81 -27 81 -27 76 -22 c 0,140,141
 60 -7 60 -7 55 27 c 0,142,143
 50 59 50 59 58 73 c 0,144,145
 63 83 63 83 76 83 c 0,146,147
 104 83 104 83 153 92 c 0,148,149
 158 93 158 93 162 93.5 c 128,-1,150
 166 94 166 94 169.5 95 c 128,-1,151
 173 96 173 96 176 97 c 128,-1,152
 179 98 179 98 181.5 99 c 128,-1,153
 184 100 184 100 185.5 100.5 c 128,-1,154
 187 101 187 101 188 102 c 0,155,156
 190 135 190 135 172 238 c 2,157,-1
 24 1080 l 2,158,159
 6 1183 6 1183 -8 1216 c 0,160,161
 -13 1218 -13 1218 -23.5 1221 c 128,-1,162
 -34 1224 -34 1224 -48 1226 c 0,163,164
 -99 1235 -99 1235 -127 1235 c 0,165,166
 -139 1235 -139 1235 -149 1245 c 0,167,168
 -162 1259 -162 1259 -168 1291 c 0,169,170
 -171 1307 -171 1307 -171 1319 c 128,-1,171
 -171 1331 -171 1331 -164 1340 c 0,172,173
 -158 1349 -158 1349 -146 1349 c 0,174,175
 61 1339 61 1339 91 1339 c 0,0,1
EndSplineSet
EndChar

StartChar: I
Encoding: 73 73 43
Width: 648
GlyphClass: 2
Flags: W
LayerCount: 4
Fore
SplineSet
91 1339 m 0,0,1
 100 1339 100 1339 128.5 1340 c 128,-1,2
 157 1341 157 1341 206 1343.5 c 128,-1,3
 255 1346 255 1346 322 1349 c 0,4,5
 334 1350 334 1350 343 1340 c 0,6,7
 359 1325 359 1325 364 1294 c 0,8,9
 365 1285 365 1285 365.5 1278.5 c 128,-1,10
 366 1272 366 1272 365 1264.5 c 128,-1,11
 364 1257 364 1257 360 1251 c 0,12,13
 354 1241 354 1241 342 1241 c 0,14,15
 337 1241 337 1241 330.5 1240.5 c 128,-1,16
 324 1240 324 1240 317 1239.5 c 128,-1,17
 310 1239 310 1239 302 1238 c 128,-1,18
 294 1237 294 1237 285 1235.5 c 128,-1,19
 276 1234 276 1234 266 1232 c 0,20,21
 240 1227 240 1227 230 1222 c 1,22,23
 229 1207 229 1207 233.5 1172 c 128,-1,24
 238 1137 238 1137 247 1086 c 2,25,-1
 397 232 l 2,26,27
 406 181 406 181 414.5 145.5 c 128,-1,28
 423 110 423 110 429 96 c 1,29,30
 441 91 441 91 468 86 c 0,31,32
 519 77 519 77 547 77 c 0,33,34
 559 77 559 77 569 67 c 0,35,36
 582 53 582 53 588 24 c 0,37,38
 591 9 591 9 590.5 -2 c 128,-1,39
 590 -13 590 -13 584 -22 c 0,40,41
 581 -26 581 -26 576 -28.5 c 128,-1,42
 571 -31 571 -31 565 -31 c 0,43,44
 359 -21 359 -21 331 -21 c 0,45,46
 301 -21 301 -21 98 -31 c 0,47,48
 92 -31 92 -31 86.5 -29 c 128,-1,49
 81 -27 81 -27 76 -22 c 0,50,51
 60 -7 60 -7 55 24 c 0,52,53
 51 53 51 53 59 67 c 0,54,55
 64 77 64 77 77 77 c 0,56,57
 105 77 105 77 154 86 c 0,58,59
 167 88 167 88 176.5 91 c 128,-1,60
 186 94 186 94 189 96 c 0,61,62
 191 129 191 129 173 232 c 2,63,-1
 23 1086 l 2,64,65
 5 1189 5 1189 -9 1222 c 0,66,67
 -14 1224 -14 1224 -24.5 1227 c 128,-1,68
 -35 1230 -35 1230 -49 1232 c 0,69,70
 -100 1241 -100 1241 -128 1241 c 0,71,72
 -140 1241 -140 1241 -150 1251 c 0,73,74
 -156 1257 -156 1257 -159.5 1264.5 c 128,-1,75
 -163 1272 -163 1272 -165 1278.5 c 128,-1,76
 -167 1285 -167 1285 -169 1294 c 0,77,78
 -175 1325 -175 1325 -164 1340 c 0,79,80
 -158 1349 -158 1349 -146 1349 c 0,81,82
 61 1339 61 1339 91 1339 c 0,0,1
EndSplineSet
EndChar

StartChar: J
Encoding: 74 74 44
Width: 626
GlyphClass: 2
Flags: W
LayerCount: 4
Fore
SplineSet
80 1339 m 0,0,1
 89 1339 89 1339 117.5 1340 c 128,-1,2
 146 1341 146 1341 195 1343.5 c 128,-1,3
 244 1346 244 1346 311 1349 c 0,4,5
 323 1350 323 1350 332 1340 c 0,6,7
 348 1325 348 1325 353 1294 c 0,8,9
 355 1280 355 1280 355 1270 c 128,-1,10
 355 1260 355 1260 349 1251 c 0,11,12
 343 1241 343 1241 331 1241 c 0,13,14
 322 1241 322 1241 311 1240 c 128,-1,15
 300 1239 300 1239 285.5 1237 c 128,-1,16
 271 1235 271 1235 255 1232 c 0,17,18
 229 1227 229 1227 219 1222 c 1,19,20
 218 1207 218 1207 222.5 1172 c 128,-1,21
 227 1137 227 1137 236 1086 c 2,22,-1
 384 242 l 2,23,24
 400 149 400 149 406 68 c 128,-1,25
 412 -13 412 -13 406 -83 c 0,26,27
 401 -153 401 -153 385.5 -210 c 128,-1,28
 370 -267 370 -267 343 -310 c 0,29,30
 291 -396 291 -396 209 -438 c 0,31,32
 128 -479 128 -479 18 -479 c 0,33,34
 4 -479 4 -479 -14.5 -476 c 128,-1,35
 -33 -473 -33 -473 -57 -467 c 0,36,37
 -107 -454 -107 -454 -130 -438 c 0,38,39
 -131 -437 -131 -437 -133 -436 c 0,40,41
 -147 -424 -147 -424 -155.5 -407.5 c 128,-1,42
 -164 -391 -164 -391 -167 -372 c 0,43,44
 -170 -353 -170 -353 -170 -336.5 c 128,-1,45
 -170 -320 -170 -320 -166 -304.5 c 128,-1,46
 -162 -289 -162 -289 -154 -276 c 0,47,48
 -129 -235 -129 -235 -71 -235 c 0,49,50
 -62 -235 -62 -235 -51 -237 c 0,51,52
 -48 -238 -48 -238 -44.5 -238.5 c 128,-1,53
 -41 -239 -41 -239 -38 -240.5 c 128,-1,54
 -35 -242 -35 -242 -32 -243 c 128,-1,55
 -29 -244 -29 -244 -26 -246 c 0,56,57
 -17 -250 -17 -250 -12 -253 c 0,58,59
 -4 -257 -4 -257 8 -265 c 0,60,61
 11 -267 11 -267 13 -268.5 c 128,-1,62
 15 -270 15 -270 17 -271.5 c 128,-1,63
 19 -273 19 -273 20.5 -274 c 128,-1,64
 22 -275 22 -275 23 -276 c 0,65,66
 27 -279 27 -279 40 -288 c 0,67,68
 51 -297 51 -297 54 -300 c 0,69,70
 99 -335 99 -335 133 -335 c 0,71,72
 157 -335 157 -335 172 -317 c 0,73,74
 190 -296 190 -296 200 -238 c 0,75,76
 205 -209 205 -209 205.5 -164.5 c 128,-1,77
 206 -120 206 -120 202 -61 c 0,78,79
 193 58 193 58 162 232 c 2,80,-1
 12 1086 l 2,81,82
 3 1137 3 1137 -5.5 1172.5 c 128,-1,83
 -14 1208 -14 1208 -20 1222 c 0,84,85
 -25 1224 -25 1224 -35.5 1227 c 128,-1,86
 -46 1230 -46 1230 -60 1232 c 0,87,88
 -111 1241 -111 1241 -139 1241 c 0,89,90
 -151 1241 -151 1241 -161 1251 c 0,91,92
 -167 1257 -167 1257 -170.5 1264.5 c 128,-1,93
 -174 1272 -174 1272 -176 1278.5 c 128,-1,94
 -178 1285 -178 1285 -180 1294 c 0,95,96
 -186 1325 -186 1325 -175 1340 c 0,97,98
 -169 1349 -169 1349 -157 1349 c 0,99,100
 50 1339 50 1339 80 1339 c 0,0,1
EndSplineSet
EndChar

StartChar: K
Encoding: 75 75 45
Width: 1314
GlyphClass: 2
Flags: W
LayerCount: 4
Fore
SplineSet
91 1339 m 0,0,1
 100 1339 100 1339 128.5 1340 c 128,-1,2
 157 1341 157 1341 206 1343.5 c 128,-1,3
 255 1346 255 1346 322 1349 c 0,4,5
 334 1350 334 1350 343 1340 c 0,6,7
 359 1325 359 1325 365 1291 c 0,8,9
 370 1259 370 1259 361 1245 c 0,10,11
 355 1235 355 1235 343 1235 c 0,12,13
 338 1235 338 1235 332 1234.5 c 128,-1,14
 326 1234 326 1234 318.5 1233.5 c 128,-1,15
 311 1233 311 1233 303 1232 c 128,-1,16
 295 1231 295 1231 286 1229.5 c 128,-1,17
 277 1228 277 1228 267 1226 c 0,18,19
 258 1224 258 1224 250.5 1222.5 c 128,-1,20
 243 1221 243 1221 238 1219.5 c 128,-1,21
 233 1218 233 1218 231 1216 c 0,22,23
 230 1201 230 1201 233 1174 c 128,-1,24
 236 1147 236 1147 242 1110 c 2,25,-1
 309 732 l 1,26,27
 335 757 335 757 373.5 799.5 c 128,-1,28
 412 842 412 842 462 902 c 0,29,30
 557 1017 557 1017 595 1065 c 0,31,32
 632 1113 632 1113 667 1171 c 0,33,34
 685 1201 685 1201 681 1218 c 2,35,-1
 680 1222 l 2,36,37
 680 1224 680 1224 678 1224 c 0,38,39
 676 1226 676 1226 673.5 1227 c 128,-1,40
 671 1228 671 1228 668 1229 c 0,41,42
 663 1231 663 1231 657 1233 c 0,43,44
 649 1235 649 1235 642.5 1235.5 c 128,-1,45
 636 1236 636 1236 627 1237 c 0,46,47
 622 1237 622 1237 618 1237 c 128,-1,48
 614 1237 614 1237 612 1237 c 2,49,-1
 591 1237 l 2,50,51
 586 1237 586 1237 581.5 1239 c 128,-1,52
 577 1241 577 1241 573 1243.5 c 128,-1,53
 569 1246 569 1246 567 1250 c 0,54,55
 563 1256 563 1256 559.5 1263 c 128,-1,56
 556 1270 556 1270 554.5 1276 c 128,-1,57
 553 1282 553 1282 551 1290 c 0,58,59
 547 1314 547 1314 551 1332 c 0,60,61
 552 1337 552 1337 555 1341 c 128,-1,62
 558 1345 558 1345 562.5 1347 c 128,-1,63
 567 1349 567 1349 572 1349 c 0,64,65
 596 1348 596 1348 645 1344 c 0,66,67
 669 1342 669 1342 691 1341 c 128,-1,68
 713 1340 713 1340 733 1339 c 0,69,70
 771 1337 771 1337 803 1337 c 0,71,72
 820 1337 820 1337 839.5 1337.5 c 128,-1,73
 859 1338 859 1338 880.5 1339.5 c 128,-1,74
 902 1341 902 1341 925 1342 c 0,75,76
 997 1348 997 1348 1016 1349 c 0,77,78
 1033 1350 1033 1350 1043 1334 c 0,79,80
 1049 1325 1049 1325 1051.5 1315 c 128,-1,81
 1054 1305 1054 1305 1056 1288 c 0,82,83
 1057.5 1282.5 l 0,84,85
 1059 1277 1059 1277 1059 1274 c 128,-1,86
 1059 1271 1059 1271 1059 1265 c 128,-1,87
 1059 1259 1059 1259 1058 1255.5 c 128,-1,88
 1057 1252 1057 1252 1054.5 1247.5 c 128,-1,89
 1052 1243 1052 1243 1047 1240.5 c 128,-1,90
 1042 1238 1042 1238 1036 1237 c 2,91,-1
 1019 1236 l 2,92,93
 1004 1235 1004 1235 991 1234 c 0,94,95
 980 1233 980 1233 960 1228 c 0,96,97
 950 1226 950 1226 941.5 1223 c 128,-1,98
 933 1220 933 1220 925.5 1216.5 c 128,-1,99
 918 1213 918 1213 909.5 1208.5 c 128,-1,100
 901 1204 901 1204 892 1198 c 0,101,102
 876 1187 876 1187 865 1171 c 0,103,104
 815 1105 815 1105 763.5 1040 c 128,-1,105
 712 975 712 975 678.5 936 c 128,-1,106
 645 897 645 897 581 823 c 0,107,108
 524 758 524 758 490 719 c 1,109,110
 509 701 509 701 548 663 c 0,111,112
 600 613 600 613 617 596 c 0,113,114
 621 592 621 592 627 586.5 c 128,-1,115
 633 581 633 581 641 573.5 c 128,-1,116
 649 566 649 566 658.5 556.5 c 128,-1,117
 668 547 668 547 680 536 c 0,118,119
 726 491 726 491 746 473 c 0,120,121
 756 464 756 464 770.5 449.5 c 128,-1,122
 785 435 785 435 805.5 416 c 128,-1,123
 826 397 826 397 841.5 382.5 c 128,-1,124
 857 368 857 368 868 358 c 0,125,126
 890 338 890 338 924 306 c 0,127,128
 958 275 958 275 983 254 c 128,-1,129
 1008 233 1008 233 1036 208 c 0,130,131
 1050 196 1050 196 1064 184.5 c 128,-1,132
 1078 173 1078 173 1092 162 c 0,133,134
 1139 125 1139 125 1188 104 c 128,-1,135
 1237 83 1237 83 1309 77 c 0,136,137
 1323 76 1323 76 1332 64 c 0,138,139
 1345 46 1345 46 1346 17 c 0,140,141
 1347 -8 1347 -8 1344 -17 c 0,142,143
 1340 -31 1340 -31 1324 -31 c 0,144,145
 1099 -31 1099 -31 1028 -8 c 0,146,147
 939 22 939 22 867 84 c 0,148,149
 802 138 802 138 335 583 c 1,150,-1
 396 238 l 2,151,152
 405 187 405 187 413.5 151.5 c 128,-1,153
 422 116 422 116 428 102 c 1,154,155
 440 97 440 97 467 92 c 0,156,157
 518 83 518 83 546 83 c 0,158,159
 558 83 558 83 568 73 c 0,160,161
 581 59 581 59 588 27 c 0,162,163
 595 -7 595 -7 584 -22 c 0,164,165
 581 -26 581 -26 576 -28.5 c 128,-1,166
 571 -31 571 -31 565 -31 c 0,167,168
 359 -21 359 -21 331 -21 c 0,169,170
 301 -21 301 -21 98 -31 c 0,171,172
 92 -31 92 -31 86.5 -29 c 128,-1,173
 81 -27 81 -27 76 -22 c 0,174,175
 60 -7 60 -7 55 27 c 0,176,177
 50 59 50 59 58 73 c 0,178,179
 63 83 63 83 76 83 c 0,180,181
 104 83 104 83 153 92 c 0,182,183
 158 93 158 93 162 93.5 c 128,-1,184
 166 94 166 94 169.5 95 c 128,-1,185
 173 96 173 96 176 97 c 128,-1,186
 179 98 179 98 181.5 99 c 128,-1,187
 184 100 184 100 185.5 100.5 c 128,-1,188
 187 101 187 101 188 102 c 0,189,190
 190 135 190 135 172 238 c 2,191,-1
 24 1080 l 2,192,193
 6 1183 6 1183 -8 1216 c 0,194,195
 -13 1218 -13 1218 -23.5 1221 c 128,-1,196
 -34 1224 -34 1224 -48 1226 c 0,197,198
 -99 1235 -99 1235 -127 1235 c 0,199,200
 -139 1235 -139 1235 -149 1245 c 0,201,202
 -162 1259 -162 1259 -168 1291 c 0,203,204
 -171 1307 -171 1307 -171 1319 c 128,-1,205
 -171 1331 -171 1331 -164 1340 c 0,206,207
 -158 1349 -158 1349 -146 1349 c 0,208,209
 61 1339 61 1339 91 1339 c 0,0,1
EndSplineSet
EndChar

StartChar: L
Encoding: 76 76 46
Width: 1128
GlyphClass: 2
Flags: W
LayerCount: 4
Fore
SplineSet
397 232 m 2,0,1
 415 132 415 132 426 105 c 1,2,3
 439 98 439 98 455 96 c 0,4,5
 481 93 481 93 551 93 c 2,6,-1
 665 93 l 2,7,8
 685 93 685 93 705 94.5 c 128,-1,9
 725 96 725 96 745.5 99 c 128,-1,10
 766 102 766 102 786 106 c 0,11,12
 845 118 845 118 876 143 c 0,13,14
 898 160 898 160 914 185 c 128,-1,15
 930 210 930 210 941.5 247 c 128,-1,16
 953 284 953 284 959 335 c 0,17,18
 963 361 963 361 1005 361 c 0,19,20
 1028 361 1028 361 1045.5 357 c 128,-1,21
 1063 353 1063 353 1076 342 c 0,22,23
 1089 331 1089 331 1087 316 c 0,24,25
 1085 303 1085 303 1081 282 c 128,-1,26
 1077 261 1077 261 1071 232 c 0,27,28
 1060 175 1060 175 1054 140 c 0,29,30
 1048 105 1048 105 1043 61 c 0,31,32
 1040 39 1040 39 1039 20.5 c 128,-1,33
 1038 2 1038 2 1038 -12 c 0,34,35
 1038 -21 1038 -21 1032 -27 c 128,-1,36
 1026 -33 1026 -33 1017 -33 c 0,37,38
 965 -33 965 -33 884 -32 c 128,-1,39
 803 -31 803 -31 693 -29 c 0,40,41
 583 -27 583 -27 493 -26 c 128,-1,42
 403 -25 403 -25 333 -25 c 0,43,44
 284 -25 284 -25 210 -28 c 0,45,46
 134 -31 134 -31 96 -31 c 0,47,48
 85 -31 85 -31 76 -22 c 0,49,50
 60 -7 60 -7 55 24 c 0,51,52
 51 53 51 53 59 67 c 0,53,54
 64 77 64 77 77 77 c 0,55,56
 105 77 105 77 154 86 c 0,57,58
 167 88 167 88 176.5 91 c 128,-1,59
 186 94 186 94 189 96 c 0,60,61
 191 129 191 129 173 232 c 2,62,-1
 23 1086 l 2,63,64
 5 1189 5 1189 -9 1222 c 0,65,66
 -14 1224 -14 1224 -24.5 1227 c 128,-1,67
 -35 1230 -35 1230 -49 1232 c 0,68,69
 -100 1241 -100 1241 -128 1241 c 0,70,71
 -140 1241 -140 1241 -150 1251 c 0,72,73
 -156 1257 -156 1257 -159.5 1264.5 c 128,-1,74
 -163 1272 -163 1272 -165 1278.5 c 128,-1,75
 -167 1285 -167 1285 -169 1294 c 0,76,77
 -175 1325 -175 1325 -164 1340 c 0,78,79
 -158 1349 -158 1349 -146 1349 c 0,80,81
 60 1339 60 1339 91 1339 c 0,82,83
 100 1339 100 1339 128.5 1340 c 128,-1,84
 157 1341 157 1341 206 1343.5 c 128,-1,85
 255 1346 255 1346 322 1349 c 0,86,87
 334 1350 334 1350 343 1340 c 0,88,89
 359 1325 359 1325 364 1294 c 0,90,91
 365 1285 365 1285 365.5 1278.5 c 128,-1,92
 366 1272 366 1272 365 1264.5 c 128,-1,93
 364 1257 364 1257 360 1251 c 0,94,95
 354 1241 354 1241 342 1241 c 0,96,97
 337 1241 337 1241 330.5 1240.5 c 128,-1,98
 324 1240 324 1240 317 1239.5 c 128,-1,99
 310 1239 310 1239 302 1238 c 128,-1,100
 294 1237 294 1237 285 1235.5 c 128,-1,101
 276 1234 276 1234 266 1232 c 0,102,103
 257 1230 257 1230 249 1228.5 c 128,-1,104
 241 1227 241 1227 236.5 1225.5 c 128,-1,105
 232 1224 232 1224 230 1222 c 0,106,107
 229 1207 229 1207 232 1180 c 128,-1,108
 235 1153 235 1153 241 1116 c 2,109,-1
 397 232 l 2,0,1
EndSplineSet
EndChar

StartChar: M
Encoding: 77 77 47
Width: 1814
GlyphClass: 2
Flags: W
LayerCount: 4
Fore
SplineSet
859 340 m 1,0,1
 1011 1057 1011 1057 1019 1093 c 2,2,-1
 1065 1333 l 2,3,4
 1068 1351 1068 1351 1087 1349 c 0,5,6
 1216 1341 1216 1341 1245 1341 c 0,7,8
 1368 1341 1368 1341 1465 1349 c 0,9,10
 1475 1350 1475 1350 1484 1343.5 c 128,-1,11
 1493 1337 1493 1337 1496 1327 c 2,12,-1
 1512 1269 l 2,13,14
 1515 1259 1515 1259 1510.5 1250 c 128,-1,15
 1506 1241 1506 1241 1492 1241 c 0,16,17
 1480 1241 1480 1241 1461 1238.5 c 128,-1,18
 1442 1236 1442 1236 1418 1230 c 0,19,20
 1410 1228 1410 1228 1402.5 1226 c 128,-1,21
 1395 1224 1395 1224 1390 1222.5 c 128,-1,22
 1385 1221 1385 1221 1381.5 1219.5 c 128,-1,23
 1378 1218 1378 1218 1376 1216 c 0,24,25
 1373 1197 1373 1197 1380 1154 c 0,26,27
 1386 1123 1386 1123 1397.5 1069.5 c 128,-1,28
 1409 1016 1409 1016 1424 939 c 0,29,30
 1455 784 1455 784 1496 577 c 0,31,32
 1517 473 1517 473 1531.5 399 c 128,-1,33
 1546 325 1546 325 1555 281 c 0,34,35
 1582 147 1582 147 1609 96 c 0,36,37
 1613 94 1613 94 1623.5 90.5 c 128,-1,38
 1634 87 1634 87 1649 85 c 0,39,40
 1700 77 1700 77 1729 77 c 0,41,42
 1736 77 1736 77 1742.5 73.5 c 128,-1,43
 1749 70 1749 70 1753 65 c 0,44,45
 1767 47 1767 47 1771 21 c 0,46,47
 1775 -3 1775 -3 1773 -15 c 0,48,49
 1770 -32 1770 -32 1751 -31 c 0,50,51
 1651 -26 1651 -26 1591 -23.5 c 128,-1,52
 1531 -21 1531 -21 1513 -21 c 0,53,54
 1473 -21 1473 -21 1436 -22 c 0,55,56
 1400 -23 1400 -23 1353 -27 c 0,57,58
 1306 -30 1306 -30 1275 -31 c 0,59,60
 1264 -31 1264 -31 1255 -24 c 0,61,62
 1250 -20 1250 -20 1247 -15.5 c 128,-1,63
 1244 -11 1244 -11 1242.5 -7 c 128,-1,64
 1241 -3 1241 -3 1239.5 1.5 c 128,-1,65
 1238 6 1238 6 1237.5 10 c 128,-1,66
 1237 14 1237 14 1236 18 c 0,67,68
 1234 30 1234 30 1233.5 41 c 128,-1,69
 1233 52 1233 52 1235 61 c 0,70,71
 1236 68 1236 68 1242 72.5 c 128,-1,72
 1248 77 1248 77 1255 77 c 0,73,74
 1277 77 1277 77 1320 83 c 0,75,76
 1356 88 1356 88 1368 95 c 1,77,78
 1373 110 1373 110 1364 158 c 0,79,80
 1362 171 1362 171 1352 214 c 0,81,82
 1342 258 1342 258 1340 274 c 0,83,84
 1222 852 1222 852 1169 1099 c 1,85,86
 1125 902 1125 902 945 89 c 0,87,88
 945 88 945 88 944 88 c 0,89,90
 937 64 937 64 918 24 c 0,91,92
 910 7 910 7 905 -1 c 128,-1,93
 900 -9 900 -9 891 -17.5 c 128,-1,94
 882 -26 882 -26 871 -29 c 0,95,96
 866 -30 866 -30 862.5 -30 c 128,-1,97
 859 -30 859 -30 856 -29 c 128,-1,98
 853 -28 853 -28 851 -27.5 c 128,-1,99
 849 -27 849 -27 845.5 -25.5 c 128,-1,100
 842 -24 842 -24 839 -24 c 0,101,102
 828 -20 828 -20 822 -10 c 2,103,-1
 192 1049 l 1,104,105
 215 901 215 901 242 725 c 0,106,107
 280 474 280 474 303 314 c 0,108,109
 309 276 309 276 313.5 245 c 128,-1,110
 318 214 318 214 321 194 c 128,-1,111
 324 174 324 174 325.5 162.5 c 128,-1,112
 327 151 327 151 328 150 c 0,113,114
 331 132 331 132 334.5 119 c 128,-1,115
 338 106 338 106 342 99 c 1,116,117
 354 91 354 91 392 85 c 0,118,119
 450 77 450 77 481 77 c 0,120,121
 492 77 492 77 502 68 c 0,122,123
 518 53 518 53 523 23 c 0,124,125
 524 16 524 16 524.5 12 c 128,-1,126
 525 8 525 8 525.5 3 c 128,-1,127
 526 -2 526 -2 526 -6.5 c 128,-1,128
 526 -11 526 -11 525 -15 c 0,129,130
 522 -32 522 -32 504 -31 c 0,131,132
 495 -31 495 -31 484 -30.5 c 128,-1,133
 473 -30 473 -30 461 -29 c 128,-1,134
 449 -28 449 -28 435 -27 c 0,135,136
 422 -26 422 -26 409 -25 c 128,-1,137
 396 -24 396 -24 384.5 -23.5 c 128,-1,138
 373 -23 373 -23 362 -22 c 0,139,140
 329 -21 329 -21 291 -21 c 0,141,142
 283 -21 283 -21 275 -21 c 128,-1,143
 267 -21 267 -21 259.5 -21 c 128,-1,144
 252 -21 252 -21 244.5 -21.5 c 128,-1,145
 237 -22 237 -22 229.5 -22 c 128,-1,146
 222 -22 222 -22 216 -22 c 0,147,148
 181 -23 181 -23 136 -27 c 0,149,150
 91 -30 91 -30 59 -31 c 0,151,152
 48 -31 48 -31 39 -24 c 0,153,154
 34 -20 34 -20 31 -15.5 c 128,-1,155
 28 -11 28 -11 26.5 -7 c 128,-1,156
 25 -3 25 -3 23.5 1.5 c 128,-1,157
 22 6 22 6 21.5 10 c 128,-1,158
 21 14 21 14 20 18 c 0,159,160
 15 43 15 43 19 61 c 0,161,162
 20 68 20 68 26 72.5 c 128,-1,163
 32 77 32 77 39 77 c 0,164,165
 49 77 49 77 62 78 c 128,-1,166
 75 79 75 79 91 81 c 128,-1,167
 107 83 107 83 125 86 c 0,168,169
 168 93 168 93 177 103 c 0,170,171
 183 114 183 114 184 135.5 c 128,-1,172
 185 157 185 157 181 189 c 0,173,174
 77 935 77 935 40 1144 c 0,175,176
 38 1154 38 1154 36 1163.5 c 128,-1,177
 34 1173 34 1173 32.5 1180.5 c 128,-1,178
 31 1188 31 1188 29 1194.5 c 128,-1,179
 27 1201 27 1201 25.5 1206 c 128,-1,180
 24 1211 24 1211 22 1214 c 0,181,182
 10 1221 10 1221 -23 1229 c 0,183,184
 -41 1233 -41 1233 -56 1235.5 c 128,-1,185
 -71 1238 -71 1238 -82 1239.5 c 128,-1,186
 -93 1241 -93 1241 -100 1241 c 0,187,188
 -119 1241 -119 1241 -128.5 1254 c 128,-1,189
 -138 1267 -138 1267 -137 1280 c 2,190,-1
 -137 1294 l 2,191,192
 -138 1298 -138 1298 -139.5 1303.5 c 128,-1,193
 -141 1309 -141 1309 -141.5 1313 c 128,-1,194
 -142 1317 -142 1317 -142.5 1322 c 128,-1,195
 -143 1327 -143 1327 -141 1332 c 128,-1,196
 -139 1337 -139 1337 -135 1342 c 0,197,198
 -128 1350 -128 1350 -117 1349 c 0,199,200
 -81 1347 -81 1347 -46 1344 c 0,201,202
 -10 1342 -10 1342 19 1340 c 0,203,204
 48 1339 48 1339 89 1339 c 0,205,206
 140 1339 140 1339 247 1349 c 0,207,208
 253 1350 253 1350 258.5 1347.5 c 128,-1,209
 264 1345 264 1345 268.5 1341 c 128,-1,210
 273 1337 273 1337 276 1332 c 0,211,212
 302 1279 302 1279 406 1104 c 0,213,214
 511 928 511 928 655 685 c 0,215,216
 795 451 795 451 875 312 c 2,217,-1
 859 340 l 1,0,1
EndSplineSet
EndChar

StartChar: N
Encoding: 78 78 48
Width: 1552
GlyphClass: 2
Flags: W
LayerCount: 4
Fore
SplineSet
49 1345 m 0,0,1
 144 1345 144 1345 198 1349 c 0,2,3
 213 1350 213 1350 223 1337 c 0,4,5
 286 1260 286 1260 661 884 c 0,6,7
 973 571 973 571 1125 408 c 1,8,-1
 1005 1090 l 2,9,10
 994 1151 994 1151 987 1176 c 0,11,12
 985 1183 985 1183 982 1190 c 128,-1,13
 979 1197 979 1197 975 1203 c 128,-1,14
 971 1209 971 1209 967 1214 c 0,15,16
 955 1222 955 1222 914 1231 c 0,17,18
 857 1243 857 1243 831 1243 c 0,19,20
 825 1243 825 1243 818.5 1246 c 128,-1,21
 812 1249 812 1249 808 1254 c 0,22,23
 794 1270 794 1270 789 1297 c 0,24,25
 784 1323 784 1323 788 1337 c 0,26,27
 793 1352 793 1352 809 1351 c 0,28,29
 875 1348 875 1348 924 1345.5 c 128,-1,30
 973 1343 973 1343 1001.5 1342 c 128,-1,31
 1030 1341 1030 1341 1040 1341 c 0,32,33
 1080 1341 1080 1341 1111 1342 c 0,34,35
 1142 1343 1142 1343 1179 1347 c 0,36,37
 1217 1350 1217 1350 1251 1351 c 0,38,39
 1266 1351 1266 1351 1275 1339 c 0,40,41
 1303 1303 1303 1303 1291 1258 c 0,42,43
 1289 1251 1289 1251 1283 1247 c 128,-1,44
 1277 1243 1277 1243 1271 1243 c 0,45,46
 1259 1243 1259 1243 1238.5 1240 c 128,-1,47
 1218 1237 1218 1237 1190 1231 c 0,48,49
 1181 1229 1181 1229 1173.5 1227 c 128,-1,50
 1166 1225 1166 1225 1160.5 1223.5 c 128,-1,51
 1155 1222 1155 1222 1150.5 1220 c 128,-1,52
 1146 1218 1146 1218 1144 1216.5 c 128,-1,53
 1142 1215 1142 1215 1141 1215 c 0,54,55
 1137 1206 1137 1206 1135.5 1197 c 128,-1,56
 1134 1188 1134 1188 1135 1177 c 0,57,58
 1136 1152 1136 1152 1146 1092 c 2,59,-1
 1290 278 l 2,60,61
 1300 221 1300 221 1309 171 c 128,-1,62
 1318 121 1318 121 1326.5 79 c 128,-1,63
 1335 37 1335 37 1342 3 c 0,64,65
 1343 0 1343 0 1343 -2 c 0,66,67
 1343 -35 1343 -35 1298 -35 c 0,68,69
 1281 -35 1281 -35 1252 -21 c 0,70,71
 1225 -8 1225 -8 1198 21 c 2,72,-1
 187 1066 l 1,73,-1
 334 230 l 2,74,75
 345 169 345 169 352 144 c 0,76,77
 358 123 358 123 372 106 c 1,78,79
 384 98 384 98 424 89 c 0,80,81
 480 77 480 77 506 77 c 0,82,83
 519 77 519 77 529 66 c 0,84,85
 543 50 543 50 549 23 c 0,86,87
 554 -3 554 -3 549 -17 c 0,88,89
 544 -32 544 -32 528 -31 c 0,90,91
 327 -21 327 -21 300 -21 c 0,92,93
 260 -21 260 -21 229 -22 c 0,94,95
 198 -23 198 -23 161 -27 c 0,96,97
 123 -30 123 -30 88 -31 c 0,98,99
 73 -31 73 -31 64 -19 c 0,100,101
 36 17 36 17 48 62 c 0,102,103
 52 77 52 77 68 77 c 0,104,105
 94 77 94 77 149 89 c 0,106,107
 158 91 158 91 165.5 93 c 128,-1,108
 173 95 173 95 178.5 96.5 c 128,-1,109
 184 98 184 98 188.5 100 c 128,-1,110
 193 102 193 102 195 103.5 c 128,-1,111
 197 105 197 105 198 105 c 0,112,113
 205 122 205 122 204 143 c 0,114,115
 203 168 203 168 193 228 c 2,116,-1
 40 1096 l 2,117,118
 30 1155 30 1155 22 1181 c 0,119,120
 16 1202 16 1202 2 1219 c 0,121,122
 0 1220 0 1220 -4 1221.5 c 128,-1,123
 -8 1223 -8 1223 -15 1225.5 c 128,-1,124
 -22 1228 -22 1228 -32 1230.5 c 128,-1,125
 -42 1233 -42 1233 -53 1235 c 0,126,127
 -112 1247 -112 1247 -138 1247 c 0,128,129
 -145 1247 -145 1247 -152 1251.5 c 128,-1,130
 -159 1256 -159 1256 -163 1262 c 0,131,132
 -191 1307 -191 1307 -176 1343 c 0,133,134
 -171 1356 -171 1356 -156 1355 c 0,135,136
 -145 1355 -145 1355 -130 1354 c 128,-1,137
 -115 1353 -115 1353 -96.5 1352 c 128,-1,138
 -78 1351 -78 1351 -55 1349 c 0,139,140
 12 1345 12 1345 49 1345 c 0,0,1
EndSplineSet
EndChar

StartChar: O
Encoding: 79 79 49
Width: 1496
GlyphClass: 2
Flags: W
LayerCount: 4
Fore
SplineSet
497 1241 m 0,0,1
 416 1241 416 1241 355 1210 c 0,2,3
 324 1194 324 1194 300 1173.5 c 128,-1,4
 276 1153 276 1153 259 1128 c 0,5,6
 223 1076 223 1076 204 1005 c 0,7,8
 194 969 194 969 189 932.5 c 128,-1,9
 184 896 184 896 184 857 c 0,10,11
 183 780 183 780 198 700 c 0,12,13
 208 643 208 643 225.5 586.5 c 128,-1,14
 243 530 243 530 269 474 c 0,15,16
 320 362 320 362 393 271 c 0,17,18
 465 182 465 182 563 127 c 0,19,20
 612 100 612 100 662 86.5 c 128,-1,21
 712 73 712 73 765 73 c 0,22,23
 806 73 806 73 841.5 81 c 128,-1,24
 877 89 877 89 908 104 c 0,25,26
 970 135 970 135 1005 187 c 0,27,28
 1041 240 1041 240 1060 311 c 0,29,30
 1080 383 1080 383 1080 459 c 0,31,32
 1080 537 1080 537 1066 618 c 0,33,34
 1059 656 1059 656 1049 694 c 128,-1,35
 1039 732 1039 732 1025 769.5 c 128,-1,36
 1011 807 1011 807 994 844 c 0,37,38
 968 900 968 900 937 950 c 128,-1,39
 906 1000 906 1000 869 1045 c 0,40,41
 797 1133 797 1133 699 1187 c 0,42,43
 650 1214 650 1214 600 1227.5 c 128,-1,44
 550 1241 550 1241 497 1241 c 0,0,1
506 1359 m 0,45,46
 642 1359 642 1359 775 1307 c 0,47,48
 908 1255 908 1255 1017 1163 c 0,49,50
 1053 1132 1053 1132 1086 1097 c 128,-1,51
 1119 1062 1119 1062 1148 1022.5 c 128,-1,52
 1177 983 1177 983 1203 939 c 0,53,54
 1242 873 1242 873 1268 802 c 128,-1,55
 1294 731 1294 731 1307 656 c 0,56,57
 1320 585 1320 585 1318.5 517 c 128,-1,58
 1317 449 1317 449 1301 384 c 0,59,60
 1270 254 1270 254 1194.5 160 c 128,-1,61
 1119 66 1119 66 1004 11 c 0,62,63
 889 -45 889 -45 754 -45 c 0,64,65
 618 -45 618 -45 485 8 c 0,66,67
 353 60 353 60 245.5 151.5 c 128,-1,68
 138 243 138 243 61 374.5 c 128,-1,69
 -16 506 -16 506 -43 656 c 0,70,71
 -68 799 -68 799 -37 929 c 0,72,73
 -6 1059 -6 1059 68.5 1153 c 128,-1,74
 143 1247 143 1247 256 1303 c 0,75,76
 371 1359 371 1359 506 1359 c 0,45,46
EndSplineSet
EndChar

StartChar: P
Encoding: 80 80 50
Width: 1096
GlyphClass: 2
Flags: W
LayerCount: 4
Fore
SplineSet
892 958 m 0,0,1
 926 765 926 765 817 647 c 0,2,3
 709 531 709 531 502 531 c 0,4,5
 482 531 482 531 465 533 c 128,-1,6
 448 535 448 535 432 539 c 128,-1,7
 416 543 416 543 402 550 c 0,8,9
 401 550 401 550 400 550.5 c 0,10,-1
 399 551 l 0,11,12
 385 559 385 559 374.5 569.5 c 128,-1,13
 364 580 364 580 357 592 c 0,14,15
 351 604 351 604 348 616 c 0,16,17
 347 623 347 623 349 630 c 0,18,19
 350 632 350 632 350.5 634.5 c 128,-1,20
 351 637 351 637 352.5 639 c 128,-1,21
 354 641 354 641 355 643 c 0,22,23
 365 655 365 655 384 650 c 0,24,25
 434 637 434 637 456 637 c 0,26,27
 569 637 569 637 628 712 c 0,28,29
 688 788 688 788 664 924 c 0,30,31
 651 996 651 996 622 1052 c 128,-1,32
 593 1108 593 1108 547 1148 c 0,33,34
 502 1188 502 1188 442 1208.5 c 128,-1,35
 382 1229 382 1229 305 1229 c 0,36,37
 285 1229 285 1229 268.5 1227.5 c 128,-1,38
 252 1226 252 1226 242.5 1224.5 c 128,-1,39
 233 1223 233 1223 229 1221 c 0,40,41
 228 1213 228 1213 229.5 1195 c 128,-1,42
 231 1177 231 1177 235.5 1148 c 128,-1,43
 240 1119 240 1119 246 1084 c 2,44,-1
 396 232 l 2,45,46
 405 181 405 181 413.5 145.5 c 128,-1,47
 422 110 422 110 428 96 c 1,48,49
 440 91 440 91 467 86 c 0,50,51
 518 77 518 77 546 77 c 0,52,53
 558 77 558 77 568 67 c 0,54,55
 581 53 581 53 587 24 c 0,56,57
 590 9 590 9 589.5 -2 c 128,-1,58
 589 -13 589 -13 583 -22 c 0,59,60
 580 -26 580 -26 575 -28.5 c 128,-1,61
 570 -31 570 -31 564 -31 c 0,62,63
 358 -21 358 -21 330 -21 c 0,64,65
 300 -21 300 -21 97 -31 c 0,66,67
 91 -31 91 -31 85.5 -29 c 128,-1,68
 80 -27 80 -27 75 -22 c 0,69,70
 59 -7 59 -7 54 24 c 0,71,72
 50 53 50 53 58 67 c 0,73,74
 63 77 63 77 76 77 c 0,75,76
 104 77 104 77 153 86 c 0,77,78
 162 88 162 88 169.5 89.5 c 128,-1,79
 177 91 177 91 181.5 92.5 c 128,-1,80
 186 94 186 94 188 96 c 0,81,82
 190 129 190 129 172 232 c 2,83,-1
 22 1086 l 2,84,85
 13 1137 13 1137 4.5 1172.5 c 128,-1,86
 -4 1208 -4 1208 -10 1222 c 0,87,88
 -15 1224 -15 1224 -25.5 1227 c 128,-1,89
 -36 1230 -36 1230 -50 1232 c 0,90,91
 -101 1241 -101 1241 -129 1241 c 0,92,93
 -141 1241 -141 1241 -151 1251 c 0,94,95
 -155 1256 -155 1256 -158 1261 c 128,-1,96
 -161 1266 -161 1266 -163.5 1272 c 128,-1,97
 -166 1278 -166 1278 -167 1283 c 128,-1,98
 -168 1288 -168 1288 -170 1294 c 0,99,100
 -176 1325 -176 1325 -165 1340 c 0,101,102
 -159 1349 -159 1349 -147 1349 c 0,103,104
 59 1339 59 1339 90 1339 c 0,105,106
 101 1339 101 1339 118.5 1339 c 128,-1,107
 136 1339 136 1339 160.5 1339.5 c 128,-1,108
 185 1340 185 1340 216 1341 c 128,-1,109
 247 1342 247 1342 274.5 1342.5 c 128,-1,110
 302 1343 302 1343 327 1343 c 128,-1,111
 352 1343 352 1343 373 1343 c 0,112,113
 430 1343 430 1343 485.5 1332.5 c 128,-1,114
 541 1322 541 1322 595 1301 c 0,115,116
 649 1279 649 1279 697.5 1246 c 128,-1,117
 746 1213 746 1213 787 1168 c 0,118,119
 871 1077 871 1077 892 958 c 0,0,1
EndSplineSet
EndChar

StartChar: Q
Encoding: 81 81 51
Width: 1494
GlyphClass: 2
Flags: W
LayerCount: 4
Fore
SplineSet
497 1241 m 0,0,1
 416 1241 416 1241 355 1210 c 0,2,3
 324 1194 324 1194 300 1173.5 c 128,-1,4
 276 1153 276 1153 259 1128 c 0,5,6
 223 1076 223 1076 204 1005 c 0,7,8
 194 969 194 969 189 932.5 c 128,-1,9
 184 896 184 896 184 857 c 0,10,11
 183 780 183 780 198 700 c 0,12,13
 208 643 208 643 225.5 586.5 c 128,-1,14
 243 530 243 530 269 474 c 0,15,16
 320 362 320 362 393 271 c 0,17,18
 465 182 465 182 563 127 c 0,19,20
 612 100 612 100 662 86.5 c 128,-1,21
 712 73 712 73 765 73 c 0,22,23
 806 73 806 73 841.5 81 c 128,-1,24
 877 89 877 89 908 104 c 0,25,26
 970 135 970 135 1005 187 c 0,27,28
 1041 240 1041 240 1060 311 c 0,29,30
 1080 383 1080 383 1080 459 c 0,31,32
 1080 537 1080 537 1066 618 c 0,33,34
 1059 656 1059 656 1049 694 c 128,-1,35
 1039 732 1039 732 1025 769.5 c 128,-1,36
 1011 807 1011 807 994 844 c 0,37,38
 968 900 968 900 937 950 c 128,-1,39
 906 1000 906 1000 869 1045 c 0,40,41
 797 1133 797 1133 699 1187 c 0,42,43
 650 1214 650 1214 600 1227.5 c 128,-1,44
 550 1241 550 1241 497 1241 c 0,0,1
506 1359 m 0,45,46
 642 1359 642 1359 775 1307 c 0,47,48
 908 1255 908 1255 1017 1163 c 0,49,50
 1053 1132 1053 1132 1086 1097 c 128,-1,51
 1119 1062 1119 1062 1148 1022.5 c 128,-1,52
 1177 983 1177 983 1203 939 c 0,53,54
 1242 873 1242 873 1268 802 c 128,-1,55
 1294 731 1294 731 1307 656 c 0,56,57
 1328 539 1328 539 1312.5 434 c 128,-1,58
 1297 329 1297 329 1245 236 c 0,59,60
 1215 183 1215 183 1177 139.5 c 128,-1,61
 1139 96 1139 96 1093.5 62 c 128,-1,62
 1048 28 1048 28 994 4 c 1,63,64
 1030 -14 1030 -14 1069 -35 c 0,65,66
 1139 -73 1139 -73 1176 -91 c 0,67,68
 1187 -97 1187 -97 1201 -102.5 c 128,-1,69
 1215 -108 1215 -108 1231.5 -113 c 128,-1,70
 1248 -118 1248 -118 1267 -123 c 0,71,72
 1324 -137 1324 -137 1394 -137 c 0,73,74
 1413 -137 1413 -137 1431 -136.5 c 128,-1,75
 1449 -136 1449 -136 1463.5 -135 c 128,-1,76
 1478 -134 1478 -134 1490 -132.5 c 128,-1,77
 1502 -131 1502 -131 1511.5 -129.5 c 128,-1,78
 1521 -128 1521 -128 1527 -126 c 0,79,80
 1528 -126 1528 -126 1530.5 -125.5 c 128,-1,81
 1533 -125 1533 -125 1534 -125 c 0,82,83
 1575 -125 1575 -125 1596 -150 c 0,84,85
 1597 -151 1597 -151 1597 -153 c 0,86,87
 1598 -154 l 0,88,89
 1600 -157 1600 -157 1601 -158.5 c 128,-1,90
 1602 -160 1602 -160 1603 -163 c 128,-1,91
 1604 -166 1604 -166 1605 -170 c 0,92,93
 1608 -185 1608 -185 1596 -192 c 0,94,95
 1552 -218 1552 -218 1511 -237.5 c 128,-1,96
 1470 -257 1470 -257 1434 -270 c 0,97,98
 1359 -297 1359 -297 1270 -297 c 0,99,100
 1206 -297 1206 -297 1137 -274 c 0,101,102
 1069 -252 1069 -252 1003 -217 c 0,103,104
 939 -183 939 -183 874 -146 c 0,105,106
 842 -128 842 -128 807 -110.5 c 128,-1,107
 772 -93 772 -93 732 -76 c 0,108,109
 706 -65 706 -65 681.5 -55 c 128,-1,110
 657 -45 657 -45 632.5 -37.5 c 128,-1,111
 608 -30 608 -30 584 -24 c 0,112,113
 352 32 352 32 177 217.5 c 128,-1,114
 2 403 2 403 -43 656 c 0,115,116
 -68 799 -68 799 -37 929 c 0,117,118
 -6 1059 -6 1059 68.5 1153 c 128,-1,119
 143 1247 143 1247 256 1303 c 0,120,121
 371 1359 371 1359 506 1359 c 0,45,46
EndSplineSet
EndChar

StartChar: R
Encoding: 82 82 52
Width: 1242
GlyphClass: 2
Flags: W
LayerCount: 4
Fore
SplineSet
373 1343 m 0,0,1
 385 1343 385 1343 397.5 1342.5 c 128,-1,2
 410 1342 410 1342 423 1340.5 c 128,-1,3
 436 1339 436 1339 448.5 1337 c 128,-1,4
 461 1335 461 1335 474 1332.5 c 128,-1,5
 487 1330 487 1330 499.5 1326.5 c 128,-1,6
 512 1323 512 1323 525 1319 c 0,7,8
 564 1307 564 1307 601.5 1290.5 c 128,-1,9
 639 1274 639 1274 675 1252 c 0,10,11
 712 1229 712 1229 743.5 1199.5 c 128,-1,12
 775 1170 775 1170 801 1134 c 0,13,14
 819 1110 819 1110 833 1083.5 c 128,-1,15
 847 1057 847 1057 856 1029 c 128,-1,16
 865 1001 865 1001 871 972 c 0,17,18
 881 916 881 916 867.5 862 c 128,-1,19
 854 808 854 808 819 757 c 0,20,21
 758 670 758 670 670 629 c 1,22,23
 830 426 830 426 1054 187 c 0,24,25
 1105 132 1105 132 1156 107 c 0,26,27
 1172 99 1172 99 1191 93 c 128,-1,28
 1210 87 1210 87 1233 83 c 128,-1,29
 1256 79 1256 79 1281 77 c 0,30,31
 1295 76 1295 76 1304 64 c 0,32,33
 1317 46 1317 46 1318 17 c 0,34,35
 1319 -8 1319 -8 1316 -17 c 0,36,37
 1312 -31 1312 -31 1296 -31 c 0,38,39
 1097 -31 1097 -31 1020 -6 c 0,40,41
 947 19 947 19 903 53 c 0,42,43
 892 61 892 61 881.5 70.5 c 128,-1,44
 871 80 871 80 861 91 c 0,45,46
 828 127 828 127 699 279 c 0,47,48
 570 431 570 431 458 566 c 0,49,50
 453 571 453 571 443.5 575 c 128,-1,51
 434 579 434 579 417 579 c 2,52,-1
 336 579 l 1,53,-1
 397 232 l 2,54,55
 406 181 406 181 414.5 145.5 c 128,-1,56
 423 110 423 110 429 96 c 1,57,58
 441 91 441 91 468 86 c 0,59,60
 519 77 519 77 547 77 c 0,61,62
 559 77 559 77 569 67 c 0,63,64
 582 53 582 53 588 24 c 0,65,66
 591 9 591 9 590.5 -2 c 128,-1,67
 590 -13 590 -13 584 -22 c 0,68,69
 581 -26 581 -26 576 -28.5 c 128,-1,70
 571 -31 571 -31 565 -31 c 0,71,72
 359 -21 359 -21 331 -21 c 0,73,74
 301 -21 301 -21 98 -31 c 0,75,76
 92 -31 92 -31 86.5 -29 c 128,-1,77
 81 -27 81 -27 76 -22 c 0,78,79
 60 -7 60 -7 55 24 c 0,80,81
 51 53 51 53 59 67 c 0,82,83
 64 77 64 77 77 77 c 0,84,85
 105 77 105 77 154 86 c 0,86,87
 167 88 167 88 176 90.5 c 128,-1,88
 185 93 185 93 189 96 c 0,89,90
 190 125 190 125 173 232 c 2,91,-1
 22 1086 l 2,92,93
 13 1137 13 1137 4.5 1172.5 c 128,-1,94
 -4 1208 -4 1208 -10 1222 c 0,95,96
 -15 1224 -15 1224 -25.5 1227 c 128,-1,97
 -36 1230 -36 1230 -50 1232 c 0,98,99
 -101 1241 -101 1241 -129 1241 c 0,100,101
 -141 1241 -141 1241 -151 1251 c 0,102,103
 -155 1256 -155 1256 -158 1261 c 128,-1,104
 -161 1266 -161 1266 -163.5 1272 c 128,-1,105
 -166 1278 -166 1278 -167 1283 c 128,-1,106
 -168 1288 -168 1288 -170 1294 c 0,107,108
 -176 1325 -176 1325 -165 1340 c 0,109,110
 -159 1349 -159 1349 -147 1349 c 0,111,112
 59 1339 59 1339 90 1339 c 0,113,114
 101 1339 101 1339 118.5 1339 c 128,-1,115
 136 1339 136 1339 160.5 1339.5 c 128,-1,116
 185 1340 185 1340 216 1341 c 0,117,118
 247 1342 247 1342 274.5 1342.5 c 128,-1,119
 302 1343 302 1343 327 1343 c 128,-1,120
 352 1343 352 1343 373 1343 c 0,0,1
637 954 m 0,121,122
 625 1020 625 1020 599 1070 c 128,-1,123
 573 1120 573 1120 533 1157 c 0,124,125
 507 1181 507 1181 474 1196.5 c 128,-1,126
 441 1212 441 1212 398.5 1220.5 c 128,-1,127
 356 1229 356 1229 305 1229 c 0,128,129
 285 1229 285 1229 268.5 1227.5 c 128,-1,130
 252 1226 252 1226 242.5 1224.5 c 128,-1,131
 233 1223 233 1223 229 1221 c 0,132,133
 227 1192 227 1192 246 1084 c 2,134,-1
 316 691 l 1,135,-1
 398 691 l 2,136,137
 512 691 512 691 585 765 c 0,138,139
 657 838 657 838 637 954 c 0,121,122
EndSplineSet
EndChar

StartChar: S
Encoding: 83 83 53
Width: 1004
GlyphClass: 2
Flags: W
LayerCount: 4
Fore
SplineSet
283 1357 m 0,0,1
 306 1357 306 1357 327.5 1355.5 c 128,-1,2
 349 1354 349 1354 369 1352 c 0,3,4
 410 1347 410 1347 438 1340 c 0,5,6
 464 1333 464 1333 514 1321 c 0,7,8
 563 1309 563 1309 600 1300 c 0,9,10
 608 1298 608 1298 614.5 1292.5 c 128,-1,11
 621 1287 621 1287 623 1280 c 0,12,13
 652 1192 652 1192 702 994 c 0,14,15
 710 967 710 967 680 954 c 0,16,17
 662 945 662 945 643 945 c 0,18,19
 619 945 619 945 601 960 c 0,20,21
 599 961 599 961 597.5 963 c 128,-1,22
 596 965 596 965 595 967 c 128,-1,23
 594 969 594 969 593 971 c 128,-1,24
 592 973 592 973 591 975 c 0,25,26
 587 989 587 989 580.5 1004.5 c 128,-1,27
 574 1020 574 1020 564 1038 c 0,28,29
 561 1043 561 1043 558.5 1047.5 c 128,-1,30
 556 1052 556 1052 553 1057 c 128,-1,31
 550 1062 550 1062 547 1067 c 128,-1,32
 544 1072 544 1072 540.5 1077 c 128,-1,33
 537 1082 537 1082 533 1087.5 c 128,-1,34
 529 1093 529 1093 525 1098 c 128,-1,35
 521 1103 521 1103 516 1109 c 0,36,37
 508 1118 508 1118 500.5 1126.5 c 128,-1,38
 493 1135 493 1135 485 1143.5 c 128,-1,39
 477 1152 477 1152 468.5 1159.5 c 128,-1,40
 460 1167 460 1167 452 1175 c 0,41,42
 419 1203 419 1203 375 1221 c 0,43,44
 354 1230 354 1230 332.5 1234.5 c 128,-1,45
 311 1239 311 1239 290 1239 c 0,46,47
 237 1239 237 1239 201 1221 c 0,48,49
 195 1218 195 1218 189.5 1214.5 c 128,-1,50
 184 1211 184 1211 179 1207.5 c 128,-1,51
 174 1204 174 1204 170 1200 c 128,-1,52
 166 1196 166 1196 162.5 1192 c 128,-1,53
 159 1188 159 1188 156 1183.5 c 128,-1,54
 153 1179 153 1179 150 1175 c 0,55,56
 134 1144 134 1144 130 1111 c 0,57,58
 128 1094 128 1094 128 1077 c 128,-1,59
 128 1060 128 1060 131 1042 c 0,60,61
 133 1033 133 1033 135 1025 c 128,-1,62
 137 1017 137 1017 140 1008.5 c 128,-1,63
 143 1000 143 1000 146 992 c 0,64,65
 157 968 157 968 169 949 c 0,66,67
 181 931 181 931 202 912 c 0,68,69
 213 902 213 902 223.5 893 c 128,-1,70
 234 884 234 884 242 877 c 0,71,72
 259 863 259 863 289 845 c 0,73,74
 320 826 320 826 340 814.5 c 128,-1,75
 360 803 360 803 395.5 784 c 128,-1,76
 431 765 431 765 451 753 c 0,77,78
 457 749 457 749 465.5 744.5 c 128,-1,79
 474 740 474 740 484.5 734.5 c 128,-1,80
 495 729 495 729 508 721 c 0,81,82
 548 699 548 699 573 685 c 0,83,84
 578 682 578 682 584 679 c 128,-1,85
 590 676 590 676 596 672 c 128,-1,86
 602 668 602 668 609 664 c 128,-1,87
 616 660 616 660 623 655.5 c 128,-1,88
 630 651 630 651 638 646 c 0,89,90
 651 638 651 638 663 630 c 128,-1,91
 675 622 675 622 685.5 614.5 c 128,-1,92
 696 607 696 607 705 600 c 0,93,94
 732 580 732 580 763 550 c 0,95,96
 780 535 780 535 793.5 520 c 128,-1,97
 807 505 807 505 818 490 c 0,98,99
 840 461 840 461 857 423 c 0,100,101
 875 385 875 385 882 346 c 0,102,103
 890 303 890 303 887.5 263 c 128,-1,104
 885 223 885 223 873 185 c 0,105,106
 849 111 849 111 794 61 c 0,107,108
 741 11 741 11 667 -17 c 0,109,110
 630 -31 630 -31 590 -38 c 128,-1,111
 550 -45 550 -45 508 -45 c 0,112,113
 459 -45 459 -45 402 -38 c 0,114,115
 345 -31 345 -31 307 -24 c 0,116,117
 269 -17 269 -17 211 -3 c 0,118,119
 154 10 154 10 133 13 c 0,120,121
 116 16 116 16 110 33 c 0,122,123
 80 113 80 113 48 217 c 0,124,125
 16 322 16 322 12 348 c 0,126,127
 10 358 10 358 16 366 c 0,128,129
 42 397 42 397 80 397 c 0,130,131
 97 397 97 397 111 388 c 0,132,133
 114 386 114 386 116 384.5 c 128,-1,134
 118 383 118 383 120 381 c 128,-1,135
 122 379 122 379 123.5 376.5 c 128,-1,136
 125 374 125 374 126.5 372 c 128,-1,137
 128 370 128 370 129.5 367.5 c 128,-1,138
 131 365 131 365 132 362.5 c 128,-1,139
 133 360 133 360 134 358 c 0,140,141
 139 345 139 345 145.5 330.5 c 128,-1,142
 152 316 152 316 160 301 c 0,143,144
 165 291 165 291 172 279.5 c 128,-1,145
 179 268 179 268 188.5 254.5 c 128,-1,146
 198 241 198 241 209 226 c 0,147,148
 225 204 225 204 242.5 185.5 c 128,-1,149
 260 167 260 167 279 151 c 0,150,151
 316 119 316 119 372 96 c 0,152,153
 428 73 428 73 491 73 c 0,154,155
 538 73 538 73 573.5 87.5 c 128,-1,156
 609 102 609 102 635 132 c 0,157,158
 660 161 660 161 668.5 200.5 c 128,-1,159
 677 240 677 240 668 292 c 0,160,161
 667 299 667 299 665 305.5 c 128,-1,162
 663 312 663 312 661.5 318.5 c 128,-1,163
 660 325 660 325 657.5 331.5 c 128,-1,164
 655 338 655 338 653 344 c 0,165,166
 652 348 652 348 650.5 351 c 128,-1,167
 649 354 649 354 647.5 357 c 128,-1,168
 646 360 646 360 644.5 363 c 128,-1,169
 643 366 643 366 641.5 369 c 128,-1,170
 640 372 640 372 638.5 375 c 128,-1,171
 637 378 637 378 635.5 380.5 c 128,-1,172
 634 383 634 383 632 385 c 0,173,174
 627 393 627 393 619.5 401.5 c 128,-1,175
 612 410 612 410 603 419 c 0,176,177
 598 424 598 424 593.5 428 c 128,-1,178
 589 432 589 432 584.5 435.5 c 128,-1,179
 580 439 580 439 575.5 442.5 c 128,-1,180
 571 446 571 446 567 449 c 0,181,182
 551 461 551 461 525 477 c 0,183,184
 497 493 497 493 478 503 c 0,185,186
 458 513 458 513 423 530 c 0,187,188
 388 547 388 547 367 558 c 0,189,190
 321 583 321 583 308 590 c 0,191,192
 301 594 301 594 287 601.5 c 128,-1,193
 273 609 273 609 250 622 c 0,194,195
 204 648 204 648 187 660 c 0,196,197
 171 671 171 671 132 697 c 0,198,199
 91 725 91 725 72 745 c 0,200,201
 55 763 55 763 28 791 c 0,202,203
 -2 822 -2 822 -18 850 c 0,204,205
 -33 876 -33 876 -47 909 c 0,206,207
 -62 944 -62 944 -68 980 c 0,208,209
 -87 1090 -87 1090 -42 1178 c 0,210,211
 3 1265 3 1265 90 1312 c 0,212,213
 176 1357 176 1357 283 1357 c 0,0,1
EndSplineSet
EndChar

StartChar: T
Encoding: 84 84 54
Width: 1252
GlyphClass: 2
Flags: W
LayerCount: 4
Fore
SplineSet
778 1347 m 2,0,1
 798 1347 798 1347 833 1356 c 0,2,3
 868 1365 868 1365 882 1374 c 0,4,5
 896 1382 896 1382 910.5 1383.5 c 128,-1,6
 925 1385 925 1385 943 1378 c 0,7,8
 956 1372 956 1372 959 1359 c 0,9,10
 989 1255 989 1255 1017.5 1169.5 c 128,-1,11
 1046 1084 1046 1084 1071 1017 c 0,12,13
 1073 1013 1073 1013 1073 1009 c 128,-1,14
 1073 1005 1073 1005 1072 1001 c 128,-1,15
 1071 997 1071 997 1068 994 c 0,16,17
 1048 970 1048 970 1015 973 c 0,18,19
 982 974 982 974 964 994 c 0,20,21
 960 998 960 998 959 1003 c 0,22,23
 919 1109 919 1109 862 1171 c 0,24,25
 811 1227 811 1227 752 1227 c 2,26,-1
 523 1227 l 1,27,-1
 698 232 l 2,28,29
 707 181 707 181 715.5 145.5 c 128,-1,30
 724 110 724 110 730 96 c 1,31,32
 742 91 742 91 769 86 c 0,33,34
 820 77 820 77 848 77 c 0,35,36
 860 77 860 77 870 67 c 0,37,38
 883 53 883 53 889 24 c 0,39,40
 892 9 892 9 891.5 -2 c 128,-1,41
 891 -13 891 -13 885 -22 c 0,42,43
 882 -26 882 -26 877 -28.5 c 128,-1,44
 872 -31 872 -31 866 -31 c 0,45,46
 764 -26 764 -26 704.5 -23.5 c 128,-1,47
 645 -21 645 -21 632 -21 c 0,48,49
 602 -21 602 -21 399 -31 c 0,50,51
 387 -32 387 -32 377 -22 c 0,52,53
 361 -7 361 -7 356 24 c 0,54,55
 354 38 354 38 354.5 48 c 128,-1,56
 355 58 355 58 360 67 c 0,57,58
 366 77 366 77 378 77 c 0,59,60
 391 77 391 77 410.5 79 c 128,-1,61
 430 81 430 81 455 86 c 0,62,63
 481 91 481 91 490 96 c 1,64,65
 492 129 492 129 474 232 c 2,66,-1
 299 1227 l 1,67,-1
 66 1227 l 2,68,69
 46 1227 46 1227 29.5 1221 c 128,-1,70
 13 1215 13 1215 -0.5 1202.5 c 128,-1,71
 -14 1190 -14 1190 -25 1171 c 0,72,73
 -60 1109 -60 1109 -62 1003 c 0,74,75
 -62 1001 -62 1001 -62.5 999.5 c 128,-1,76
 -63 998 -63 998 -63.5 996.5 c 128,-1,77
 -64 995 -64 995 -65 994 c 0,78,79
 -71 983 -71 983 -83 978 c 128,-1,80
 -95 973 -95 973 -108 973 c 0,81,82
 -141 971 -141 971 -169 994 c 0,83,84
 -180 1004 -180 1004 -180 1017 c 0,85,86
 -176 1151 -176 1151 -188 1359 c 0,87,88
 -189 1373 -189 1373 -178 1379 c 0,89,90
 -174 1381 -174 1381 -170 1382 c 128,-1,91
 -166 1383 -166 1383 -162 1383.5 c 128,-1,92
 -158 1384 -158 1384 -153.5 1384 c 128,-1,93
 -149 1384 -149 1384 -144.5 1383.5 c 128,-1,94
 -140 1383 -140 1383 -136 1382 c 128,-1,95
 -132 1381 -132 1381 -127 1379.5 c 128,-1,96
 -122 1378 -122 1378 -117.5 1376 c 128,-1,97
 -113 1374 -113 1374 -109 1372 c 0,98,99
 -91 1363 -91 1363 -57 1355 c 0,100,101
 -24 1347 -24 1347 -4 1347 c 2,102,-1
 778 1347 l 2,0,1
EndSplineSet
EndChar

StartChar: U
Encoding: 85 85 55
Width: 1446
GlyphClass: 2
Flags: W
LayerCount: 4
Fore
SplineSet
59 1339 m 0,0,1
 68 1339 68 1339 96.5 1340 c 128,-1,2
 125 1341 125 1341 174 1343.5 c 128,-1,3
 223 1346 223 1346 290 1349 c 0,4,5
 302 1350 302 1350 311 1340 c 0,6,7
 327 1325 327 1325 332 1294 c 0,8,9
 334 1280 334 1280 334 1270 c 128,-1,10
 334 1260 334 1260 328 1251 c 0,11,12
 322 1241 322 1241 310 1241 c 0,13,14
 297 1241 297 1241 277.5 1239 c 128,-1,15
 258 1237 258 1237 234 1232 c 0,16,17
 208 1227 208 1227 198 1222 c 1,18,19
 197 1207 197 1207 201.5 1172 c 128,-1,20
 206 1137 206 1137 215 1086 c 2,21,-1
 302 592 l 2,22,23
 344 355 344 355 456 240 c 0,24,25
 561 133 561 133 730 133 c 0,26,27
 910 133 910 133 981.5 234.5 c 128,-1,28
 1053 336 1053 336 1019 548 c 2,29,-1
 924 1090 l 2,30,31
 913 1151 913 1151 906 1176 c 0,32,33
 900 1197 900 1197 886 1214 c 1,34,35
 874 1222 874 1222 837 1231 c 0,36,37
 784 1243 784 1243 758 1243 c 0,38,39
 745 1243 745 1243 735 1254 c 0,40,41
 721 1270 721 1270 716 1297 c 0,42,43
 711 1323 711 1323 715 1337 c 0,44,45
 720 1352 720 1352 736 1351 c 0,46,47
 937 1341 937 1341 959 1341 c 0,48,49
 999 1341 999 1341 1030 1342 c 0,50,51
 1061 1343 1061 1343 1098 1347 c 0,52,53
 1136 1350 1136 1350 1170 1351 c 0,54,55
 1185 1351 1185 1351 1194 1339 c 0,56,57
 1222 1303 1222 1303 1210 1258 c 0,58,59
 1208 1251 1208 1251 1202 1247 c 128,-1,60
 1196 1243 1196 1243 1190 1243 c 0,61,62
 1178 1243 1178 1243 1157.5 1240 c 128,-1,63
 1137 1237 1137 1237 1109 1231 c 0,64,65
 1069 1223 1069 1223 1060 1215 c 1,66,67
 1053 1198 1053 1198 1054 1177 c 0,68,69
 1055 1152 1055 1152 1065 1092 c 2,70,-1
 1161 552 l 2,71,72
 1214 254 1214 254 1093 110 c 0,73,74
 972 -33 972 -33 717 -33 c 0,75,76
 488 -33 488 -33 318 106 c 0,77,78
 137 252 137 252 93 502 c 2,79,-1
 -9 1086 l 2,80,81
 -27 1189 -27 1189 -41 1222 c 1,82,83
 -53 1227 -53 1227 -81 1232 c 0,84,85
 -132 1241 -132 1241 -160 1241 c 0,86,87
 -172 1241 -172 1241 -182 1251 c 0,88,89
 -190 1260 -190 1260 -194 1270 c 128,-1,90
 -198 1280 -198 1280 -201 1294 c 0,91,92
 -207 1325 -207 1325 -196 1340 c 0,93,94
 -193 1344 -193 1344 -188 1346.5 c 128,-1,95
 -183 1349 -183 1349 -178 1349 c 0,96,97
 29 1339 29 1339 59 1339 c 0,0,1
EndSplineSet
EndChar

StartChar: V
Encoding: 86 86 56
Width: 1276
GlyphClass: 2
Flags: W
LayerCount: 4
Fore
SplineSet
-17 1339 m 0,0,1
 6 1339 6 1339 68 1341.5 c 128,-1,2
 130 1344 130 1344 228 1349 c 0,3,4
 236 1349 236 1349 244 1344.5 c 128,-1,5
 252 1340 252 1340 256 1332 c 0,6,7
 263 1319 263 1319 267 1290 c 0,8,9
 267 1289 267 1289 267.5 1286.5 c 128,-1,10
 268 1284 268 1284 268.5 1281.5 c 128,-1,11
 269 1279 269 1279 269.5 1275.5 c 128,-1,12
 270 1272 270 1272 270 1268.5 c 128,-1,13
 270 1265 270 1265 269.5 1261.5 c 128,-1,14
 269 1258 269 1258 267.5 1255 c 128,-1,15
 266 1252 266 1252 263.5 1249 c 128,-1,16
 261 1246 261 1246 257 1244 c 128,-1,17
 253 1242 253 1242 248 1241 c 0,18,19
 246 1241 246 1241 244 1241 c 0,20,21
 243 1241 243 1241 240.5 1241 c 128,-1,22
 238 1241 238 1241 235.5 1240.5 c 128,-1,23
 233 1240 233 1240 229.5 1239.5 c 128,-1,24
 226 1239 226 1239 222 1239 c 0,25,26
 217 1238 217 1238 212 1237 c 128,-1,27
 207 1236 207 1236 200.5 1234.5 c 128,-1,28
 194 1233 194 1233 187 1230 c 0,29,30
 179 1227 179 1227 172.5 1223.5 c 128,-1,31
 166 1220 166 1220 162 1215 c 0,32,33
 158 1211 158 1211 157 1207.5 c 128,-1,34
 156 1204 156 1204 156 1200 c 0,35,36
 157 1195 157 1195 159.5 1187.5 c 128,-1,37
 162 1180 162 1180 165 1171.5 c 128,-1,38
 168 1163 168 1163 173 1152 c 128,-1,39
 178 1141 178 1141 183.5 1128.5 c 128,-1,40
 189 1116 189 1116 196.5 1102 c 128,-1,41
 204 1088 204 1088 212 1073 c 0,42,43
 462 612 462 612 620 325 c 1,44,45
 628 358 628 358 640 409 c 0,46,47
 670 536 670 536 713 725 c 128,-1,48
 756 914 756 914 786 1055 c 0,49,50
 795 1099 795 1099 797.5 1132.5 c 128,-1,51
 800 1166 800 1166 797 1186 c 0,52,53
 795 1198 795 1198 784 1208 c 0,54,55
 770 1220 770 1220 750 1226 c 0,56,57
 726 1233 726 1233 708 1236 c 0,58,59
 691 1239 691 1239 681 1239 c 0,60,61
 676 1239 676 1239 670.5 1241 c 128,-1,62
 665 1243 665 1243 661 1246 c 128,-1,63
 657 1249 657 1249 654.5 1251.5 c 128,-1,64
 652 1254 652 1254 649.5 1258 c 128,-1,65
 647 1262 647 1262 645.5 1264.5 c 128,-1,66
 644 1267 644 1267 643 1272 c 128,-1,67
 642 1277 642 1277 641.5 1279 c 128,-1,68
 641 1281 641 1281 640.5 1285.5 c 128,-1,69
 640 1290 640 1290 639 1290 c 0,70,71
 637 1300 637 1300 636.5 1307.5 c 128,-1,72
 636 1315 636 1315 638 1323.5 c 128,-1,73
 640 1332 640 1332 644 1338 c 0,74,75
 650 1347 650 1347 663 1347 c 0,76,77
 812 1339 812 1339 871 1339 c 0,78,79
 884 1339 884 1339 896.5 1339 c 128,-1,80
 909 1339 909 1339 919.5 1339.5 c 128,-1,81
 930 1340 930 1340 940 1340 c 0,82,83
 954 1341 954 1341 969.5 1342 c 128,-1,84
 985 1343 985 1343 1001 1345 c 0,85,86
 1018 1347 1018 1347 1033.5 1347.5 c 128,-1,87
 1049 1348 1049 1348 1064 1349 c 0,88,89
 1080 1350 1080 1350 1090 1335 c 0,90,91
 1099 1321 1099 1321 1103 1290 c 0,92,93
 1104 1286 l 0,94,95
 1105 1282 1105 1282 1105.5 1278 c 128,-1,96
 1106 1274 1106 1274 1106.5 1269 c 128,-1,97
 1107 1264 1107 1264 1105.5 1259 c 128,-1,98
 1104 1254 1104 1254 1101.5 1250 c 128,-1,99
 1099 1246 1099 1246 1093.5 1243.5 c 128,-1,100
 1088 1241 1088 1241 1080 1241 c 0,101,102
 1075 1241 1075 1241 1067.5 1240 c 128,-1,103
 1060 1239 1060 1239 1049 1236 c 128,-1,104
 1038 1233 1038 1233 1026 1229 c 0,105,106
 993 1218 993 1218 979 1198 c 0,107,108
 951 1157 951 1157 917 1003 c 0,109,110
 823 581 823 581 696 54 c 0,111,112
 676 -29 676 -29 612 -29 c 0,113,114
 594 -29 594 -29 581 -12 c 0,115,116
 578 -8 578 -8 574 -2.5 c 128,-1,117
 570 3 570 3 568 8 c 2,118,-1
 562 17 l 2,119,-1
 561.5 18 l 0,120,121
 561 19 561 19 560 19 c 0,122,123
 502 123 502 123 316 460 c 128,-1,124
 130 797 130 797 4 1019 c 0,125,126
 -30 1080 -30 1080 -61 1127 c 128,-1,127
 -92 1174 -92 1174 -119 1206 c 0,128,129
 -130 1219 -130 1219 -167 1229 c 0,130,131
 -210 1241 -210 1241 -232 1241 c 0,132,133
 -251 1241 -251 1241 -260.5 1254 c 128,-1,134
 -270 1267 -270 1267 -269 1280 c 2,135,-1
 -269 1294 l 2,136,137
 -270 1297 -270 1297 -272 1305.5 c 128,-1,138
 -274 1314 -274 1314 -274.5 1318 c 128,-1,139
 -275 1322 -275 1322 -273.5 1329 c 128,-1,140
 -272 1336 -272 1336 -267 1342 c 0,141,142
 -261 1350 -261 1350 -250 1349 c 0,143,144
 -217 1348 -217 1348 -172 1345 c 0,145,146
 -128 1342 -128 1342 -93 1340 c 0,147,148
 -57 1339 -57 1339 -17 1339 c 0,0,1
EndSplineSet
EndChar

StartChar: W
Encoding: 87 87 57
Width: 1800
GlyphClass: 2
Flags: W
LayerCount: 4
Fore
SplineSet
-1 1339 m 0,0,1
 37 1339 37 1339 71 1340 c 0,2,3
 82 1340 82 1340 93.5 1341 c 128,-1,4
 105 1342 105 1342 118 1343 c 128,-1,5
 131 1344 131 1344 145 1345 c 0,6,7
 186 1348 186 1348 212 1349 c 0,8,9
 220 1349 220 1349 228 1344.5 c 128,-1,10
 236 1340 236 1340 240 1332 c 0,11,12
 247 1319 247 1319 251 1290 c 0,13,14
 251 1289 251 1289 251.5 1286.5 c 128,-1,15
 252 1284 252 1284 252.5 1281.5 c 128,-1,16
 253 1279 253 1279 253.5 1275.5 c 128,-1,17
 254 1272 254 1272 254 1268.5 c 128,-1,18
 254 1265 254 1265 253.5 1261.5 c 128,-1,19
 253 1258 253 1258 251.5 1255 c 128,-1,20
 250 1252 250 1252 247.5 1249 c 128,-1,21
 245 1246 245 1246 241 1244 c 128,-1,22
 237 1242 237 1242 232 1241 c 0,23,24
 230 1241 230 1241 228 1241 c 2,25,-1
 206 1239 l 2,26,27
 201 1238 201 1238 196 1237 c 128,-1,28
 191 1236 191 1236 184.5 1234.5 c 128,-1,29
 178 1233 178 1233 171 1230 c 0,30,31
 163 1227 163 1227 156.5 1223.5 c 128,-1,32
 150 1220 150 1220 146 1215 c 0,33,34
 140 1208 140 1208 140 1200 c 0,35,36
 143 1183 143 1183 191 1077 c 0,37,38
 232 986 232 986 367 706 c 0,39,40
 416 605 416 605 455.5 523.5 c 128,-1,41
 495 442 495 442 523 383 c 1,42,43
 544 545 544 545 584 823 c 0,44,45
 609 999 609 999 624 1110 c 128,-1,46
 639 1221 639 1221 645 1265 c 0,47,48
 649 1299 649 1299 673 1324 c 0,49,50
 685 1336 685 1336 698 1342.5 c 128,-1,51
 711 1349 711 1349 726 1349 c 0,52,53
 733 1349 733 1349 740 1346.5 c 128,-1,54
 747 1344 747 1344 751 1341 c 128,-1,55
 755 1338 755 1338 760.5 1332 c 128,-1,56
 766 1326 766 1326 768 1323 c 128,-1,57
 770 1320 770 1320 775 1312 c 128,-1,58
 780 1304 780 1304 781 1303 c 0,59,60
 781 1302 781 1302 781.5 1301 c 128,-1,61
 782 1300 782 1300 783 1300 c 0,62,63
 1120 618 1120 618 1236 387 c 1,64,65
 1244 465 1244 465 1255 561 c 0,66,67
 1271 709 1271 709 1282.5 819 c 128,-1,68
 1294 929 1294 929 1305 1054 c 0,69,70
 1307 1077 1307 1077 1307.5 1098 c 128,-1,71
 1308 1119 1308 1119 1308 1135.5 c 128,-1,72
 1308 1152 1308 1152 1307 1165.5 c 128,-1,73
 1306 1179 1306 1179 1305 1188 c 0,74,75
 1304 1192 1304 1192 1302.5 1195 c 128,-1,76
 1301 1198 1301 1198 1298 1201.5 c 128,-1,77
 1295 1205 1295 1205 1291 1209 c 0,78,79
 1283 1215 1283 1215 1274.5 1220 c 128,-1,80
 1266 1225 1266 1225 1256 1228 c 0,81,82
 1232 1235 1232 1235 1212 1238 c 0,83,84
 1194 1241 1194 1241 1184 1241 c 0,85,86
 1179 1241 1179 1241 1174 1243 c 128,-1,87
 1169 1245 1169 1245 1165 1248 c 128,-1,88
 1161 1251 1161 1251 1158 1253.5 c 128,-1,89
 1155 1256 1155 1256 1153 1260 c 128,-1,90
 1151 1264 1151 1264 1149.5 1266.5 c 128,-1,91
 1148 1269 1148 1269 1146.5 1274 c 128,-1,92
 1145 1279 1145 1279 1145 1281 c 128,-1,93
 1145 1283 1145 1283 1144 1287.5 c 0,94,-1
 1143 1292 l 0,95,96
 1141 1302 1141 1302 1140.5 1309.5 c 128,-1,97
 1140 1317 1140 1317 1141.5 1325.5 c 128,-1,98
 1143 1334 1143 1334 1148 1340 c 0,99,100
 1154 1349 1154 1349 1166 1349 c 0,101,102
 1352 1339 1352 1339 1383 1339 c 0,103,104
 1423 1339 1423 1339 1450.5 1340.5 c 128,-1,105
 1478 1342 1478 1342 1509 1345 c 0,106,107
 1525 1347 1525 1347 1540 1347.5 c 128,-1,108
 1555 1348 1555 1348 1570 1349 c 0,109,110
 1586 1350 1586 1350 1596 1335 c 0,111,112
 1605 1321 1605 1321 1609 1290 c 0,113,114
 1610 1286 l 0,115,116
 1611 1282 1611 1282 1611.5 1278 c 128,-1,117
 1612 1274 1612 1274 1612.5 1269 c 128,-1,118
 1613 1264 1613 1264 1611.5 1259 c 128,-1,119
 1610 1254 1610 1254 1607.5 1250 c 128,-1,120
 1605 1246 1605 1246 1599.5 1243.5 c 128,-1,121
 1594 1241 1594 1241 1586 1241 c 0,122,123
 1573 1241 1573 1241 1538 1227 c 0,124,125
 1520 1220 1520 1220 1506.5 1212 c 128,-1,126
 1493 1204 1493 1204 1483 1195 c 0,127,128
 1479 1191 1479 1191 1474.5 1183 c 128,-1,129
 1470 1175 1470 1175 1466 1162.5 c 128,-1,130
 1462 1150 1462 1150 1458 1134.5 c 128,-1,131
 1454 1119 1454 1119 1450.5 1098.5 c 128,-1,132
 1447 1078 1447 1078 1444 1055 c 0,133,134
 1426 897 1426 897 1391 575.5 c 128,-1,135
 1356 254 1356 254 1333 57 c 0,136,137
 1330 24 1330 24 1304 -2 c 0,138,139
 1277 -29 1277 -29 1248 -29 c 0,140,141
 1244 -29 1244 -29 1240 -28 c 128,-1,142
 1236 -27 1236 -27 1233.5 -26 c 128,-1,143
 1231 -25 1231 -25 1227.5 -23 c 128,-1,144
 1224 -21 1224 -21 1222.5 -19.5 c 128,-1,145
 1221 -18 1221 -18 1218.5 -15 c 128,-1,146
 1216 -12 1216 -12 1215 -11 c 128,-1,147
 1214 -10 1214 -10 1212 -7 c 0,148,-1
 1210 -4 l 0,149,150
 1200 10 1200 10 1195 21 c 0,151,152
 1153 102 1153 102 1087 232 c 2,153,-1
 953 496 l 2,154,155
 887 627 887 627 828 743 c 0,156,157
 771 857 771 857 732 934 c 1,158,159
 711 774 711 774 676 537 c 0,160,161
 661 439 661 439 648.5 352 c 128,-1,162
 636 265 636 265 626 191.5 c 128,-1,163
 616 118 616 118 609 57 c 0,164,165
 605 23 605 23 580 -2 c 0,166,167
 553 -29 553 -29 524 -29 c 0,168,169
 521 -29 521 -29 518 -28.5 c 128,-1,170
 515 -28 515 -28 512 -27 c 128,-1,171
 509 -26 509 -26 506.5 -25 c 128,-1,172
 504 -24 504 -24 502.5 -22.5 c 128,-1,173
 501 -21 501 -21 499 -19 c 128,-1,174
 497 -17 497 -17 495.5 -15.5 c 128,-1,175
 494 -14 494 -14 492.5 -12 c 128,-1,176
 491 -10 491 -10 490 -9 c 128,-1,177
 489 -8 489 -8 488 -6 c 128,-1,178
 487 -4 487 -4 486 -4 c 0,179,180
 476 10 476 10 471 21 c 0,181,182
 419 128 419 128 350.5 268.5 c 128,-1,183
 282 409 282 409 198 584 c 0,184,185
 29 934 29 934 -31 1057 c 0,186,187
 -31 1058 -31 1058 -32 1058 c 0,188,189
 -33 1061 -33 1061 -37 1069 c 128,-1,190
 -41 1077 -41 1077 -46 1088 c 0,191,192
 -57 1111 -57 1111 -60 1118 c 0,193,194
 -63 1124 -63 1124 -72 1141 c 0,195,196
 -80 1157 -80 1157 -83 1162 c 0,197,198
 -88 1169 -88 1169 -96 1180 c 0,199,200
 -102 1189 -102 1189 -108 1194 c 0,201,202
 -110 1196 -110 1196 -112.5 1198.5 c 128,-1,203
 -115 1201 -115 1201 -118 1203.5 c 128,-1,204
 -121 1206 -121 1206 -123 1208 c 0,205,206
 -140 1222 -140 1222 -174 1231 c 0,207,208
 -210 1241 -210 1241 -228 1241 c 0,209,210
 -247 1241 -247 1241 -256.5 1254 c 128,-1,211
 -266 1267 -266 1267 -265 1280 c 2,212,-1
 -265 1294 l 2,213,214
 -266 1297 -266 1297 -268 1305.5 c 128,-1,215
 -270 1314 -270 1314 -270.5 1318 c 128,-1,216
 -271 1322 -271 1322 -269.5 1329 c 128,-1,217
 -268 1336 -268 1336 -263 1342 c 0,218,219
 -257 1350 -257 1350 -246 1349 c 0,220,221
 -135 1344 -135 1344 -71 1341.5 c 128,-1,222
 -7 1339 -7 1339 -1 1339 c 0,0,1
EndSplineSet
EndChar

StartChar: X
Encoding: 88 88 58
Width: 1336
GlyphClass: 2
Flags: W
LayerCount: 4
Fore
SplineSet
83 1339 m 0,0,1
 101 1339 101 1339 135 1340 c 128,-1,2
 169 1341 169 1341 219.5 1343.5 c 128,-1,3
 270 1346 270 1346 336 1349 c 0,4,5
 353 1350 353 1350 363 1334 c 0,6,7
 372 1320 372 1320 376 1290 c 0,8,9
 377 1286 l 0,10,11
 378 1282 378 1282 378 1279 c 128,-1,12
 378 1276 378 1276 378.5 1271.5 c 128,-1,13
 379 1267 379 1267 378.5 1263 c 128,-1,14
 378 1259 378 1259 376.5 1254.5 c 128,-1,15
 375 1250 375 1250 372 1247.5 c 128,-1,16
 369 1245 369 1245 364 1243 c 128,-1,17
 359 1241 359 1241 352 1241 c 0,18,19
 350 1241 350 1241 348 1241 c 128,-1,20
 346 1241 346 1241 343.5 1241 c 128,-1,21
 341 1241 341 1241 339 1240.5 c 128,-1,22
 337 1240 337 1240 334.5 1240 c 128,-1,23
 332 1240 332 1240 329.5 1239.5 c 128,-1,24
 327 1239 327 1239 324.5 1238.5 c 128,-1,25
 322 1238 322 1238 319 1237.5 c 128,-1,26
 316 1237 316 1237 313 1237 c 0,27,28
 303 1235 303 1235 293.5 1231 c 128,-1,29
 284 1227 284 1227 274 1220 c 0,30,31
 267 1215 267 1215 265 1211 c 128,-1,32
 263 1207 263 1207 264 1202 c 0,33,34
 267 1184 267 1184 292 1156 c 2,35,-1
 562 830 l 1,36,37
 573 849 573 849 585.5 870 c 128,-1,38
 598 891 598 891 612 917 c 0,39,40
 654 990 654 990 679 1031 c 0,41,42
 691 1052 691 1052 703.5 1073.5 c 128,-1,43
 716 1095 716 1095 728 1119 c 0,44,45
 753 1166 753 1166 767 1194 c 0,46,47
 771 1202 771 1202 768 1212 c 1,48,-1
 765 1217 l 2,49,50
 764 1218 764 1218 760.5 1219.5 c 128,-1,51
 757 1221 757 1221 749 1224 c 128,-1,52
 741 1227 741 1227 732 1230 c 0,53,54
 702 1239 702 1239 654 1239 c 0,55,56
 652 1239 652 1239 649 1239 c 0,57,58
 641 1240 641 1240 635 1244 c 128,-1,59
 629 1248 629 1248 625.5 1252 c 128,-1,60
 622 1256 622 1256 619.5 1262 c 128,-1,61
 617 1268 617 1268 616 1271.5 c 128,-1,62
 615 1275 615 1275 614 1280.5 c 128,-1,63
 613 1286 613 1286 613 1287 c 0,64,65
 610 1299 610 1299 608.5 1311 c 128,-1,66
 607 1323 607 1323 611 1333 c 0,67,68
 616 1348 616 1348 632 1347 c 0,69,70
 699 1342 699 1342 751 1339.5 c 128,-1,71
 803 1337 803 1337 839 1337 c 0,72,73
 938 1337 938 1337 1055 1347 c 0,74,75
 1057 1347 1057 1347 1059.5 1347 c 128,-1,76
 1062 1347 1062 1347 1064.5 1346 c 128,-1,77
 1067 1345 1067 1345 1069 1344 c 128,-1,78
 1071 1343 1071 1343 1073 1342 c 128,-1,79
 1075 1341 1075 1341 1076.5 1339.5 c 128,-1,80
 1078 1338 1078 1338 1080 1337 c 0,81,82
 1092 1323 1092 1323 1097 1293 c 0,83,84
 1099 1278 1099 1278 1097.5 1266.5 c 128,-1,85
 1096 1255 1096 1255 1089 1246 c 0,86,87
 1086 1243 1086 1243 1081.5 1241 c 128,-1,88
 1077 1239 1077 1239 1073 1239 c 0,89,90
 1070 1239 1070 1239 1066 1239 c 128,-1,91
 1062 1239 1062 1239 1057.5 1238.5 c 128,-1,92
 1053 1238 1053 1238 1048 1237 c 128,-1,93
 1043 1236 1043 1236 1037 1235 c 0,94,95
 1015 1231 1015 1231 979 1212 c 0,96,97
 962 1203 962 1203 948.5 1192 c 128,-1,98
 935 1181 935 1181 926 1168 c 0,99,100
 857 1064 857 1064 787 951 c 128,-1,101
 717 838 717 838 649 719 c 1,102,-1
 1134 146 l 2,103,104
 1161 113 1161 113 1213 96 c 0,105,106
 1269 77 1269 77 1321 77 c 0,107,108
 1324 77 1324 77 1328 76 c 128,-1,109
 1332 75 1332 75 1335 73 c 128,-1,110
 1338 71 1338 71 1341 69 c 128,-1,111
 1344 67 1344 67 1346 64 c 0,112,113
 1357 49 1357 49 1361 20 c 0,114,115
 1365 -7 1365 -7 1363 -15 c 0,116,117
 1359 -31 1359 -31 1342 -31 c 0,118,119
 1328 -30 1328 -30 1311 -29 c 128,-1,120
 1294 -28 1294 -28 1273 -27 c 0,121,122
 1260 -26 1260 -26 1247.5 -25 c 128,-1,123
 1235 -24 1235 -24 1224 -23.5 c 128,-1,124
 1213 -23 1213 -23 1202 -22 c 0,125,126
 1186 -21 1186 -21 1169.5 -21 c 128,-1,127
 1153 -21 1153 -21 1135 -21 c 0,128,129
 1118 -21 1118 -21 1102 -21 c 128,-1,130
 1086 -21 1086 -21 1071 -21.5 c 128,-1,131
 1056 -22 1056 -22 1041 -22.5 c 128,-1,132
 1026 -23 1026 -23 1010 -23.5 c 128,-1,133
 994 -24 994 -24 976.5 -25 c 128,-1,134
 959 -26 959 -26 940 -27 c 0,135,136
 883 -30 883 -30 845 -31 c 0,137,138
 833 -31 833 -31 824 -22 c 0,139,140
 808 -7 808 -7 802 27 c 2,141,-1
 802 31 l 2,142,143
 801 35 801 35 800.5 38 c 128,-1,144
 800 41 800 41 799.5 46 c 128,-1,145
 799 51 799 51 799.5 54.5 c 128,-1,146
 800 58 800 58 801.5 62.5 c 128,-1,147
 803 67 803 67 805.5 70 c 128,-1,148
 808 73 808 73 813 75 c 128,-1,149
 818 77 818 77 825 77 c 0,150,151
 848 77 848 77 886 91 c 0,152,153
 906 99 906 99 911 106 c 1,154,155
 908 111 908 111 902 120 c 2,156,-1
 540 558 l 1,157,158
 523 529 523 529 506.5 499 c 128,-1,159
 490 469 490 469 473 438 c 128,-1,160
 456 407 456 407 438.5 374.5 c 128,-1,161
 421 342 421 342 403 309 c 0,162,163
 325 163 325 163 311 122 c 0,164,165
 310 113 310 113 309 108.5 c 128,-1,166
 308 104 308 104 307 100 c 0,167,168
 309 99 309 99 311 97 c 0,169,170
 314 95 314 95 319 93 c 128,-1,171
 324 91 324 91 333.5 88.5 c 128,-1,172
 343 86 343 86 354 84 c 128,-1,173
 365 82 365 82 378.5 80.5 c 128,-1,174
 392 79 392 79 407 78 c 128,-1,175
 422 77 422 77 439 77 c 0,176,177
 451 77 451 77 461 67 c 0,178,179
 474 53 474 53 481 22 c 0,180,181
 481 20 481 20 483 11.5 c 128,-1,182
 485 3 485 3 485.5 0 c 128,-1,183
 486 -3 486 -3 485 -9.5 c 128,-1,184
 484 -16 484 -16 481 -21 c 0,185,186
 475 -32 475 -32 461 -31 c 0,187,188
 275 -21 275 -21 235 -21 c 0,189,190
 190 -21 190 -21 -8 -31 c 0,191,192
 -26 -32 -26 -32 -36 -15 c 0,193,194
 -45 1 -45 1 -47 28 c 0,195,196
 -49 57 -49 57 -42 68 c 0,197,198
 -36 77 -36 77 -25 77 c 0,199,200
 5 77 5 77 71 97 c 0,201,202
 132 116 132 116 156 155 c 0,203,204
 208 241 208 241 256 325.5 c 128,-1,205
 304 410 304 410 360 510 c 0,206,207
 411 600 411 600 447 665 c 1,208,-1
 101 1082 l 2,209,210
 86 1100 86 1100 72.5 1115.5 c 128,-1,211
 59 1131 59 1131 47.5 1143 c 128,-1,212
 36 1155 36 1155 26 1164 c 0,213,214
 -4 1191 -4 1191 -45 1212 c 0,215,216
 -49 1214 -49 1214 -53 1216 c 128,-1,217
 -57 1218 -57 1218 -61.5 1220 c 128,-1,218
 -66 1222 -66 1222 -70.5 1223.5 c 128,-1,219
 -75 1225 -75 1225 -80 1226.5 c 128,-1,220
 -85 1228 -85 1228 -90 1229.5 c 128,-1,221
 -95 1231 -95 1231 -101 1233 c 0,222,223
 -133 1241 -133 1241 -150 1241 c 0,224,225
 -157 1241 -157 1241 -163 1243 c 128,-1,226
 -169 1245 -169 1245 -172.5 1248 c 128,-1,227
 -176 1251 -176 1251 -179 1255.5 c 128,-1,228
 -182 1260 -182 1260 -183.5 1263.5 c 128,-1,229
 -185 1267 -185 1267 -186.5 1272 c 128,-1,230
 -188 1277 -188 1277 -188.5 1280 c 128,-1,231
 -189 1283 -189 1283 -190 1287 c 2,232,-1
 -191 1291 l 2,233,234
 -193 1302 -193 1302 -193.5 1309 c 128,-1,235
 -194 1316 -194 1316 -192.5 1325 c 128,-1,236
 -191 1334 -191 1334 -186 1340 c 0,237,238
 -180 1349 -180 1349 -168 1349 c 128,-1,239
 -156 1349 -156 1349 -143 1348.5 c 128,-1,240
 -130 1348 -130 1348 -115.5 1347 c 128,-1,241
 -101 1346 -101 1346 -85 1345 c 0,242,243
 -37 1342 -37 1342 2 1340 c 0,244,245
 39 1339 39 1339 83 1339 c 0,0,1
EndSplineSet
EndChar

StartChar: Y
Encoding: 89 89 59
Width: 1196
GlyphClass: 2
Flags: W
LayerCount: 4
Fore
SplineSet
456 232 m 2,0,-1
 403 534 l 2,1,2
 399 556 399 556 384 578 c 0,3,4
 302 691 302 691 192 840 c 0,5,6
 81 989 81 989 11 1084 c 0,7,8
 1 1097 1 1097 -8 1108.5 c 128,-1,9
 -17 1120 -17 1120 -26 1129.5 c 128,-1,10
 -35 1139 -35 1139 -43 1147.5 c 128,-1,11
 -51 1156 -51 1156 -58 1162 c 0,12,13
 -89 1189 -89 1189 -134 1212 c 0,14,15
 -157 1224 -157 1224 -189.5 1232.5 c 128,-1,16
 -222 1241 -222 1241 -239 1241 c 0,17,18
 -272 1241 -272 1241 -281 1291 c 0,19,20
 -282 1297 -282 1297 -282.5 1302 c 128,-1,21
 -283 1307 -283 1307 -283 1312.5 c 128,-1,22
 -283 1318 -283 1318 -282.5 1323 c 128,-1,23
 -282 1328 -282 1328 -280 1333 c 128,-1,24
 -278 1338 -278 1338 -274 1342 c 0,25,26
 -268 1350 -268 1350 -257 1349 c 0,27,28
 -240 1348 -240 1348 -219 1347 c 128,-1,29
 -198 1346 -198 1346 -174 1345 c 0,30,31
 -126 1342 -126 1342 -87 1340 c 0,32,33
 -49 1339 -49 1339 -6 1339 c 0,34,35
 12 1339 12 1339 46 1340 c 128,-1,36
 80 1341 80 1341 130.5 1343.5 c 128,-1,37
 181 1346 181 1346 247 1349 c 0,38,39
 264 1350 264 1350 274 1334 c 0,40,41
 283 1320 283 1320 287 1290 c 0,42,43
 288 1286 l 0,44,45
 289 1282 289 1282 289 1279 c 128,-1,46
 289 1276 289 1276 289.5 1271.5 c 128,-1,47
 290 1267 290 1267 289.5 1263 c 128,-1,48
 289 1259 289 1259 287.5 1254.5 c 128,-1,49
 286 1250 286 1250 283 1247.5 c 128,-1,50
 280 1245 280 1245 275 1243 c 128,-1,51
 270 1241 270 1241 263 1241 c 0,52,53
 255 1241 255 1241 245 1240 c 128,-1,54
 235 1239 235 1239 224 1237 c 0,55,56
 218 1236 218 1236 211.5 1233.5 c 128,-1,57
 205 1231 205 1231 198.5 1228 c 128,-1,58
 192 1225 192 1225 185 1220 c 128,-1,59
 178 1215 178 1215 176 1211 c 128,-1,60
 174 1207 174 1207 175 1202 c 0,61,62
 177 1188 177 1188 204 1155 c 2,63,-1
 538 713 l 1,64,65
 578 822 578 822 623 963 c 0,66,67
 677 1130 677 1130 691 1190 c 0,68,69
 693 1199 693 1199 692 1210 c 0,70,71
 692 1212 692 1212 687 1216 c 0,72,73
 680 1222 680 1222 651 1230 c 0,74,75
 636 1234 636 1234 616 1236.5 c 128,-1,76
 596 1239 596 1239 572 1239 c 0,77,78
 564 1239 564 1239 557 1241.5 c 128,-1,79
 550 1244 550 1244 546 1248.5 c 128,-1,80
 542 1253 542 1253 539 1258 c 128,-1,81
 536 1263 536 1263 535 1268.5 c 128,-1,82
 534 1274 534 1274 533 1278.5 c 128,-1,83
 532 1283 532 1283 532 1286.5 c 0,84,-1
 532 1290 l 0,85,86
 531 1293 531 1293 528.5 1301.5 c 128,-1,87
 526 1310 526 1310 525.5 1314 c 128,-1,88
 525 1318 525 1318 526 1324.5 c 128,-1,89
 527 1331 527 1331 530 1337 c 0,90,91
 536 1348 536 1348 550 1347 c 0,92,93
 736 1337 736 1337 750 1337 c 0,94,95
 796 1337 796 1337 830 1338.5 c 128,-1,96
 864 1340 864 1340 902 1343 c 0,97,98
 921 1345 921 1345 937.5 1345.5 c 128,-1,99
 954 1346 954 1346 968 1347 c 0,100,101
 973 1347 973 1347 978.5 1345 c 128,-1,102
 984 1343 984 1343 988.5 1339 c 128,-1,103
 993 1335 993 1335 995 1330 c 0,104,105
 1002 1316 1002 1316 1006 1287 c 0,106,107
 1006.5 1284.5 l 0,108,109
 1007 1282 1007 1282 1008 1279 c 128,-1,110
 1009 1276 1009 1276 1009.5 1271.5 c 128,-1,111
 1010 1267 1010 1267 1009.5 1262.5 c 128,-1,112
 1009 1258 1009 1258 1008 1253.5 c 128,-1,113
 1007 1249 1007 1249 1004 1246 c 128,-1,114
 1001 1243 1001 1243 996 1241 c 128,-1,115
 991 1239 991 1239 984 1239 c 0,116,117
 971 1239 971 1239 957 1238 c 0,118,119
 954 1238 954 1238 949.5 1237 c 128,-1,120
 945 1236 945 1236 939.5 1235 c 128,-1,121
 934 1234 934 1234 927.5 1233 c 128,-1,122
 921 1232 921 1232 914 1230 c 0,123,124
 901 1227 901 1227 889.5 1222 c 128,-1,125
 878 1217 878 1217 868 1209 c 0,126,127
 848 1194 848 1194 839 1172 c 0,128,129
 797 1066 797 1066 626 590 c 0,130,131
 625 587 625 587 624.5 581 c 128,-1,132
 624 575 624 575 624.5 564 c 128,-1,133
 625 553 625 553 628 540 c 2,134,-1
 680 232 l 2,135,136
 698 129 698 129 712 96 c 1,137,138
 724 91 724 91 751 86 c 0,139,140
 802 77 802 77 830 77 c 0,141,142
 842 77 842 77 852 67 c 0,143,144
 865 53 865 53 871 24 c 0,145,146
 874 9 874 9 873.5 -2 c 128,-1,147
 873 -13 873 -13 867 -22 c 0,148,149
 864 -26 864 -26 859 -28.5 c 128,-1,150
 854 -31 854 -31 848 -31 c 0,151,152
 746 -26 746 -26 686.5 -23.5 c 128,-1,153
 627 -21 627 -21 614 -21 c 0,154,155
 584 -21 584 -21 381 -31 c 0,156,157
 369 -32 369 -32 359 -22 c 0,158,159
 343 -7 343 -7 338 24 c 0,160,161
 337 31 337 31 336.5 35.5 c 128,-1,162
 336 40 336 40 336.5 46 c 128,-1,163
 337 52 337 52 338 57 c 128,-1,164
 339 62 339 62 342 67 c 0,165,166
 348 77 348 77 360 77 c 0,167,168
 373 77 373 77 392.5 79 c 128,-1,169
 412 81 412 81 437 86 c 0,170,171
 463 91 463 91 472 96 c 1,172,173
 474 129 474 129 456 232 c 2,0,-1
EndSplineSet
EndChar

StartChar: Z
Encoding: 90 90 60
Width: 1266
GlyphClass: 2
Flags: W
LayerCount: 4
Fore
SplineSet
216 1227 m 2,0,1
 126 1227 126 1227 75 1166 c 0,2,3
 22 1102 22 1102 11 983 c 1,4,-1
 9 977 l 2,5,6
 4 965 4 965 -7 961 c 128,-1,7
 -18 957 -18 957 -31 957 c 0,8,9
 -48 957 -48 957 -70 964 c 0,10,11
 -79 967 -79 967 -83 968 c 128,-1,12
 -87 969 -87 969 -93 972.5 c 128,-1,13
 -99 976 -99 976 -105 980 c 0,14,15
 -111 985 -111 985 -113.5 993 c 128,-1,16
 -116 1001 -116 1001 -115 1007 c 0,17,18
 -91 1132 -91 1132 -109 1340 c 0,19,20
 -110 1347 -110 1347 -107 1352.5 c 128,-1,21
 -104 1358 -104 1358 -98.5 1361 c 128,-1,22
 -93 1364 -93 1364 -85 1363 c 0,23,24
 28 1347 28 1347 78 1347 c 2,25,-1
 466 1347 l 2,26,27
 605 1347 605 1347 881 1367 c 0,28,29
 885 1367 885 1367 890 1366 c 0,30,31
 904 1362 904 1362 927 1342 c 0,32,33
 952 1319 952 1319 956 1298 c 2,34,-1
 956 1291 l 2,35,36
 955 1285 955 1285 949.5 1271.5 c 128,-1,37
 944 1258 944 1258 929 1227.5 c 128,-1,38
 914 1197 914 1197 898.5 1168 c 128,-1,39
 883 1139 883 1139 852.5 1079.5 c 128,-1,40
 822 1020 822 1020 796 970 c 0,41,42
 639 663 639 663 481 360 c 2,43,-1
 345 95 l 1,44,-1
 819 95 l 2,45,46
 925 95 925 95 976 158 c 0,47,48
 984 169 984 169 991 180.5 c 128,-1,49
 998 192 998 192 1002.5 201.5 c 128,-1,50
 1007 211 1007 211 1013 226 c 0,51,52
 1016 234 1016 234 1018 240.5 c 128,-1,53
 1020 247 1020 247 1022 250 c 0,54,55
 1024 257 1024 257 1028 276 c 0,56,57
 1030 285 1030 285 1032 291 c 128,-1,58
 1034 297 1034 297 1034 299 c 0,59,60
 1034 300 1034 300 1035 303.5 c 128,-1,61
 1036 307 1036 307 1037 312.5 c 128,-1,62
 1038 318 1038 318 1039 325 c 0,63,64
 1042 339 1042 339 1043 344 c 0,65,66
 1043 345 1043 345 1043.5 346.5 c 128,-1,67
 1044 348 1044 348 1044 349 c 0,68,69
 1046 355 1046 355 1049.5 359 c 128,-1,70
 1053 363 1053 363 1056.5 365 c 128,-1,71
 1060 367 1060 367 1065.5 368 c 128,-1,72
 1071 369 1071 369 1074.5 369 c 128,-1,73
 1078 369 1078 369 1084 369 c 128,-1,74
 1090 369 1090 369 1091 369 c 0,75,76
 1110 369 1110 369 1128 362.5 c 128,-1,77
 1146 356 1146 356 1161 344 c 0,78,79
 1174 333 1174 333 1172 319 c 0,80,81
 1166 274 1166 274 1158.5 217.5 c 128,-1,82
 1151 161 1151 161 1147.5 132.5 c 128,-1,83
 1144 104 1144 104 1139 66 c 0,84,85
 1135 29 1135 29 1133 -5 c 0,86,87
 1133 -14 1133 -14 1127 -19.5 c 128,-1,88
 1121 -25 1121 -25 1112 -25 c 2,89,-1
 110 -25 l 2,90,91
 85 -25 85 -25 63 -10 c 0,92,93
 50 -1 50 -1 43.5 11.5 c 128,-1,94
 37 24 37 24 42 42 c 2,95,-1
 656 1227 l 1,96,-1
 216 1227 l 2,0,1
EndSplineSet
EndChar

StartChar: bracketleft
Encoding: 91 91 61
Width: 518
GlyphClass: 2
Flags: W
LayerCount: 4
Fore
SplineSet
-62 1461 m 0,0,1
 10 1461 10 1461 86 1464 c 0,2,3
 124 1465 124 1465 153 1466.5 c 128,-1,4
 182 1468 182 1468 201 1470 c 2,5,-1
 240 1473 l 2,6,7
 251 1474 251 1474 261 1466 c 0,8,9
 277 1453 277 1453 281 1430 c 0,10,11
 282 1423 282 1423 282 1416 c 128,-1,12
 282 1409 282 1409 280 1402.5 c 128,-1,13
 278 1396 278 1396 274.5 1390.5 c 128,-1,14
 271 1385 271 1385 266 1381 c 128,-1,15
 261 1377 261 1377 254 1374 c 0,16,17
 221 1361 221 1361 162 1350 c 0,18,19
 105 1338 105 1338 64 1333 c 2,20,-1
 44 1330 l 1,21,-1
 309 -170 l 1,22,23
 457 -189 457 -189 534 -214 c 0,24,25
 553 -220 553 -220 565 -235.5 c 128,-1,26
 577 -251 577 -251 581 -270 c 0,27,28
 581 -272 581 -272 581 -274.5 c 128,-1,29
 581 -277 581 -277 581.5 -279 c 128,-1,30
 582 -281 582 -281 581.5 -283 c 128,-1,31
 581 -285 581 -285 581 -287 c 0,32,33
 580 -293 580 -293 579 -297 c 0,34,35
 578 -299 578 -299 577 -300.5 c 128,-1,36
 576 -302 576 -302 575 -304 c 2,37,-1
 574 -306 l 2,38,39
 567 -314 567 -314 555 -313 c 0,40,41
 412 -301 412 -301 249 -301 c 0,42,43
 221 -301 221 -301 200 -280 c 0,44,45
 184 -263 184 -263 179 -248 c 0,46,47
 175 -237 175 -237 174 -230 c 2,48,-1
 -112 1390 l 2,49,50
 -113 1397 -113 1397 -113 1408 c 0,51,52
 -113 1423 -113 1423 -103 1440 c 0,53,54
 -90 1461 -90 1461 -62 1461 c 0,0,1
EndSplineSet
Substitution2: "'smcp' Lowercase to Small Capitals lookup 12 subtable" bracketleft.sc
EndChar

StartChar: backslash
Encoding: 92 92 62
Width: 802
GlyphClass: 2
Flags: W
LayerCount: 4
Fore
SplineSet
-226 1512 m 0,0,1
 -215 1539 -215 1539 -169 1539 c 0,2,3
 -147 1539 -147 1539 -121 1526 c 0,4,5
 -107 1519 -107 1519 -97 1510.5 c 128,-1,6
 -87 1502 -87 1502 -81 1490 c 0,7,8
 26 1280 26 1280 131 1083 c 128,-1,9
 236 886 236 886 317 742.5 c 128,-1,10
 398 599 398 599 472 472 c 128,-1,11
 546 345 546 345 597.5 259.5 c 128,-1,12
 649 174 649 174 688 110 c 128,-1,13
 727 46 727 46 747 11 c 128,-1,14
 767 -24 767 -24 769 -34 c 2,15,-1
 769 -41 l 2,16,17
 767 -58 767 -58 747 -70 c 0,18,19
 744 -72 744 -72 740 -74 c 128,-1,20
 736 -76 736 -76 732 -77 c 128,-1,21
 728 -78 728 -78 724 -79 c 128,-1,22
 720 -80 720 -80 715.5 -80.5 c 128,-1,23
 711 -81 711 -81 706 -81 c 0,24,25
 687 -81 687 -81 666 -68 c 0,26,27
 655 -62 655 -62 647 -54.5 c 128,-1,28
 639 -47 639 -47 633 -37 c 0,29,30
 -105 1280 -105 1280 -224 1491 c 0,31,32
 -230 1502 -230 1502 -226 1512 c 0,0,1
EndSplineSet
Substitution2: "'smcp' Lowercase to Small Capitals lookup 12 subtable" backslash.sc
EndChar

StartChar: bracketright
Encoding: 93 93 63
Width: 520
GlyphClass: 2
Flags: W
LayerCount: 4
Fore
SplineSet
66 1461 m 0,0,1
 79 1461 79 1461 92 1455.5 c 128,-1,2
 105 1450 105 1450 115 1440 c 0,3,4
 131 1423 131 1423 137 1408 c 0,5,6
 139 1403 139 1403 140 1398.5 c 128,-1,7
 141 1394 141 1394 142 1390 c 2,8,-1
 428 -230 l 2,9,10
 429 -234 429 -234 429 -238.5 c 128,-1,11
 429 -243 429 -243 429 -248 c 0,12,13
 429 -254 429 -254 427.5 -259.5 c 128,-1,14
 426 -265 426 -265 424 -269.5 c 128,-1,15
 422 -274 422 -274 418 -280 c 0,16,17
 405 -301 405 -301 377 -301 c 0,18,19
 305 -301 305 -301 229 -304 c 0,20,21
 191 -305 191 -305 162.5 -306.5 c 128,-1,22
 134 -308 134 -308 115 -310 c 2,23,-1
 75 -313 l 2,24,25
 64 -314 64 -314 54 -306 c 0,26,27
 38 -293 38 -293 35 -270 c 0,28,29
 32 -251 32 -251 38.5 -236 c 128,-1,30
 45 -221 45 -221 62 -214 c 0,31,32
 95 -201 95 -201 153 -190 c 0,33,34
 210 -178 210 -178 251 -173 c 2,35,-1
 271 -170 l 1,36,-1
 6 1330 l 1,37,38
 -142 1349 -142 1349 -219 1374 c 0,39,40
 -238 1380 -238 1380 -250 1395.5 c 128,-1,41
 -262 1411 -262 1411 -265 1430 c 0,42,43
 -267 1439 -267 1439 -265 1447 c 0,44,45
 -264 1453 -264 1453 -263 1457 c 2,46,-1
 -260 1464 l 1,47,-1
 -258 1466 l 2,48,49
 -251 1474 -251 1474 -240 1473 c 0,50,51
 -97 1461 -97 1461 66 1461 c 0,0,1
EndSplineSet
Substitution2: "'smcp' Lowercase to Small Capitals lookup 12 subtable" bracketright.sc
EndChar

StartChar: asciicircum
Encoding: 94 94 64
Width: 780
GlyphClass: 2
Flags: W
LayerCount: 4
Fore
SplineSet
140 1315 m 0,0,1
 174 1315 174 1315 201 1275 c 0,2,3
 249 1205 249 1205 291 1148 c 0,4,5
 333 1091 333 1091 393 1014 c 0,6,7
 453 936 453 936 487 891 c 0,8,9
 491 885 491 885 492 878 c 0,10,11
 496 853 496 853 481 836 c 0,12,13
 474 829 474 829 466 825 c 128,-1,14
 458 821 458 821 447 821 c 0,15,16
 436 821 436 821 428 829 c 0,17,18
 412 844 412 844 393.5 860.5 c 128,-1,19
 375 877 375 877 354.5 896.5 c 128,-1,20
 334 916 334 916 312 937 c 0,21,22
 245 1002 245 1002 202 1045 c 2,23,-1
 185 1064 l 1,24,25
 96 918 96 918 26 829 c 0,26,27
 23 825 23 825 18.5 823 c 128,-1,28
 14 821 14 821 9 821 c 0,29,30
 -10 821 -10 821 -30 836 c 0,31,32
 -53 853 -53 853 -58 878 c 0,33,34
 -59 885 -59 885 -57 891 c 0,35,36
 -37 941 -37 941 -5 1015 c 0,37,38
 26 1089 26 1089 49 1147 c 0,39,40
 72 1205 72 1205 95 1275 c 0,41,42
 108 1315 108 1315 140 1315 c 0,0,1
EndSplineSet
Substitution2: "'smcp' Lowercase to Small Capitals lookup 12 subtable" asciicircum.sc
EndChar

StartChar: underscore
Encoding: 95 95 65
Width: 1010
GlyphClass: 2
Flags: W
LayerCount: 4
Fore
SplineSet
14 -63 m 0,0,1
 14 -59 14 -59 13 -52 c 0,2,3
 12 -32 12 -32 11.5 -22 c 128,-1,4
 11 -12 11 -12 12 4.5 c 128,-1,5
 13 21 13 21 16.5 29.5 c 128,-1,6
 20 38 20 38 28.5 44.5 c 128,-1,7
 37 51 37 51 49 51 c 2,8,-1
 947 51 l 2,9,10
 962 51 962 51 973 39.5 c 128,-1,11
 984 28 984 28 986 16 c 0,12,13
 990 -4 990 -4 982 -81 c 1,14,-1
 982 -83 l 2,15,16
 980 -93 980 -93 974 -100 c 0,17,18
 972 -102 972 -102 971.5 -103 c 128,-1,19
 971 -104 971 -104 969 -105.5 c 128,-1,20
 967 -107 967 -107 964 -108 c 0,21,22
 959 -111 959 -111 954 -111 c 2,23,-1
 62 -111 l 2,24,25
 43 -111 43 -111 30 -96.5 c 128,-1,26
 17 -82 17 -82 15 -66 c 0,27,28
 14 -64 14 -64 14 -63 c 0,0,1
EndSplineSet
EndChar

StartChar: grave
Encoding: 96 96 66
Width: 684
GlyphClass: 2
Flags: W
LayerCount: 4
Fore
SplineSet
58 1393 m 0,0,1
 74 1393 74 1393 92 1389 c 0,2,3
 100 1387 100 1387 106 1384.5 c 128,-1,4
 112 1382 112 1382 118 1380 c 0,5,6
 119 1380 119 1380 120 1379 c 0,7,8
 129 1375 129 1375 134 1370 c 0,9,10
 135 1369 135 1369 136 1368 c 0,11,12
 145 1359 145 1359 154 1349.5 c 128,-1,13
 163 1340 163 1340 173 1329.5 c 128,-1,14
 183 1319 183 1319 193.5 1307.5 c 128,-1,15
 204 1296 204 1296 215 1283.5 c 128,-1,16
 226 1271 226 1271 238 1258 c 128,-1,17
 250 1245 250 1245 262 1231 c 128,-1,18
 274 1217 274 1217 288 1202 c 0,19,20
 302 1186 302 1186 320.5 1165 c 128,-1,21
 339 1144 339 1144 348 1134 c 128,-1,22
 357 1124 357 1124 367 1111.5 c 128,-1,23
 377 1099 377 1099 381.5 1090.5 c 128,-1,24
 386 1082 386 1082 388 1074 c 0,25,26
 389 1070 389 1070 389 1066.5 c 128,-1,27
 389 1063 389 1063 389 1059 c 128,-1,28
 389 1055 389 1055 388 1051 c 128,-1,29
 387 1047 387 1047 386 1043 c 0,30,31
 382 1033 382 1033 373 1028 c 128,-1,32
 364 1023 364 1023 354 1023 c 0,33,34
 348 1023 348 1023 340.5 1025 c 128,-1,35
 333 1027 333 1027 326.5 1029.5 c 128,-1,36
 320 1032 320 1032 309.5 1038 c 128,-1,37
 299 1044 299 1044 292 1049 c 128,-1,38
 285 1054 285 1054 270 1063.5 c 128,-1,39
 255 1073 255 1073 244 1079 c 0,40,41
 159 1131 159 1131 76 1198 c 0,42,43
 28 1235 28 1235 4 1260 c 128,-1,44
 -20 1285 -20 1285 -24 1310 c 0,45,46
 -26 1323 -26 1323 -25 1336 c 0,47,48
 -25 1342 -25 1342 -23 1347.5 c 128,-1,49
 -21 1353 -21 1353 -18 1358 c 128,-1,50
 -15 1363 -15 1363 -11.5 1366.5 c 128,-1,51
 -8 1370 -8 1370 -3 1374 c 0,52,53
 8 1384 8 1384 23.5 1388.5 c 128,-1,54
 39 1393 39 1393 58 1393 c 0,0,1
EndSplineSet
EndChar

StartChar: a
Encoding: 97 97 67
Width: 862
GlyphClass: 2
Flags: W
LayerCount: 4
Fore
SplineSet
353 117 m 0,0,1
 396 117 396 117 448 147 c 0,2,3
 453 150 453 150 458 153 c 128,-1,4
 463 156 463 156 467 158.5 c 128,-1,5
 471 161 471 161 474.5 163.5 c 128,-1,6
 478 166 478 166 480.5 168 c 128,-1,7
 483 170 483 170 485.5 172 c 128,-1,8
 488 174 488 174 489.5 175.5 c 128,-1,9
 491 177 491 177 492 178 c 2,10,-1
 450 412 l 1,11,12
 390 393 390 393 354.5 381.5 c 128,-1,13
 319 370 319 370 307 365 c 0,14,15
 291 358 291 358 277.5 349.5 c 128,-1,16
 264 341 264 341 254 331.5 c 128,-1,17
 244 322 244 322 237 311 c 0,18,19
 226 295 226 295 223 275.5 c 128,-1,20
 220 256 220 256 224 232 c 0,21,22
 232 186 232 186 271 151 c 0,23,24
 308 117 308 117 353 117 c 0,0,1
324 897 m 0,25,26
 423 897 423 897 511 808 c 0,27,28
 597 721 597 721 620 598 c 2,29,-1
 692 186 l 2,30,31
 699 145 699 145 711 131 c 128,-1,32
 723 117 723 117 741 117 c 0,33,34
 743 117 743 117 745.5 117 c 128,-1,35
 748 117 748 117 750 117.5 c 128,-1,36
 752 118 752 118 754 118 c 0,37,38
 760 119 760 119 763 121 c 0,39,40
 767 123 767 123 773 126 c 0,41,42
 778 129 778 129 779 130 c 0,43,44
 781 132 781 132 784 134 c 0,45,46
 785 136 l 0,47,48
 786 138 786 138 787.5 139 c 128,-1,49
 789 140 789 140 793 141.5 c 128,-1,50
 797 143 797 143 803 143 c 0,51,52
 836 143 836 143 843 102 c 0,53,54
 848 74 848 74 838 51 c 0,55,56
 837 48 837 48 835 46 c 0,57,58
 814 23 814 23 767 -6 c 0,59,60
 742 -21 742 -21 721.5 -29 c 128,-1,61
 701 -37 701 -37 683 -37 c 0,62,63
 630 -37 630 -37 578 12 c 0,64,65
 563 26 563 26 550.5 42 c 128,-1,66
 538 58 538 58 528 74 c 1,67,68
 499 49 499 49 450 15 c 0,69,70
 368 -41 368 -41 315 -41 c 0,71,72
 206 -41 206 -41 118 33 c 128,-1,73
 30 107 30 107 11 214 c 0,74,75
 0 279 0 279 27 330 c 0,76,77
 40 355 40 355 57 372 c 128,-1,78
 74 389 74 389 95 397 c 0,79,80
 101 399 101 399 109.5 402.5 c 128,-1,81
 118 406 118 406 128.5 410 c 128,-1,82
 139 414 139 414 151 418.5 c 128,-1,83
 163 423 163 423 177.5 428.5 c 128,-1,84
 192 434 192 434 208 440 c 0,85,86
 290 470 290 470 345 491 c 0,87,88
 399 512 399 512 421 523 c 0,89,-1
 422 523 l 0,90,91
 426 525 426 525 428 527 c 0,92,93
 429 534 429 534 426 550 c 2,94,-1
 416 604 l 2,95,96
 405 666 405 666 351 719 c 0,97,98
 299 771 299 771 240 771 c 0,99,100
 218 771 218 771 205 764 c 0,101,102
 195 758 195 758 189 750 c 0,103,104
 173 725 173 725 173 668 c 0,105,106
 173 614 173 614 148 582.5 c 128,-1,107
 123 551 123 551 75 551 c 0,108,109
 61 551 61 551 47.5 555.5 c 128,-1,110
 34 560 34 560 22 568 c 128,-1,111
 10 576 10 576 -1 587 c 0,112,113
 -16 603 -16 603 -25 621.5 c 128,-1,114
 -34 640 -34 640 -37 660 c 0,115,116
 -39 671 -39 671 -37 691 c 0,117,118
 -35 712 -35 712 -30 723 c 0,119,120
 -30 724 -30 724 -29 725 c 128,-1,121
 -28 726 -28 726 -27 726 c 0,122,123
 27 786 27 786 123 841 c 0,124,125
 136 848 136 848 149 855 c 0,126,127
 234 897 234 897 324 897 c 0,25,26
EndSplineSet
Substitution2: "'smcp' Lowercase to Small Capitals lookup 12 subtable" a.sc
EndChar

StartChar: b
Encoding: 98 98 68
Width: 996
GlyphClass: 2
Flags: W
LayerCount: 4
Fore
SplineSet
430 -39 m 0,0,1
 384 -39 384 -39 270 -8 c 0,2,3
 263 -6 263 -6 247 -2 c 0,4,5
 231 3 231 3 225 4 c 0,6,7
 222 5 222 5 217 6 c 128,-1,8
 212 7 212 7 205 8 c 0,9,10
 201 9 201 9 197.5 9.5 c 128,-1,11
 194 10 194 10 191 10 c 128,-1,12
 188 10 188 10 187 10 c 0,13,14
 180 10 180 10 170 9 c 0,15,16
 161 8 161 8 153 5 c 0,17,18
 149 3 149 3 144 3 c 0,19,20
 140 3 140 3 136.5 3.5 c 128,-1,21
 133 4 133 4 130 5.5 c 128,-1,22
 127 7 127 7 124 8.5 c 128,-1,23
 121 10 121 10 118.5 12.5 c 128,-1,24
 116 15 116 15 114 16.5 c 128,-1,25
 112 18 112 18 109.5 21 c 128,-1,26
 107 24 107 24 106.5 25.5 c 128,-1,27
 106 27 106 27 103.5 30 c 128,-1,28
 101 33 101 33 101 34 c 0,29,30
 84 57 84 57 81 72 c 0,31,32
 80 77 80 77 82 82 c 0,33,34
 95 130 95 130 79 220 c 2,35,-1
 -79 1116 l 2,36,37
 -83 1141 -83 1141 -88 1161.5 c 128,-1,38
 -93 1182 -93 1182 -97 1194 c 0,39,40
 -102 1206 -102 1206 -104 1210 c 0,41,42
 -105 1212 -105 1212 -108.5 1214.5 c 128,-1,43
 -112 1217 -112 1217 -120 1220 c 128,-1,44
 -128 1223 -128 1223 -139 1225.5 c 128,-1,45
 -150 1228 -150 1228 -167.5 1229.5 c 128,-1,46
 -185 1231 -185 1231 -206 1231 c 0,47,48
 -243 1231 -243 1231 -240 1263 c 2,49,-1
 -239 1267 l 2,50,51
 -241 1274 -241 1274 -242.5 1281 c 128,-1,52
 -244 1288 -244 1288 -245 1295 c 0,53,-1
 -245 1297 l 0,54,55
 -251 1326 -251 1326 -228 1332 c 0,56,57
 -226 1332 -226 1332 -225 1333 c 0,58,59
 -93 1347 -93 1347 38 1411 c 1,60,-1
 48 1413 l 1,61,62
 68 1413 68 1413 86 1392 c 0,63,64
 101 1375 101 1375 105 1356 c 0,65,66
 105 1354 105 1354 105 1352 c 128,-1,67
 105 1350 105 1350 105 1348 c 0,68,69
 102 1329 102 1329 101.5 1304 c 128,-1,70
 101 1279 101 1279 104 1248.5 c 128,-1,71
 107 1218 107 1218 114 1182 c 2,72,-1
 180 807 l 1,73,74
 214 831 214 831 263 859 c 0,75,76
 337 901 337 901 392 901 c 0,77,78
 423 901 423 901 452.5 896.5 c 128,-1,79
 482 892 482 892 511.5 883 c 128,-1,80
 541 874 541 874 569 860 c 0,81,82
 653 819 653 819 712 754 c 0,83,84
 770 690 770 690 808 615 c 0,85,86
 847 540 847 540 860 466 c 0,87,88
 869 415 869 415 867.5 366 c 128,-1,89
 866 317 866 317 855 271 c 0,90,91
 847 240 847 240 835.5 211.5 c 128,-1,92
 824 183 824 183 809 157.5 c 128,-1,93
 794 132 794 132 775 110 c 0,94,95
 719 42 719 42 629 1.5 c 128,-1,96
 539 -39 539 -39 430 -39 c 0,0,1
326 733 m 0,97,98
 295 733 295 733 254 716 c 0,99,100
 246 712 246 712 238.5 708.5 c 128,-1,101
 231 705 231 705 225.5 702 c 128,-1,102
 220 699 220 699 215.5 696 c 128,-1,103
 211 693 211 693 208 690.5 c 128,-1,104
 205 688 205 688 204 686 c 0,105,106
 202 683 202 683 202 682 c 2,107,-1
 287 196 l 2,108,109
 295 148 295 148 349 115 c 0,110,111
 378 97 378 97 408 88 c 128,-1,112
 438 79 438 79 469 79 c 0,113,114
 477 79 477 79 484 79.5 c 128,-1,115
 491 80 491 80 498.5 81.5 c 128,-1,116
 506 83 506 83 513 85 c 128,-1,117
 520 87 520 87 526.5 89.5 c 128,-1,118
 533 92 533 92 539.5 95.5 c 128,-1,119
 546 99 546 99 552.5 103.5 c 128,-1,120
 559 108 559 108 565.5 112.5 c 128,-1,121
 572 117 572 117 578 123 c 0,122,123
 627 169 627 169 648 241 c 128,-1,124
 669 313 669 313 656 388 c 0,125,126
 627 552 627 552 537 644 c 0,127,128
 449 733 449 733 326 733 c 0,97,98
EndSplineSet
Substitution2: "'smcp' Lowercase to Small Capitals lookup 12 subtable" b.sc
EndChar

StartChar: c
Encoding: 99 99 69
Width: 846
GlyphClass: 2
Flags: W
LayerCount: 4
Fore
SplineSet
653 772 m 0,0,1
 656 753 656 753 656 737.5 c 128,-1,2
 656 722 656 722 651.5 707.5 c 128,-1,3
 647 693 647 693 639 682 c 0,4,5
 627 667 627 667 610 659 c 128,-1,6
 593 651 593 651 573 651 c 0,7,8
 546 651 546 651 517 668 c 0,9,10
 505 675 505 675 491.5 684 c 128,-1,11
 478 693 478 693 465 704 c 0,12,13
 441 723 441 723 430 729 c 0,14,15
 395 750 395 750 375 757 c 0,16,17
 366 760 366 760 353 761.5 c 128,-1,18
 340 763 340 763 323 763 c 0,19,20
 250 763 250 763 203 681 c 0,21,22
 154 595 154 595 179 454 c 0,23,24
 207 297 207 297 303 219 c 0,25,26
 352 180 352 180 409 160.5 c 128,-1,27
 466 141 466 141 533 141 c 0,28,29
 598 141 598 141 642 170 c 0,30,31
 688 201 688 201 710 234 c 0,32,33
 713 238 713 238 717.5 240.5 c 128,-1,34
 722 243 722 243 727 243 c 128,-1,35
 732 243 732 243 736 242 c 128,-1,36
 740 241 740 241 742.5 240 c 128,-1,37
 745 239 745 239 746.5 237.5 c 128,-1,38
 748 236 748 236 749 235 c 128,-1,39
 750 234 750 234 750 233 c 0,40,41
 759 226 759 226 767 215 c 0,42,43
 771 209 771 209 773.5 203 c 128,-1,44
 776 197 776 197 777 190 c 0,45,46
 780 167 780 167 770 141 c 0,47,48
 766 131 766 131 761 122 c 128,-1,49
 756 113 756 113 750 103.5 c 128,-1,50
 744 94 744 94 737 85 c 128,-1,51
 730 76 730 76 722 66.5 c 128,-1,52
 714 57 714 57 704.5 47.5 c 128,-1,53
 695 38 695 38 684 28 c 0,54,55
 650 -2 650 -2 600 -22 c 0,56,57
 574 -32 574 -32 546.5 -36.5 c 128,-1,58
 519 -41 519 -41 489 -41 c 0,59,60
 365 -41 365 -41 254 21 c 0,61,62
 143 83 143 83 74 180 c 0,63,64
 4 277 4 277 -15 388 c 0,65,66
 -31 477 -31 477 -13 559 c 0,67,68
 5 641 5 641 47 702 c 0,69,70
 89 762 89 762 146 808 c 0,71,72
 204 854 204 854 271 877 c 0,73,74
 338 901 338 901 405 901 c 0,75,76
 521 901 521 901 608 849 c 0,77,78
 610 848 610 848 613 846 c 0,79,80
 626 835 626 835 638 812 c 0,81,82
 644 801 644 801 647.5 791.5 c 128,-1,83
 651 782 651 782 653 772 c 0,0,1
EndSplineSet
Substitution2: "'smcp' Lowercase to Small Capitals lookup 12 subtable" c.sc
EndChar

StartChar: d
Encoding: 100 100 70
Width: 1030
GlyphClass: 2
Flags: W
LayerCount: 4
Fore
SplineSet
395 901 m 0,0,1
 427 901 427 901 476 894 c 0,2,3
 502 890 502 890 521 886 c 1,4,5
 520 892 520 892 519 898 c 2,6,-1
 480 1116 l 2,7,8
 468 1191 468 1191 456 1210 c 0,9,10
 455 1212 455 1212 451 1214.5 c 128,-1,11
 447 1217 447 1217 439 1220 c 128,-1,12
 431 1223 431 1223 420 1225.5 c 128,-1,13
 409 1228 409 1228 391.5 1229.5 c 128,-1,14
 374 1231 374 1231 353 1231 c 0,15,16
 334 1231 334 1231 326 1240 c 128,-1,17
 318 1249 318 1249 319 1258 c 2,18,-1
 320 1267 l 2,19,20
 318 1274 318 1274 316.5 1281 c 128,-1,21
 315 1288 315 1288 314 1295 c 0,22,23
 313.5 1297.5 l 0,24,25
 313 1300 313 1300 313 1302 c 128,-1,26
 313 1304 313 1304 312.5 1307 c 128,-1,27
 312 1310 312 1310 312.5 1312.5 c 128,-1,28
 313 1315 313 1315 314 1318.5 c 128,-1,29
 315 1322 315 1322 317 1324.5 c 128,-1,30
 319 1327 319 1327 322.5 1329 c 128,-1,31
 326 1331 326 1331 331 1332 c 0,32,33
 333 1332 333 1332 334 1333 c 0,34,35
 360 1336 360 1336 386.5 1340.5 c 128,-1,36
 413 1345 413 1345 439.5 1352 c 128,-1,37
 466 1359 466 1359 492 1367.5 c 128,-1,38
 518 1376 518 1376 544.5 1387 c 128,-1,39
 571 1398 571 1398 597 1411 c 0,40,41
 599 1412 599 1412 601.5 1412.5 c 128,-1,42
 604 1413 604 1413 607 1413 c 0,43,44
 627 1413 627 1413 645 1392 c 0,45,46
 660 1375 660 1375 664 1356 c 0,47,48
 664 1354 664 1354 664 1352 c 128,-1,49
 664 1350 664 1350 664 1348 c 0,50,51
 659 1319 659 1319 661 1277 c 128,-1,52
 663 1235 663 1235 673 1182 c 2,53,-1
 824 326 l 2,54,55
 851 173 851 173 868 141 c 0,56,57
 869 140 869 140 872.5 137.5 c 128,-1,58
 876 135 876 135 881 133 c 0,59,60
 898 126 898 126 914 124 c 0,61,62
 933 122 933 122 950 120 c 0,63,64
 965 119 965 119 968 119 c 2,65,-1
 979 116 l 2,66,67
 984 114 984 114 988 111 c 128,-1,68
 992 108 992 108 995 104 c 128,-1,69
 998 100 998 100 999.5 97 c 128,-1,70
 1001 94 1001 94 1002.5 89.5 c 128,-1,71
 1004 85 1004 85 1004.5 82.5 c 128,-1,72
 1005 80 1005 80 1006 75.5 c 128,-1,73
 1007 71 1007 71 1007 70 c 0,74,75
 1009 59 1009 59 1005 42 c 0,76,77
 999 17 999 17 978 15 c 0,78,79
 949 13 949 13 914 7 c 128,-1,80
 879 1 879 1 849 -6 c 0,81,82
 818 -14 818 -14 792 -22 c 0,83,84
 765 -30 765 -30 749 -35 c 2,85,-1
 732 -40 l 2,86,87
 731 -40 731 -40 729 -40.5 c 128,-1,88
 727 -41 727 -41 725 -41 c 0,89,90
 684 -41 684 -41 673 22 c 2,91,-1
 667 56 l 1,92,93
 638 33 638 33 590 6 c 0,94,95
 507 -41 507 -41 437 -41 c 0,96,97
 285 -41 285 -41 149 92 c 0,98,99
 14 224 14 224 -20 412 c 0,100,101
 -38 511 -38 511 -2 606 c 0,102,103
 33 699 33 699 98 762 c 0,104,105
 162 824 162 824 241 862 c 0,106,107
 281 881 281 881 319.5 891 c 128,-1,108
 358 901 358 901 395 901 c 0,0,1
355 767 m 0,109,110
 259 767 259 767 215 678 c 0,111,112
 168 585 168 585 190 460 c 0,113,114
 194 436 194 436 200 414 c 128,-1,115
 206 392 206 392 213.5 371 c 128,-1,116
 221 350 221 350 230.5 330.5 c 128,-1,117
 240 311 240 311 251 293 c 128,-1,118
 262 275 262 275 274.5 258 c 128,-1,119
 287 241 287 241 302 225 c 0,120,121
 386 133 386 133 505 133 c 0,122,123
 520 133 520 133 533.5 134.5 c 128,-1,124
 547 136 547 136 560 139 c 128,-1,125
 573 142 573 142 585 146.5 c 128,-1,126
 597 151 597 151 608 157 c 0,127,128
 617 162 617 162 624 167 c 128,-1,129
 631 172 631 172 634.5 175.5 c 128,-1,130
 638 179 638 179 640.5 182 c 128,-1,131
 643 185 643 185 643.5 186.5 c 0,132,-1
 644 188 l 2,133,-1
 555 694 l 2,134,135
 555 697 555 697 551.5 701 c 128,-1,136
 548 705 548 705 542 710.5 c 128,-1,137
 536 716 536 716 524 723.5 c 128,-1,138
 512 731 512 731 496 738 c 128,-1,139
 480 745 480 745 463 750.5 c 128,-1,140
 446 756 446 756 428.5 759.5 c 128,-1,141
 411 763 411 763 392.5 765 c 128,-1,142
 374 767 374 767 355 767 c 0,109,110
EndSplineSet
Substitution2: "'smcp' Lowercase to Small Capitals lookup 12 subtable" d.sc
EndChar

StartChar: e
Encoding: 101 101 71
Width: 860
GlyphClass: 2
Flags: W
LayerCount: 4
Fore
SplineSet
157 595 m 1,0,-1
 453 595 l 2,1,2
 465 595 465 595 468.5 599 c 128,-1,3
 472 603 472 603 470 617 c 0,4,5
 468 633 468 633 456 659 c 0,6,7
 443 686 443 686 421 716 c 0,8,9
 401 743 401 743 369 761 c 0,10,11
 353 770 353 770 337 774.5 c 128,-1,12
 321 779 321 779 303 779 c 0,13,14
 263 779 263 779 233 759 c 0,15,16
 202 738 202 738 189 708 c 0,17,18
 173 675 173 675 165 643 c 0,19,20
 159 615 159 615 157 595 c 1,0,-1
164 471 m 1,21,22
 194 316 194 316 290 229 c 0,23,24
 394 137 394 137 524 137 c 0,25,26
 535 137 535 137 545.5 138 c 128,-1,27
 556 139 556 139 565.5 140.5 c 128,-1,28
 575 142 575 142 584.5 144.5 c 128,-1,29
 594 147 594 147 603 150.5 c 128,-1,30
 612 154 612 154 620 158.5 c 128,-1,31
 628 163 628 163 636 168 c 0,32,33
 685 201 685 201 708 234 c 0,34,35
 711 238 711 238 715.5 240.5 c 128,-1,36
 720 243 720 243 725 243 c 128,-1,37
 730 243 730 243 734 242 c 128,-1,38
 738 241 738 241 740.5 240 c 128,-1,39
 743 239 743 239 744.5 237.5 c 128,-1,40
 746 236 746 236 747 235 c 128,-1,41
 748 234 748 234 748 233 c 0,42,43
 757 226 757 226 765 215 c 0,44,45
 769 209 769 209 771.5 203 c 128,-1,46
 774 197 774 197 775 190 c 0,47,48
 776 184 776 184 776.5 177.5 c 128,-1,49
 777 171 777 171 776 165 c 128,-1,50
 775 159 775 159 773 153 c 0,51,52
 770 147 770 147 768 141 c 0,53,54
 762 127 762 127 754 113 c 128,-1,55
 746 99 746 99 735 85 c 0,56,57
 728 76 728 76 720 66.5 c 128,-1,58
 712 57 712 57 702.5 47.5 c 128,-1,59
 693 38 693 38 682 28 c 0,60,61
 648 -2 648 -2 598 -22 c 0,62,63
 572 -32 572 -32 544.5 -36.5 c 128,-1,64
 517 -41 517 -41 487 -41 c 0,65,66
 301 -41 301 -41 159 85 c 128,-1,67
 17 211 17 211 -16 400 c 0,68,69
 -34 502 -34 502 -11 597 c 0,70,71
 11 691 11 691 59 756 c 0,72,73
 83 788 83 788 112 814.5 c 128,-1,74
 141 841 141 841 174 861 c 0,75,76
 242 901 242 901 315 901 c 128,-1,77
 388 901 388 901 451 878 c 0,78,79
 515 855 515 855 556 822 c 0,80,81
 563 816 563 816 569.5 810 c 128,-1,82
 576 804 576 804 582.5 798 c 128,-1,83
 589 792 589 792 594.5 786 c 128,-1,84
 600 780 600 780 606 773.5 c 128,-1,85
 612 767 612 767 617 760 c 128,-1,86
 622 753 622 753 627 746 c 0,87,88
 657 704 657 704 672 669 c 128,-1,89
 687 634 687 634 692 604 c 0,90,91
 701 553 701 553 694 524 c 0,92,93
 689 506 689 506 675 496 c 128,-1,94
 661 486 661 486 642 485 c 0,95,96
 601 482 601 482 383 477 c 0,97,98
 220 472 220 472 164 471 c 1,21,22
EndSplineSet
Substitution2: "'smcp' Lowercase to Small Capitals lookup 12 subtable" e.sc
EndChar

StartChar: f
Encoding: 102 102 72
Width: 616
GlyphClass: 2
Flags: W
LayerCount: 4
Fore
SplineSet
289 1419 m 0,0,1
 336 1419 336 1419 353.5 1414 c 128,-1,2
 371 1409 371 1409 402 1391 c 0,3,4
 403 1390 403 1390 404 1389 c 128,-1,5
 405 1388 405 1388 406 1388 c 0,6,7
 419 1377 419 1377 431 1354 c 0,8,9
 437 1343 437 1343 441 1333.5 c 128,-1,10
 445 1324 445 1324 446 1314 c 0,11,12
 451 1283 451 1283 445 1261 c 0,13,14
 437 1236 437 1236 418 1224 c 0,15,16
 403 1215 403 1215 388 1212 c 0,17,18
 385 1211 385 1211 381.5 1210.5 c 128,-1,19
 378 1210 378 1210 374.5 1209.5 c 128,-1,20
 371 1209 371 1209 367 1209 c 128,-1,21
 363 1209 363 1209 360 1209 c 0,22,23
 350 1209 350 1209 337.5 1212.5 c 128,-1,24
 325 1216 325 1216 313.5 1221 c 128,-1,25
 302 1226 302 1226 285 1234 c 0,26,27
 270 1242 270 1242 257.5 1245.5 c 128,-1,28
 245 1249 245 1249 237 1249 c 0,29,30
 225 1249 225 1249 216 1245.5 c 128,-1,31
 207 1242 207 1242 199 1233.5 c 128,-1,32
 191 1225 191 1225 185 1211 c 0,33,34
 176 1191 176 1191 174 1161.5 c 128,-1,35
 172 1132 172 1132 179 1092 c 2,36,-1
 220 863 l 1,37,-1
 431 863 l 2,38,39
 466 863 466 863 474 816 c 0,40,41
 481 774 481 774 452 738 c 0,42,43
 446 731 446 731 436 731 c 2,44,-1
 243 731 l 1,45,-1
 331 232 l 2,46,47
 340 181 340 181 348.5 145.5 c 128,-1,48
 357 110 357 110 363 95 c 1,49,50
 368 93 368 93 377.5 90.5 c 128,-1,51
 387 88 387 88 400 86 c 0,52,53
 449 77 449 77 477 77 c 0,54,55
 489 77 489 77 499 67 c 0,56,57
 512 53 512 53 518 24 c 0,58,59
 521 9 521 9 520.5 -2 c 128,-1,60
 520 -13 520 -13 513.5 -22.5 c 128,-1,61
 507 -32 507 -32 495 -31 c 0,62,63
 289 -21 289 -21 273 -21 c 0,64,65
 239 -21 239 -21 207 -22 c 0,66,67
 175 -23 175 -23 134 -27 c 0,68,69
 92 -30 92 -30 63 -31 c 0,70,71
 51 -31 51 -31 42 -22 c 0,72,73
 26 -7 26 -7 21 24 c 0,74,75
 17 53 17 53 25 67 c 0,76,77
 31 77 31 77 43 77 c 0,78,79
 70 77 70 77 113 86 c 0,80,81
 135 90 135 90 143 95 c 1,82,83
 144 110 144 110 140 145.5 c 128,-1,84
 136 181 136 181 127 232 c 2,85,-1
 39 731 l 1,86,-1
 -52 731 l 2,87,88
 -71 731 -71 731 -81.5 745 c 128,-1,89
 -92 759 -92 759 -94 774 c 0,90,91
 -95 780 -95 780 -95 784.5 c 128,-1,92
 -95 789 -95 789 -94 792.5 c 128,-1,93
 -93 796 -93 796 -90.5 800 c 128,-1,94
 -88 804 -88 804 -86 806.5 c 128,-1,95
 -84 809 -84 809 -80.5 813.5 c 128,-1,96
 -77 818 -77 818 -75 821 c 0,97,98
 -57 847 -57 847 -50 856 c 0,99,100
 -44 863 -44 863 -33 863 c 2,101,-1
 16 863 l 1,102,-1
 14 876 l 2,103,104
 -5 983 -5 983 15 1087 c 0,105,106
 25 1138 25 1138 41 1181.5 c 128,-1,107
 57 1225 57 1225 79 1261 c 0,108,109
 90 1278 90 1278 101.5 1293.5 c 128,-1,110
 113 1309 113 1309 125 1323.5 c 128,-1,111
 137 1338 137 1338 150 1350.5 c 128,-1,112
 163 1363 163 1363 177 1374 c 0,113,114
 235 1419 235 1419 289 1419 c 0,0,1
EndSplineSet
Substitution2: "'smcp' Lowercase to Small Capitals lookup 12 subtable" f.sc
EndChar

StartChar: g
Encoding: 103 103 73
Width: 932
GlyphClass: 2
Flags: W
LayerCount: 4
Fore
SplineSet
290 793 m 0,0,1
 222 793 222 793 193 733 c 0,2,3
 161 668 161 668 176 584 c 0,4,5
 192 494 192 494 252 424 c 0,6,7
 309 359 309 359 383 359 c 0,8,9
 448 359 448 359 476 417 c 0,10,11
 507 480 507 480 492 562 c 0,12,13
 475 657 475 657 417 727 c 0,14,15
 363 793 363 793 290 793 c 0,0,1
516 -33 m 0,16,17
 367 -33 367 -33 342 -40 c 0,18,19
 329 -48 329 -48 318 -57 c 128,-1,20
 307 -66 307 -66 297 -76 c 128,-1,21
 287 -86 287 -86 277 -98 c 0,22,23
 252 -128 252 -128 256 -152 c 0,24,25
 272 -241 272 -241 344 -295 c 0,26,27
 418 -351 418 -351 534 -351 c 0,28,29
 565 -351 565 -351 596 -344 c 128,-1,30
 627 -337 627 -337 658 -323 c 0,31,32
 719 -295 719 -295 753 -249 c 0,33,34
 785 -206 785 -206 778 -162 c 0,35,36
 777 -159 777 -159 776 -156 c 128,-1,37
 775 -153 775 -153 773.5 -149.5 c 128,-1,38
 772 -146 772 -146 770 -142 c 128,-1,39
 768 -138 768 -138 765.5 -134 c 128,-1,40
 763 -130 763 -130 760 -126 c 0,41,42
 743 -104 743 -104 713 -83 c 0,43,44
 683 -62 683 -62 632 -48 c 0,45,46
 606 -41 606 -41 577 -37 c 128,-1,47
 548 -33 548 -33 516 -33 c 0,16,17
574 159 m 2,48,49
 702 159 702 159 815 91 c 0,50,51
 934 20 934 20 950 -76 c 0,52,53
 962 -144 962 -144 928 -218 c 0,54,55
 912 -253 912 -253 888 -285 c 128,-1,56
 864 -317 864 -317 833 -346 c 0,57,58
 771 -403 771 -403 676 -440 c 0,59,60
 581 -478 581 -478 477 -479 c 2,61,-1
 470 -479 l 2,62,63
 384 -479 384 -479 302 -453 c 0,64,65
 214 -425 214 -425 145 -363 c 0,66,67
 73 -298 73 -298 58 -210 c 0,68,69
 51 -171 51 -171 71 -132 c 0,70,71
 89 -96 89 -96 124 -65 c 0,72,73
 156 -36 156 -36 185 -16 c 0,74,75
 189 -13 189 -13 193.5 -10 c 128,-1,76
 198 -7 198 -7 202 -5 c 1,77,78
 158 16 158 16 118 49 c 0,79,80
 50 105 50 105 37 184 c 0,81,82
 35 193 35 193 40 200 c 0,83,84
 60 229 60 229 111 275 c 0,85,86
 126 288 126 288 139.5 299.5 c 128,-1,87
 153 311 153 311 164 319 c 1,88,89
 100 359 100 359 51 418 c 0,90,91
 -13 495 -13 495 -27 576 c 0,92,93
 -50 708 -50 708 39 806 c 0,94,95
 128 903 128 903 279 903 c 0,96,97
 304 903 304 903 329 900 c 0,98,99
 355 897 355 897 381 890 c 0,100,101
 404 883 404 883 415 880 c 0,102,103
 420 879 420 879 425.5 877 c 128,-1,104
 431 875 431 875 437.5 872.5 c 128,-1,105
 444 870 444 870 454 867 c 2,106,-1
 478 857 l 2,107,108
 500 849 500 849 518 845 c 1,109,-1
 722 875 l 2,110,111
 725 875 725 875 728 875 c 128,-1,112
 731 875 731 875 733 874 c 0,113,114
 749 869 749 869 762.5 858 c 128,-1,115
 776 847 776 847 779 830 c 0,116,117
 781 818 781 818 778.5 806 c 128,-1,118
 776 794 776 794 770 775 c 0,119,120
 764 757 764 757 756.5 745 c 128,-1,121
 749 733 749 733 738 726 c 0,122,123
 732 722 732 722 725 723 c 2,124,-1
 628 729 l 1,125,126
 639 713 639 713 651 690 c 0,127,128
 667 661 667 661 678 630.5 c 128,-1,129
 689 600 689 600 695 568 c 0,130,131
 706 507 706 507 688 452 c 128,-1,132
 670 397 670 397 626 348 c 0,133,134
 596 315 596 315 559.5 293 c 128,-1,135
 523 271 523 271 480 260 c 128,-1,136
 437 249 437 249 388 249 c 0,137,138
 374 249 374 249 357.5 250.5 c 128,-1,139
 341 252 341 252 322 255 c 0,140,141
 313 256 313 256 304.5 258 c 128,-1,142
 296 260 296 260 289 261.5 c 128,-1,143
 282 263 282 263 276 265 c 1,144,145
 267 258 267 258 259.5 250.5 c 128,-1,146
 252 243 252 243 245 234 c 0,147,148
 233 217 233 217 235 204 c 0,149,150
 235 203 235 203 237 200.5 c 128,-1,151
 239 198 239 198 246 191.5 c 128,-1,152
 253 185 253 185 263 179 c 0,153,154
 278 169 278 169 296.5 164 c 128,-1,155
 315 159 315 159 338 159 c 2,156,-1
 574 159 l 2,48,49
EndSplineSet
Substitution2: "'smcp' Lowercase to Small Capitals lookup 12 subtable" g.sc
EndChar

StartChar: h
Encoding: 104 104 74
Width: 1032
GlyphClass: 2
Flags: W
LayerCount: 4
Fore
SplineSet
456 901 m 0,0,1
 526 901 526 901 578 882 c 0,2,3
 605 873 605 873 628.5 859.5 c 128,-1,4
 652 846 652 846 671 828 c 0,5,6
 679 821 679 821 686.5 812.5 c 128,-1,7
 694 804 694 804 701 795 c 128,-1,8
 708 786 708 786 715 776 c 128,-1,9
 722 766 722 766 727.5 755.5 c 128,-1,10
 733 745 733 745 739 733 c 0,11,12
 766 677 766 677 784 610 c 0,13,14
 802 545 802 545 818 452 c 2,15,-1
 857 232 l 2,16,17
 875 128 875 128 889 95 c 1,18,19
 900 90 900 90 923 86 c 0,20,21
 969 77 969 77 995 77 c 0,22,23
 1008 77 1008 77 1017 67 c 0,24,25
 1030 53 1030 53 1036 24 c 0,26,27
 1042 -7 1042 -7 1032 -22 c 0,28,29
 1029 -26 1029 -26 1024 -28.5 c 128,-1,30
 1019 -31 1019 -31 1013 -31 c 0,31,32
 948 -28 948 -28 899 -25.5 c 128,-1,33
 850 -23 850 -23 825.5 -22 c 128,-1,34
 801 -21 801 -21 799 -21 c 0,35,36
 764 -21 764 -21 733 -22 c 0,37,38
 701 -23 701 -23 660 -27 c 0,39,40
 646 -28 646 -28 633.5 -29 c 128,-1,41
 621 -30 621 -30 610 -30.5 c 128,-1,42
 599 -31 599 -31 589 -31 c 0,43,44
 577 -31 577 -31 568 -22 c 0,45,46
 552 -7 552 -7 547 24 c 0,47,48
 545 38 545 38 545.5 48 c 128,-1,49
 546 58 546 58 551 67 c 0,50,51
 557 77 557 77 569 77 c 0,52,53
 596 77 596 77 639 86 c 0,54,55
 661 90 661 90 669 95 c 1,56,57
 671 128 671 128 653 232 c 2,58,-1
 618 432 l 2,59,60
 602 523 602 523 581 585.5 c 128,-1,61
 560 648 560 648 537 678 c 0,62,63
 516 706 516 706 481 720.5 c 128,-1,64
 446 735 446 735 393 735 c 0,65,66
 365 735 365 735 328 714 c 0,67,68
 311 704 311 704 297 694 c 128,-1,69
 283 684 283 684 271 674 c 0,70,71
 267 670 267 670 263 667 c 0,72,73
 256 660 256 660 251 654.5 c 128,-1,74
 246 649 246 649 244 646 c 2,75,-1
 317 232 l 2,76,77
 335 128 335 128 349 95 c 1,78,79
 360 90 360 90 383 86 c 0,80,81
 429 77 429 77 455 77 c 0,82,83
 467 77 467 77 477 67 c 0,84,85
 490 53 490 53 496 24 c 0,86,87
 499 9 499 9 498.5 -2 c 128,-1,88
 498 -13 498 -13 491.5 -22.5 c 128,-1,89
 485 -32 485 -32 473 -31 c 0,90,91
 445 -30 445 -30 419 -28.5 c 128,-1,92
 393 -27 393 -27 372 -26 c 128,-1,93
 351 -25 351 -25 333.5 -24 c 128,-1,94
 316 -23 316 -23 302.5 -22.5 c 128,-1,95
 289 -22 289 -22 279.5 -21.5 c 128,-1,96
 270 -21 270 -21 265 -21 c 128,-1,97
 260 -21 260 -21 259 -21 c 0,98,99
 224 -21 224 -21 193 -22 c 0,100,101
 161 -23 161 -23 120 -27 c 0,102,103
 78 -30 78 -30 49 -31 c 0,104,105
 37 -31 37 -31 28 -22 c 0,106,107
 12 -7 12 -7 7 24 c 0,108,109
 3 53 3 53 11 67 c 0,110,111
 17 77 17 77 29 77 c 0,112,113
 56 77 56 77 99 86 c 0,114,115
 121 90 121 90 129 95 c 1,116,117
 131 128 131 128 113 232 c 2,118,-1
 -43 1116 l 2,119,120
 -49 1152 -49 1152 -56 1177.5 c 0,121,122
 -64 1203 -64 1203 -68 1210 c 0,123,124
 -69 1212 -69 1212 -72.5 1214.5 c 128,-1,125
 -76 1217 -76 1217 -84 1220 c 128,-1,126
 -92 1223 -92 1223 -103 1225.5 c 128,-1,127
 -114 1228 -114 1228 -131.5 1229.5 c 128,-1,128
 -149 1231 -149 1231 -170 1231 c 0,129,130
 -207 1231 -207 1231 -204 1263 c 2,131,-1
 -203 1267 l 2,132,133
 -205 1274 -205 1274 -206.5 1281 c 128,-1,134
 -208 1288 -208 1288 -209 1295 c 0,135,-1
 -209 1297 l 0,136,137
 -215 1326 -215 1326 -192 1332 c 0,138,139
 -190 1332 -190 1332 -189 1333 c 0,140,141
 -57 1347 -57 1347 74 1411 c 0,142,143
 76 1412 76 1412 78.5 1412.5 c 128,-1,144
 81 1413 81 1413 84 1413 c 0,145,146
 104 1413 104 1413 122 1392 c 0,147,148
 137 1375 137 1375 141 1356 c 0,149,150
 141 1354 141 1354 141 1352 c 128,-1,151
 141 1350 141 1350 141 1348 c 0,152,153
 136 1319 136 1319 138 1277 c 128,-1,154
 140 1235 140 1235 150 1182 c 2,155,-1
 221 777 l 1,156,157
 253 810 253 810 306 846 c 0,158,159
 385 901 385 901 456 901 c 0,0,1
EndSplineSet
Substitution2: "'smcp' Lowercase to Small Capitals lookup 12 subtable" h.sc
EndChar

StartChar: k
Encoding: 107 107 77
Width: 1036
GlyphClass: 2
Flags: W
LayerCount: 4
Fore
SplineSet
317 232 m 2,0,1
 335 128 335 128 349 95 c 1,2,3
 360 90 360 90 383 86 c 0,4,5
 429 77 429 77 455 77 c 0,6,7
 467 77 467 77 477 67 c 0,8,9
 490 53 490 53 496 24 c 0,10,11
 499 9 499 9 498.5 -2 c 128,-1,12
 498 -13 498 -13 491.5 -22.5 c 128,-1,13
 485 -32 485 -32 473 -31 c 0,14,15
 445 -30 445 -30 419 -28.5 c 128,-1,16
 393 -27 393 -27 372 -26 c 128,-1,17
 351 -25 351 -25 333.5 -24 c 128,-1,18
 316 -23 316 -23 302.5 -22.5 c 128,-1,19
 289 -22 289 -22 279.5 -21.5 c 128,-1,20
 270 -21 270 -21 265 -21 c 128,-1,21
 260 -21 260 -21 259 -21 c 0,22,23
 224 -21 224 -21 193 -22 c 0,24,25
 161 -23 161 -23 120 -27 c 0,26,27
 78 -30 78 -30 49 -31 c 0,28,29
 37 -31 37 -31 28 -22 c 0,30,31
 12 -7 12 -7 7 24 c 0,32,33
 3 53 3 53 11 67 c 0,34,35
 17 77 17 77 29 77 c 0,36,37
 56 77 56 77 99 86 c 0,38,39
 121 90 121 90 129 95 c 1,40,41
 131 128 131 128 113 232 c 2,42,-1
 -43 1116 l 2,43,44
 -49 1152 -49 1152 -56 1177.5 c 0,45,46
 -64 1203 -64 1203 -68 1210 c 0,47,48
 -69 1212 -69 1212 -72.5 1214.5 c 128,-1,49
 -76 1217 -76 1217 -84 1220 c 128,-1,50
 -92 1223 -92 1223 -103 1225.5 c 128,-1,51
 -114 1228 -114 1228 -131.5 1229.5 c 128,-1,52
 -149 1231 -149 1231 -170 1231 c 0,53,54
 -207 1231 -207 1231 -204 1263 c 2,55,-1
 -203 1267 l 2,56,57
 -205 1274 -205 1274 -206.5 1281 c 128,-1,58
 -208 1288 -208 1288 -209 1295 c 0,59,-1
 -209 1297 l 0,60,61
 -215 1326 -215 1326 -192 1332 c 0,62,63
 -190 1332 -190 1332 -189 1333 c 0,64,65
 -57 1347 -57 1347 74 1411 c 0,66,67
 76 1412 76 1412 78.5 1412.5 c 128,-1,68
 81 1413 81 1413 84 1413 c 0,69,70
 104 1413 104 1413 122 1392 c 0,71,72
 137 1375 137 1375 141 1356 c 0,73,74
 141 1354 141 1354 141 1352 c 128,-1,75
 141 1350 141 1350 141 1348 c 0,76,77
 136 1319 136 1319 138 1277 c 128,-1,78
 140 1235 140 1235 150 1182 c 2,79,-1
 267 513 l 1,80,81
 286 528 286 528 312.5 552.5 c 128,-1,82
 339 577 339 577 373 611 c 0,83,84
 394 632 394 632 422.5 659.5 c 128,-1,85
 451 687 451 687 468 703 c 0,86,87
 484 718 484 718 499 734 c 0,88,89
 502 737 502 737 505.5 740.5 c 128,-1,90
 509 744 509 744 511 747 c 128,-1,91
 513 750 513 750 515 752 c 128,-1,92
 517 754 517 754 518 756 c 1,93,94
 512 758 512 758 508 760 c 0,95,96
 505 761 505 761 501 761.5 c 128,-1,97
 497 762 497 762 492 763 c 0,98,99
 482 764 482 764 476 765 c 0,100,101
 468 766 468 766 458 766 c 2,102,-1
 450 767 l 2,103,104
 436 768 436 768 427 779 c 0,105,106
 412 797 412 797 409 827 c 0,107,108
 405 865 405 865 426 873 c 0,109,110
 431 875 431 875 437 875 c 0,111,112
 534 865 534 865 628 865 c 0,113,114
 729 865 729 865 799 875 c 0,115,116
 814 877 814 877 825 864 c 0,117,118
 833 855 833 855 837 844 c 128,-1,119
 841 833 841 833 843 819 c 0,120,121
 848 789 848 789 839 776 c 0,122,123
 836 772 836 772 831.5 769.5 c 128,-1,124
 827 767 827 767 821.5 767 c 128,-1,125
 816 767 816 767 809 766.5 c 128,-1,126
 802 766 802 766 793.5 764.5 c 128,-1,127
 785 763 785 763 775 760.5 c 128,-1,128
 765 758 765 758 754 755 c 0,129,130
 711 743 711 743 690 726 c 0,131,132
 632 678 632 678 583 635.5 c 128,-1,133
 534 593 534 593 495.5 558.5 c 128,-1,134
 457 524 457 524 428 496 c 1,135,136
 491 439 491 439 578 356 c 0,137,138
 681 259 681 259 747 200 c 0,139,140
 810 143 810 143 833 125 c 0,141,142
 842 119 842 119 851.5 113.5 c 128,-1,143
 861 108 861 108 871.5 103.5 c 128,-1,144
 882 99 882 99 893.5 95 c 128,-1,145
 905 91 905 91 917 88 c 0,146,147
 961 77 961 77 997 77 c 2,148,-1
 1009 77 l 2,149,150
 1023 77 1023 77 1033 65 c 0,151,152
 1041 55 1041 55 1047 32 c 0,153,154
 1050 23 1050 23 1050.5 12 c 128,-1,155
 1051 1 1051 1 1049 -7 c 0,156,157
 1046 -15 1046 -15 1038 -19 c 0,158,159
 1008 -33 1008 -33 901 -33 c 0,160,161
 859 -33 859 -33 817.5 -25.5 c 128,-1,162
 776 -18 776 -18 736.5 -2.5 c 128,-1,163
 697 13 697 13 668 29 c 128,-1,164
 639 45 639 45 620 63 c 0,165,166
 427 238 427 238 295 359 c 1,167,-1
 317 232 l 2,0,1
EndSplineSet
Substitution2: "'smcp' Lowercase to Small Capitals lookup 12 subtable" k.sc
EndChar

